<svg xmlns="http://www.w3.org/2000/svg" data-name="Layer 1" viewBox="0 0 2409.854 1000.1">
    <path fill="#ffc800"
        d="M553.02 499.145c39.33-.084 78.735 7.425 113.278 20.889 0 129.907-89.245 179.467-201.018 179.47-.05.103-67.802 139.707 114.13 300.542-180.759 0-315.149-110.856-315.149-249.666 0-39.954 10.511-77.731 29.213-111.274 46.272-82.991 148.102-139.961 259.546-139.961Zm373.291-100.081c8.994 0 16.286 7.11 16.286 15.882 0 8.772-7.291 15.883-16.286 15.883-42.035 0-76.179 32.94-76.77 73.795 39.518 13.49 67.928 50.838 67.928 94.8v100.18H816.96c-55.509 0-100.509-44.852-100.509-100.18s45-100.18 100.51-100.18h.197c3.423-55.888 50.985-100.18 109.153-100.18Zm-919.5-62.88c-21.135-68.158 7.435-89.486 102.498-77.52 46.033 6.41 131.568 33.237 195.775 62.159 104.39 46.809 172.736 98.966 165.395 126.285-4.35 16.188-55.03 39.952-105.413 49.73-102.844 19.566-201.385 5.084-263.217-37.83-41.483-28.496-81.38-80.921-95.037-122.824Zm403.225-292.55c33.41-63.093 68.741-58.038 127.472 17.424 28.003 36.977 69.454 116.23 94.338 181.934 40.606 106.67 51.932 191.722 27.361 205.866-14.56 8.38-67.255-10.534-109.818-39.13-86.602-58.648-146.007-138.34-159.285-212.263-9.117-49.387-.138-114.577 19.932-153.832Z" />
    <g fill="#202020">
        <path
            d="M1277.617 708.308c-42.832 0-76.026-9.515-99.583-28.555-23.558-19.028-35.337-45.92-35.337-80.666 0-37.12 12.493-65.43 37.478-84.949 24.985-19.508 59.842-29.268 104.58-29.268h95.658v61.392h-69.959c-31.89 0-54.253 4.406-67.103 13.206-12.849 8.812-19.273 21.304-19.273 37.478 0 13.809 5.587 24.628 16.775 32.48 11.177 7.853 26.77 11.78 46.758 11.78 18.08 0 33.785-4.039 47.114-12.136 13.318-8.087 23.67-18.795 31.054-32.124 7.372-13.318 11.064-28.31 11.064-44.973h23.558c0 48.542-9.76 86.734-29.269 114.574-19.52 27.84-50.683 41.761-93.515 41.761Zm102.796-8.566-3.57-67.103v-116.36c0-24.27-2.498-44.615-7.495-61.034-4.997-16.419-13.095-29.023-24.271-37.835-11.188-8.8-26.056-13.206-44.617-13.206-17.132 0-32.123 3.569-44.973 10.708s-23.803 18.326-32.837 33.551l-69.959-25.699c7.608-15.705 17.724-30.339 30.34-43.902 12.604-13.564 28.554-24.383 47.828-32.48 19.274-8.088 42.475-12.136 69.601-12.136 34.734 0 63.768 6.781 87.091 20.345 23.312 13.563 40.568 32.96 51.755 58.179 11.176 25.23 16.776 55.681 16.776 91.374l-2.142 195.598h-73.527ZM1518.892 699.742V200.04h79.952v499.702h-79.952ZM1669.511 699.742V200.04h79.952v433.313l-4.283 66.389h-75.669Zm192.742 8.566c-29.982 0-55.803-7.741-77.453-23.2-21.662-15.46-38.192-37.232-49.614-65.318-11.421-28.075-17.132-60.913-17.132-98.513 0-38.069 5.71-71.03 17.132-98.87 11.422-27.84 27.952-49.49 49.614-64.961 21.65-15.46 47.47-23.2 77.453-23.2 32.358 0 60.556 7.74 84.593 23.2 24.026 15.47 42.831 37.12 56.395 64.961 13.563 27.84 20.344 60.801 20.344 98.87 0 37.6-6.781 70.438-20.344 98.513-13.564 28.086-32.37 49.858-56.395 65.317-24.037 15.46-52.235 23.201-84.593 23.201Zm-19.988-72.814c19.029 0 35.927-4.874 50.684-14.634 14.746-9.748 26.525-23.2 35.336-40.333 8.8-17.132 13.207-36.875 13.207-59.25 0-22.364-4.172-42.118-12.493-59.25-8.332-17.133-19.877-30.451-34.622-39.977-14.757-9.514-31.89-14.277-51.398-14.277-18.092 0-34.265 4.763-48.543 14.277-14.276 9.526-25.341 22.844-33.194 39.976-7.852 17.133-11.779 36.887-11.779 59.25 0 22.376 3.927 42.119 11.78 59.251 7.852 17.133 18.794 30.585 32.836 40.333 14.032 9.76 30.094 14.634 48.186 14.634ZM2180.633 699.742l-159.905-356.93h87.091l124.212 300.535 25.699 56.395h-77.097ZM2117.1 851.08c-11.422 0-24.16-2.142-38.192-6.425a238.959 238.959 0 0 1-40.333-16.419l29.982-64.96c9.035 4.283 17.367 7.729 24.985 10.35 7.607 2.61 13.798 3.926 18.56 3.926 11.422 0 21.059-2.978 28.912-8.923 7.852-5.956 14.154-14.634 18.917-26.056l42.118-98.512 120.642-301.249h87.09l-165.615 394.764c-9.994 22.844-20.11 42.832-30.338 59.965-10.24 17.132-22.967 30.338-38.192 39.619-15.237 9.28-34.745 13.92-58.536 13.92Z" />
    </g>
</svg>