<svg width="24" height="24" viewBox="0 0 24 24" fill="none" style="user-select: text;"><path d="M17.9062 0H6.09375C2.72826 0 0 2.72826 0 6.09375V17.9062C0 21.2717 2.72826 24 6.09375 24H17.9062C21.2717 24 24 21.2717 24 17.9062V6.09375C24 2.72826 21.2717 0 17.9062 0Z" fill="url(#paint0_linear)" style="user-select: text;"></path><path d="M13.5772 20.1398C13.9193 19.6678 14.0904 19.0719 14.0904 18.3522C14.0904 17.6324 13.9193 17.0365 13.5772 16.5646C13.2351 16.0926 12.7453 15.8566 12.1082 15.8566C11.4593 15.8566 10.9755 16.0868 10.6568 16.5469C10.3265 17.0071 10.1613 17.6029 10.1613 18.3345C10.1613 19.066 10.3265 19.6678 10.6568 20.1398C10.9872 20.6 11.4711 20.83 12.1082 20.83C12.7453 20.83 13.2351 20.6 13.5772 20.1398Z" fill="white" style="user-select: text;"></path><path d="M13.5772 7.41862C13.9193 6.94665 14.0904 6.35078 14.0904 5.63103C14.0904 4.91126 13.9193 4.3154 13.5772 3.84343C13.2351 3.37145 12.7453 3.13547 12.1082 3.13547C11.4593 3.13547 10.9755 3.36556 10.6568 3.82573C10.3265 4.2859 10.1613 4.88177 10.1613 5.61333C10.1613 6.34489 10.3265 6.94665 10.6568 7.41862C10.9872 7.8788 11.4711 8.10888 12.1082 8.10888C12.7453 8.10888 13.2351 7.8788 13.5772 7.41862Z" fill="white" style="user-select: text;"></path><path d="M5.46 15.839H7.1237V8.17526H5.69008V5.11334H12.7166C13.8729 5.11334 14.8463 5.20774 15.6369 5.39652C16.4274 5.58532 17.0528 5.9452 17.513 6.47616C17.985 7.00713 18.221 7.76229 18.221 8.74164C18.221 9.42598 18.0203 10.0219 17.6192 10.5292C17.2298 11.0366 16.7284 11.4024 16.1148 11.6266C16.9171 11.9688 17.5071 12.4171 17.8847 12.9717C18.274 13.5144 18.4687 14.2637 18.4687 15.2195C18.4687 16.3876 18.0085 17.2902 17.0882 17.9274C16.1797 18.5645 14.8877 18.8831 13.2122 18.8831H5.46V15.839ZM12.0263 10.6708C12.6871 10.6708 13.1708 10.5823 13.4776 10.4053C13.7962 10.2166 13.9555 9.86848 13.9555 9.3611C13.9555 9.00712 13.8434 8.72394 13.6192 8.51155C13.4068 8.28736 13.1237 8.17526 12.7697 8.17526H11.5484V10.6708H12.0263ZM11.8671 15.839C12.5632 15.839 13.1001 15.7445 13.4776 15.5557C13.8552 15.3551 14.044 14.948 14.044 14.3345C14.044 13.3906 13.4659 12.9185 12.3095 12.9185C12.0499 12.9185 11.7962 12.9245 11.5484 12.9363V15.839H11.8671Z" fill="white" style="user-select: text;"></path><defs style="user-select: text;"><linearGradient id="paint0_linear" x1="24" y1="0" x2="0" y2="24" gradientUnits="userSpaceOnUse" style="user-select: text;"><stop stop-color="#00E0AA" style="user-select: text;"></stop><stop offset="1" stop-color="#00CE78" style="user-select: text;"></stop></linearGradient></defs></svg>