<svg id="Layer_1" data-name="Layer 1" xmlns="http://www.w3.org/2000/svg" viewBox="0 0 400 300" width="406" height="306" class="illustration styles_illustrationTablet__1DWOa"><rect x="87.3" y="62.7" width="235.4" height="165.87" fill="#0070f3"></rect><rect x="87.3" y="62.7" width="235.4" height="165.87" fill="#fff" opacity="0.46"></rect><rect x="105.25" y="80.47" width="199.49" height="128.95" fill="#24285b"></rect><ellipse cx="205.91" cy="250.93" rx="178.84" ry="12.93" fill="#e6e6e6" opacity="0.45"></ellipse><circle cx="203.37" cy="147.05" r="37.46" fill="#ffd200"></circle><circle cx="203.37" cy="147.05" r="37.46" fill="#fff" opacity="0.46"></circle><circle cx="203.72" cy="135.63" r="37.46" fill="#ffd200"></circle><path d="M214.39,131.79a6.8,6.8,0,0,0,3.33-7.06c-.6-4.34-5.8-6-9.89-6.27l0-6.55-4,0,0,6.48-2.71,0,0-6.48-4,0,0,6.49-8.13,0,0,4.18,3,0c1.36,0,2,.39,2,1.48l.11,18c0,1.5-.73,2-1.54,2l-3.08,0,0,4.27,7.84-.05,0,6.63,4.07,0-.05-6.63h2.71l0,6.62,4,0,0-6.63h.87c8.29-.06,11-4.14,11-9.67A7.18,7.18,0,0,0,214.39,131.79Zm-13.28-8.91,2.88,0c2,0,6,.31,6,3.59a4.07,4.07,0,0,1-3.52,4.32l-5.33,0Zm4.6,20.72v0l-4.47,0-.05-8.65,5.18,0c1.21,0,5.77.37,5.79,3.59S210,143.57,205.71,143.6Z" fill="#fff"></path><path d="M71.47,220.61H338a0,0,0,0,1,0,0v8.78a21.83,21.83,0,0,1-21.83,21.83H93.3a21.83,21.83,0,0,1-21.83-21.83v-8.78A0,0,0,0,1,71.47,220.61Z" fill="#0070f3"></path><path d="M158,220.61h87.32a0,0,0,0,1,0,0v0a12.3,12.3,0,0,1-12.3,12.3H170.27a12.3,12.3,0,0,1-12.3-12.3v0A0,0,0,0,1,158,220.61Z" opacity="0.08"></path><rect x="61.94" y="95.29" width="87.15" height="74.94" fill="#e6e6e6"></rect><rect x="262.79" y="42.33" width="103.32" height="79.35" fill="#e6e6e6"></rect><path d="M87.09,131h0a9.35,9.35,0,0,1,9.35,9.35v3.48a0,0,0,0,1,0,0H77.74a0,0,0,0,1,0,0v-3.48A9.35,9.35,0,0,1,87.09,131Z" fill="#a5a5a5"></path><circle cx="87.09" cy="125.07" r="6.73" fill="#a5a5a5"></circle><path d="M122.61,131h0a9.35,9.35,0,0,1,9.35,9.35v3.48a0,0,0,0,1,0,0H113.26a0,0,0,0,1,0,0v-3.48A9.35,9.35,0,0,1,122.61,131Z" fill="#a5a5a5"></path><circle cx="122.61" cy="125.07" r="6.73" fill="#a5a5a5"></circle><rect x="77.74" y="151" width="54.75" height="5.62" fill="#a5a5a5" opacity="0.39"></rect><circle cx="71.21" cy="103.72" r="2.94" fill="#24285b"></circle><circle cx="79.38" cy="103.72" r="2.94" fill="#ffd200"></circle><circle cx="87.73" cy="103.72" r="2.94" fill="#0070f3"></circle><circle cx="272.31" cy="51" r="2.94" fill="#24285b"></circle><circle cx="280.48" cy="51" r="2.94" fill="#ffd200"></circle><circle cx="288.83" cy="51" r="2.94" fill="#0070f3"></circle><rect x="280.48" y="89.68" width="16.98" height="16.98" fill="#a5a5a5" opacity="0.49"></rect><rect x="306.01" y="82" width="16.98" height="24.65" fill="#a5a5a5" opacity="0.67"></rect><rect x="330.52" y="69.25" width="16.98" height="37.4" fill="#a5a5a5"></rect><polyline points="287.21 83.55 302.28 66.7 314.5 76.66 328.83 53.93 339.01 62.7" fill="none" stroke="#a5a5a5" stroke-miterlimit="10" stroke-width="2"></polyline><rect x="247.64" y="183.97" width="44.13" height="12.94" fill="#fff" opacity="0.13"></rect><path d="M48.21,236.75s-8.51-2.32-10.37-10.25c0,0,13.2-2.66,13.57,10.95Z" fill="#0070f3" opacity="0.58"></path><path d="M49.25,235.91s-5.94-9.41-.71-18.2c0,0,10,6.37,5.58,18.22Z" fill="#0070f3" opacity="0.73"></path><path d="M50.79,235.92S53.93,226,63.43,224.1c0,0,1.78,6.45-6.15,11.84Z" fill="#0070f3"></path><polygon points="44.61 235.69 46.34 247.5 57.21 247.55 58.81 235.75 44.61 235.69" fill="#24285b"></polygon><polygon points="100.7 134.28 109.38 134.28 105.04 125.72 100.7 134.28" fill="#fff"></polygon></svg>