<svg id="Layer_1" data-name="Layer 1" xmlns="http://www.w3.org/2000/svg" viewBox="0 0 400 300" width="406" height="306" class="illustration styles_illustrationTablet__1DWOa"><path d="M123.7,53.25c-25.09,11-43.62,38.82-47.17,72.36-3,28.26,4.53,59.45,48.12,68.18,84.83,17,164.24,21.61,184.32-25.16S322.52,41.9,279.49,36.89C245.27,32.9,172.69,31.72,123.7,53.25Z" fill="#e6e6e6" opacity="0.3"></path><path d="M243.29,99.15c-3.84-13.64,10.36-25.14,23-18.77,10.77,5.4,25.17,17.43,34.86,44.16,17.23,47.56-93,27.83-93,27.83s-4,3.14-11.36,2.78S191.74,142,207.21,143s61.51-8.79,61.51-8.79S248.17,116.51,243.29,99.15Z" fill="#f4a28c"></path><path d="M243.29,99.15c-3.84-13.64,10.36-25.14,23-18.77,10.77,5.4,25.17,17.43,34.86,44.16,17.23,47.56-93,27.83-93,27.83s-4,3.14-11.36,2.78S191.74,142,207.21,143s61.51-8.79,61.51-8.79S248.17,116.51,243.29,99.15Z" opacity="0.08"></path><path d="M122.38,147.69l-2,9.67c-.91,4.38,10.56,10.45,25.62,13.56s28,2.09,28.9-2.29l2-9.66Z" fill="#ffd200"></path><path d="M122.38,147.69l-2,9.67c-.91,4.38,10.56,10.45,25.62,13.56s28,2.09,28.9-2.29l2-9.66Z" fill="#fff" opacity="0.46"></path><ellipse cx="149.64" cy="153.33" rx="8.1" ry="27.84" transform="translate(-30.82 268.81) rotate(-78.32)" fill="#ffd200"></ellipse><path d="M124.79,136l-2,9.67c-.91,4.38,10.56,10.45,25.62,13.57s28,2.08,28.9-2.3l2-9.66Z" fill="#ffd200"></path><path d="M124.79,136l-2,9.67c-.91,4.38,10.56,10.45,25.62,13.57s28,2.08,28.9-2.3l2-9.66Z" fill="#fff" opacity="0.46"></path><ellipse cx="152.05" cy="141.68" rx="8.1" ry="27.84" transform="translate(-17.49 261.88) rotate(-78.32)" fill="#ffd200"></ellipse><path d="M129.16,124.91l-2,9.66c-.91,4.38,10.56,10.45,25.62,13.57s28,2.09,28.9-2.29l2-9.67Z" fill="#ffd200"></path><path d="M129.16,124.91l-2,9.66c-.91,4.38,10.56,10.45,25.62,13.57s28,2.09,28.9-2.29l2-9.67Z" fill="#fff" opacity="0.46"></path><ellipse cx="156.42" cy="130.54" rx="8.1" ry="27.84" transform="translate(-3.1 257.28) rotate(-78.32)" fill="#ffd200"></ellipse><path d="M129.58,112.85l-2,9.66c-.91,4.38,10.56,10.46,25.62,13.57s28,2.09,28.9-2.29l2-9.67Z" fill="#ffd200"></path><path d="M129.58,112.85l-2,9.66c-.91,4.38,10.56,10.46,25.62,13.57s28,2.09,28.9-2.29l2-9.67Z" fill="#fff" opacity="0.46"></path><ellipse cx="156.84" cy="118.49" rx="8.1" ry="27.84" transform="translate(9.05 248.08) rotate(-78.32)" fill="#ffd200"></ellipse><path d="M219.91,59.39s-.4,5.86.65,9.73a3,3,0,0,0,3.64,2.06,6.52,6.52,0,0,0,5-5L230.86,61a5.27,5.27,0,0,0-2.42-5.59C225.09,53.13,220,55.82,219.91,59.39Z" fill="#f4a28c"></path><polygon points="227.28 62 240.52 75.95 232.31 82.69 225.97 69.83 227.28 62" fill="#f4a28c"></polygon><path d="M231.7,65.56h0a.57.57,0,0,1-.41.55,3.9,3.9,0,0,1-4.42-1.64,4.88,4.88,0,0,1-.1-5.37,23,23,0,0,1-5.4.51,5.45,5.45,0,0,1-1.79-.33L218,54.91s-2.49-4.36.08-5.36,3.86,1.92,5.91-.26,2.51-3,4.72-1.89-.22,2.9,3.34,2.79,3.67,1.36,3.74,3a2.77,2.77,0,0,1-.64,1.51A17.93,17.93,0,0,0,231.7,65.56Z" fill="#24285b"></path><path d="M226.24,64.3s0-2.26,1.7-2.11,1.72,3.41-.59,3.75Z" fill="#f4a28c"></path><path d="M219.85,63.1l-1.6,2.29a.94.94,0,0,0,.62,1.46l2.25.38Z" fill="#f4a28c"></path><path d="M134.08,121.66s9.28,3.09,6.82,11.81-12.21,8.95-12.21,8.95Z" opacity="0.08"></path><path d="M92.91,158.14l8.13,5.6c3.68,2.53,13.74-5.68,22.45-18.34s12.8-25,9.11-27.52l-8.13-5.6Z" fill="#ffd200"></path><path d="M92.91,158.14l8.13,5.6c3.68,2.53,13.74-5.68,22.45-18.34s12.8-25,9.11-27.52l-8.13-5.6Z" fill="#fff" opacity="0.46"></path><ellipse cx="108.69" cy="135.21" rx="27.84" ry="8.1" transform="translate(-64.31 148.09) rotate(-55.46)" fill="#ffd200"></ellipse><ellipse cx="201.57" cy="255.73" rx="168.19" ry="16.64" fill="#e6e6e6" opacity="0.45"></ellipse><circle cx="105.24" cy="162.16" r="26.07" fill="#ffd200"></circle><circle cx="105.24" cy="162.16" r="26.07" fill="#fff" opacity="0.46"></circle><circle cx="104.46" cy="154.25" r="26.07" fill="#ffd200"></circle><path d="M111.48,150.64a4.74,4.74,0,0,0,1.66-5.17c-.8-2.94-4.53-3.59-7.39-3.44l-.61-4.51-2.79.38.61,4.47-1.86.26-.61-4.47-2.78.38.61,4.47-5.61.76.4,2.88,2.08-.28c.94-.13,1.43.09,1.53.84l1.69,12.38c.15,1-.33,1.42-.88,1.5l-2.13.29.4,2.94,5.41-.74.62,4.57,2.8-.39L104,163.2l1.86-.26.63,4.57,2.72-.37-.62-4.57.59-.08c5.72-.78,7.25-3.85,6.73-7.66A5,5,0,0,0,111.48,150.64Zm-10-4.95,2-.28c1.39-.19,4.17-.32,4.48,1.94a2.84,2.84,0,0,1-2,3.3l-3.68.5Zm5,13.88v0l-3.07.42-.82-6,3.58-.49c.83-.11,4-.26,4.31,2S109.53,159.16,106.55,159.57Z" fill="#fff"></path><path d="M134.83,133.5s-16.25-.85-24.49,11.26c-8.07,11.85-7.13,29.61-7.13,29.61L131.66,170Z" opacity="0.08"></path><circle cx="141.72" cy="163.56" r="26.07" fill="#ffd200"></circle><circle cx="141.72" cy="163.56" r="26.07" fill="#fff" opacity="0.46"></circle><circle cx="143.95" cy="155.93" r="26.07" fill="#ffd200"></circle><path d="M151.81,155.2a4.73,4.73,0,0,0,3.48-4.16c.35-3-2.87-5-5.57-6l1.11-4.41-2.72-.69-1.1,4.37-1.83-.46,1.1-4.37-2.72-.69-1.1,4.37L137,141.82l-.72,2.81,2,.52c.92.23,1.3.62,1.11,1.36l-3.06,12.11c-.26,1-.84,1.19-1.39,1l-2.08-.52-.72,2.87,5.28,1.34-1.13,4.47,2.75.7,1.13-4.48,1.82.47L140.88,169l2.67.67,1.13-4.47.58.15c5.6,1.41,8.16-.86,9.1-4.59A5,5,0,0,0,151.81,155.2Zm-7.39-8.32,2,.49c1.36.35,4,1.26,3.42,3.48a2.82,2.82,0,0,1-3.12,2.29l-3.6-.91Zm-.52,14.76v0l-3-.76,1.47-5.83,3.5.88c.82.21,3.82,1.26,3.27,3.44S146.81,162.38,143.9,161.64Z" fill="#fff"></path><polygon points="71.39 172.84 178.74 164.83 175.45 194.58 104.53 222.35 71.39 172.84" fill="#24285b"></polygon><circle cx="85.86" cy="230.69" r="19.4" fill="#24285b"></circle><circle cx="85.86" cy="230.69" r="9.49" fill="#0070f3"></circle><circle cx="85.86" cy="230.69" r="9.49" opacity="0.08"></circle><path d="M85.76,232.4a1.72,1.72,0,0,1-.52-3.31l93.35-36.68,7-40.87a1.71,1.71,0,0,1,1.32-1.38l24.24-5.41a1.72,1.72,0,0,1,.74,3.35l-23.12,5.15-7,40.69a1.75,1.75,0,0,1-1.07,1.31l-94.25,37A1.69,1.69,0,0,1,85.76,232.4Z" fill="#0070f3"></path><path d="M156.8,245.77a8.88,8.88,0,0,1-7.05-4.29L132.6,212.62a1.71,1.71,0,0,1,.6-2.35,1.72,1.72,0,0,1,2.35.6l17.15,28.86a5.35,5.35,0,0,0,5.05,2.62l2-.16a5.41,5.41,0,0,0,4.91-4.7l5.06-40.63a1.71,1.71,0,1,1,3.4.43l-5.06,40.62a8.83,8.83,0,0,1-8,7.69l-2,.16A7.11,7.11,0,0,1,156.8,245.77Z" fill="#0070f3"></path><path d="M232.31,82.69,240.52,76s21.25-6.8,39.84,6.47,25.13,70.18,25.13,70.18l-35.63,10.86s-9.16-15-22-21.73S213.5,119.92,232.31,82.69Z" fill="#0070f3"></path><path d="M247.23,91.28s-9.95,16.29,3,33.79,14.7,31.49,14.7,31.49l5,6.9,35.63-10.86-.82-6.78L269.33,96,249.2,91.28Z" opacity="0.08"></path><path d="M249.32,99.83c-3.84-13.64,10.36-25.14,23-18.77,10.76,5.4,25.17,17.43,34.85,44.16,17.24,47.56-93,27.83-93,27.83s-4,3.14-11.36,2.78-5.08-13.12,10.39-12.14,61.51-8.79,61.51-8.79S254.19,117.19,249.32,99.83Z" fill="#f4a28c"></path><path d="M265.32,128.53l35.47-17.81S283.26,67.15,255.5,78.64C232.29,88.24,265.32,128.53,265.32,128.53Z" fill="#0070f3"></path><path d="M236,234s-3.89,2.43-7.15.28-6.42.21-4.29,3.16,12,5,12,5l4.16-5.8Z" fill="#0070f3"></path><path d="M346,200.62s4.49.92,5.37,4.73,4.8,4.27,5.28.67-5.26-11.91-5.26-11.91l-7,1.33Z" fill="#0070f3"></path><path d="M265.32,128.53l35.47-17.81S283.26,67.15,255.5,78.64C232.29,88.24,265.32,128.53,265.32,128.53Z" fill="#fff" opacity="0.46"></path><path d="M269.86,163.46l-37.42,70.26,9.53,4.14s28.82-46.22,49-58.38,14.53-26.88,14.53-26.88Z" fill="#24285b"></path><path d="M285.87,171.07,298,194a23,23,0,0,0,23.26,12l25.06-3.29L344.4,193l-18.9-.68a14.76,14.76,0,0,1-13.8-11.17l-5.48-21.86Z" fill="#24285b"></path><polygon points="267.63 127.37 300.79 110.72 304.67 118.83 271.17 131.58 267.63 127.37" opacity="0.08"></polygon></svg>