<svg id="Layer_1" data-name="Layer 1" xmlns="http://www.w3.org/2000/svg" viewBox="0 0 400 300" width="406" height="306" class="illustration styles_illustrationTablet__1DWOa"><rect x="162.71" y="140.24" width="120.68" height="103.81" fill="#e6e6e6"></rect><rect x="179.62" y="154.79" width="86.85" height="74.72" fill="#a5a5a5" opacity="0.51"></rect><path d="M250.63,243.72l-19.85.34,1.08-26.9a10.89,10.89,0,0,1,10.39-10.44l16.4-.74Z" opacity="0.08"></path><ellipse cx="206.77" cy="257.07" rx="163.51" ry="17.85" fill="#e6e6e6" opacity="0.45"></ellipse><path d="M250.57,240.78l0,10.79c0,4.89,13.6,8.88,30.41,8.92s30.43-3.89,30.45-8.78l0-10.79Z" fill="#ffd200"></path><path d="M250.57,240.78l0,10.79c0,4.89,13.6,8.88,30.41,8.92s30.43-3.89,30.45-8.78l0-10.79Z" fill="#fff" opacity="0.46"></path><ellipse cx="281" cy="240.85" rx="8.85" ry="30.43" transform="translate(39.52 521.3) rotate(-89.87)" fill="#ffd200"></ellipse><path d="M250.6,227.78l0,10.79c0,4.89,13.61,8.88,30.42,8.92s30.43-3.9,30.45-8.79l0-10.78Z" fill="#ffd200"></path><path d="M250.6,227.78l0,10.79c0,4.89,13.61,8.88,30.42,8.92s30.43-3.9,30.45-8.79l0-10.78Z" fill="#fff" opacity="0.46"></path><ellipse cx="281.03" cy="227.85" rx="8.85" ry="30.43" transform="translate(52.55 508.36) rotate(-89.87)" fill="#ffd200"></ellipse><path d="M252.84,214.89l0,10.79c0,4.89,13.6,8.88,30.41,8.92s30.44-3.89,30.45-8.78l0-10.79Z" fill="#ffd200"></path><path d="M252.84,214.89l0,10.79c0,4.89,13.6,8.88,30.41,8.92s30.44-3.89,30.45-8.78l0-10.79Z" fill="#fff" opacity="0.46"></path><ellipse cx="283.27" cy="214.96" rx="8.85" ry="30.43" transform="translate(67.67 497.74) rotate(-89.87)" fill="#ffd200"></ellipse><path d="M250.66,201.88l0,10.79c0,4.89,13.61,8.89,30.41,8.92s30.44-3.89,30.45-8.78l0-10.79Z" fill="#ffd200"></path><path d="M250.66,201.88l0,10.79c0,4.89,13.61,8.89,30.41,8.92s30.44-3.89,30.45-8.78l0-10.79Z" fill="#fff" opacity="0.46"></path><ellipse cx="281.09" cy="201.95" rx="8.85" ry="30.43" transform="matrix(0, -1, 1, 0, 78.5, 482.58)" fill="#ffd200"></ellipse><path d="M86.22,242.44s-8.52-2.32-10.37-10.25c0,0,13.19-2.66,13.57,10.95Z" fill="#0070f3" opacity="0.58"></path><path d="M87.26,241.6s-6-9.41-.71-18.2c0,0,10,6.37,5.57,18.22Z" fill="#0070f3" opacity="0.73"></path><path d="M88.8,241.61s3.14-9.94,12.64-11.82c0,0,1.78,6.45-6.15,11.84Z" fill="#0070f3"></path><polygon points="82.62 241.38 84.34 253.19 95.22 253.24 96.82 241.44 82.62 241.38" fill="#24285b"></polygon><path d="M204.31,135.25s-9.67,10.91-18.6,19.54-10.81,89.27-10.81,89.27H162.71V192.15l-1.42-32.83,3.54-16.66Z" opacity="0.08"></path><path d="M233,188a6.8,6.8,0,0,0,3.33-7.05c-.6-4.35-5.8-6-9.89-6.28l0-6.54-4,0,0,6.48-2.71,0,0-6.49-4,0,0,6.48-8.13,0,0,4.18,3,0c1.36,0,2,.39,2,1.49l.11,18c0,1.5-.73,2-1.54,2l-3.08,0,0,4.26,7.84,0,0,6.62,4.06,0,0-6.63,2.71,0,0,6.63,3.95,0,0-6.63h.86c8.3-.05,11-4.13,11-9.66A7.19,7.19,0,0,0,233,188Zm-13.28-8.91h2.88c2,0,6,.31,6,3.59a4.08,4.08,0,0,1-3.52,4.32l-5.33,0Zm4.6,20.72v0l-4.47,0-.05-8.64,5.18,0c1.21,0,5.77.36,5.79,3.59S228.65,199.82,224.33,199.84Z" fill="#fff"></path><polygon points="169.8 244.06 169.8 253.38 179.62 253.38 184.6 244.06 169.8 244.06" fill="#a5a5a5"></polygon><rect x="196.61" y="132.87" width="51.23" height="7.37" fill="#a5a5a5"></rect><path d="M153.11,71.1s-16.29,10-7.45,18.62S161.87,83,161.87,83l-.46-12.53Z" fill="#24285b"></path><path d="M151.38,82.8S137.79,77,131.32,92.37c-3.95,9.39,18.64,33.1-5.88,31.06-18-1.5-21.89-18.32-21.17-27.17A14.29,14.29,0,0,0,98,83a8.61,8.61,0,0,0-5.77-1.55c-7.15.88,4.09,11.09,4.09,11.09S92.59,141.67,127,144.4,161.57,113.08,151.38,82.8Z" fill="#f4a28c"></path><path d="M150.72,82.69l12.39,2.23s41.7,14.29,11.81,55.31a57.35,57.35,0,0,0-10.09,23.94h0L132,159.32l-.56-6.15a58.86,58.86,0,0,0-7.24-24C119,120,116.44,102.64,150.72,82.69Z" fill="#0070f3"></path><path d="M154.34,60.43s-2,5.44-2.06,9.39a2.91,2.91,0,0,0,2.88,3,6.4,6.4,0,0,0,6.11-3.35l3-4.42a5.19,5.19,0,0,0-.76-6C161,55.92,155.39,57.06,154.34,60.43Z" fill="#f4a28c"></path><path d="M163.39,103.28s-7.54,7.43-1.42,21.28-8.15,21-8.15,21l-8.64,15.71,19.65,2.91s2-13.13,7.24-19.62,17.13-11.68,17.13-11.68l-3.49-13.53Z" opacity="0.08"></path><polygon points="163.72 65.8 161.69 84.66 151.38 82.8 157 69.82 163.72 65.8" fill="#f4a28c"></polygon><path d="M159,66.82s.63-2.14,2.2-1.53.68,3.7-1.59,3.39Z" fill="#f4a28c"></path><path d="M153.26,63.92l-2.14,1.73a.94.94,0,0,0,.18,1.56l2,1Z" fill="#f4a28c"></path><path d="M155.65,72.61a6.83,6.83,0,0,0,3.79-1.06s-1.05,3.31-5.62,5.62Z" fill="#ce8172" opacity="0.31"></path><path d="M156.32,52.07a5.57,5.57,0,0,0-2.2,8.9,15.49,15.49,0,0,0,3.42,2.92c5.31,3.47-7.93,27.67,5.67,29.07s11.85-5.46,8.28-12.43-2.29-16.69-2.58-22C168.7,54.7,161.34,50.33,156.32,52.07Z" fill="#24285b"></path><path d="M164.94,99.63A11,11,0,0,1,181.45,97c9.56,8,21.07,23.9,23.41,34.26,3.4,15.06-52.79,18.76-52.79,18.76s1.68,6.79-6.29,7.81c-5.27.67-2.07-5.33.71-9.49a15.43,15.43,0,0,1,6.45-5.47L181.22,130S155.7,115.13,164.94,99.63Z" fill="#f4a28c"></path><circle cx="99.19" cy="71.31" r="23.38" fill="#ffd200"></circle><circle cx="99.19" cy="71.31" r="23.38" fill="#fff" opacity="0.46"></circle><circle cx="99.41" cy="64.18" r="23.38" fill="#ffd200"></circle><path d="M106.07,61.78a4.24,4.24,0,0,0,2.08-4.4c-.38-2.71-3.62-3.71-6.18-3.91l0-4.09-2.52,0,0,4.05h-1.7l0-4.05-2.52,0,0,4-5.07,0v2.61h1.89c.85,0,1.26.24,1.27.93l.07,11.2c0,.93-.46,1.22-1,1.23H90.53l0,2.66,4.89,0,0,4.14,2.54,0,0-4.14h1.69l0,4.14,2.46,0,0-4.13h.53c5.18,0,6.89-2.58,6.87-6A4.48,4.48,0,0,0,106.07,61.78Zm-8.29-5.55,1.8,0c1.26,0,3.74.2,3.75,2.25a2.53,2.53,0,0,1-2.19,2.69l-3.33,0Zm2.87,12.92H97.86l0-5.39,3.24,0c.75,0,3.59.23,3.61,2.24S103.35,69.14,100.65,69.15Z" fill="#fff"></path><rect x="225.54" y="56.84" width="81.96" height="45.91" fill="#24285b"></rect><rect x="239.24" y="69.23" width="32.58" height="7.35" fill="#fff"></rect><polygon points="109.53 199.84 132.35 247.49 137.34 245.09 125.92 202.93 109.53 199.84" fill="#f4a28c"></polygon><polygon points="145.18 176.19 152.06 250.93 158.82 250.93 161.97 176.19 145.18 176.19" fill="#f4a28c"></polygon><rect x="239.24" y="82.29" width="32.58" height="7.35" fill="#fff" opacity="0.49"></rect><polygon points="279.06 71.8 295.76 71.8 287.41 88.14 279.06 71.8" fill="#0070f3"></polygon><polygon points="132.01 159.32 109.53 199.84 161.87 209.7 164.83 164.17 132.01 159.32" fill="#24285b"></polygon><path d="M131.19,245s-.84,4.13-3.89,5.48-1.37,5.79,3.21,2.94a29.43,29.43,0,0,0,4-3,12.37,12.37,0,0,1,5-2.11,1.45,1.45,0,0,0,1.09-1.24c.56-2.28-4-4.81-4-4.81Z" fill="#0070f3"></path><path d="M152.17,248.27s-2.5,3.4-5.84,3.35-3.67,4.68,1.68,4a29.58,29.58,0,0,0,4.91-1,12.63,12.63,0,0,1,5.43.19,1.46,1.46,0,0,0,1.51-.67c1.46-1.84-.92-6.08-.92-6.08Z" fill="#0070f3"></path></svg>