<svg width="577" height="156" viewBox="0 0 577 156" version="1.1" xmlns="http://www.w3.org/2000/svg" xmlns:xlink="http://www.w3.org/1999/xlink">
<g id="Canvas" fill="none">
<g id="web">
<g id="Group">
<g id="Group_2">
<g id="Vector">
<path d="M 0 90.9432L 0 -1.69726e-07L 31.1449 -1.69726e-07C 41.4672 -1.69726e-07 49.2979 2.13565 54.6371 6.22898C 59.9762 10.3223 62.6458 16.5513 62.6458 24.738C 62.6458 28.8313 61.5779 32.7467 59.2643 35.9501C 56.9507 39.3316 53.7472 41.8232 49.2979 43.7808C 54.2811 45.2046 58.0185 47.6962 60.6881 51.2556C 63.3576 54.815 64.7814 59.4423 64.7814 64.6035C 64.7814 73.1461 62.1119 79.731 56.5948 84.3582C 51.0777 88.9855 43.2469 91.2991 33.1026 91.2991L 0 91.2991L 0 90.9432ZM 15.8394 38.2638L 31.3229 38.2638C 36.3061 38.2638 40.0435 37.1959 42.891 34.8823C 45.7385 32.5687 46.9843 29.5432 46.9843 25.4498C 46.9843 21.0006 45.7385 17.6191 43.069 15.6614C 40.3994 13.7038 36.484 12.6359 31.1449 12.6359L 15.8394 12.6359L 15.8394 38.2638ZM 15.8394 49.8319L 15.8394 78.3072L 33.4585 78.3072C 38.4417 78.3072 42.3571 77.0614 45.0266 74.5698C 47.8742 72.0782 49.2979 68.6968 49.2979 64.2475C 49.2979 54.8151 44.4927 50.0098 34.7043 49.6539L 15.8394 49.6539L 15.8394 49.8319Z" transform="translate(194.824 34.7302)" fill="#2F2F2F"/>
</g>
<g id="Vector_2">
<path d="M 0 8.18666C 0 5.87304 0.711885 3.91536 2.13565 2.31362C 3.55942 0.711884 5.69507 8.48631e-08 8.5426 8.48631e-08C 11.3901 8.48631e-08 13.3478 0.711884 14.9496 2.31362C 16.3733 3.91536 17.2632 5.87304 17.2632 8.18666C 17.2632 10.5003 16.5513 12.458 14.9496 13.8817C 13.5258 15.4835 11.3901 16.1954 8.5426 16.1954C 5.69507 16.1954 3.73739 15.4835 2.13565 13.8817C 0.711885 12.458 0 10.5003 0 8.18666ZM 16.1954 93.4347L 1.06782 93.4347L 1.06782 25.8058L 16.1954 25.8058L 16.1954 93.4347Z" transform="translate(271.351 32.2384)" fill="#2F2F2F"/>
</g>
<g id="Vector_3">
<path d="M 26.1617 0L 26.1617 16.3733L 38.0858 16.3733L 38.0858 27.5855L 26.1617 27.5855L 26.1617 65.3153C 26.1617 67.9849 26.6956 69.7646 27.7635 70.8324C 28.8313 71.9003 30.611 72.6121 33.2806 72.6121C 35.0603 72.6121 36.84 72.4342 38.6197 71.9003L 38.6197 83.6463C 35.2382 84.5362 31.8568 85.0701 28.6533 85.0701C 16.9072 85.0701 11.2122 78.6631 11.2122 65.6713L 11.2122 27.5855L 0 27.5855L 0 16.3733L 11.2122 16.3733L 11.2122 0L 26.1617 0Z" transform="translate(295.377 41.6705)" fill="#2F2F2F"/>
</g>
<g id="Vector_4">
<path d="M 35.4162 15.1275C 33.4585 14.7716 31.3229 14.5936 29.1872 14.5936C 22.2464 14.5936 17.4411 17.2632 15.1275 22.6023L 15.1275 68.8747L -5.43124e-06 68.8747L -5.43124e-06 1.2458L 14.5936 1.2458L 14.7716 8.89854C 18.509 3.02551 23.4922 0 30.0771 0C 32.2127 0 33.9924 0.355942 35.4162 0.889854L 35.4162 15.1275Z" transform="translate(343.785 56.7982)" fill="#2F2F2F"/>
</g>
<g id="Vector_5">
<path d="M 32.3907 70.2985C 22.7803 70.2985 14.9496 67.273 8.89855 61.222C 2.84754 55.171 2.71562e-06 46.9843 2.71562e-06 37.018L 2.71562e-06 35.0603C 2.71562e-06 28.2974 1.24579 22.2464 3.91536 16.9072C 6.58492 11.5681 10.1443 7.47478 14.9496 4.44927C 19.5768 1.42377 24.9159 -6.78905e-07 30.789 -6.78905e-07C 40.0435 -6.78905e-07 47.1623 3.0255 52.1455 8.89854C 57.1287 14.7716 59.6202 23.1362 59.6202 33.8145L 59.6202 39.8655L 15.3055 39.8655C 15.8394 45.3826 17.6191 49.8319 20.8226 53.2133C 24.0261 56.5947 28.2974 58.0185 33.1026 58.0185C 40.0435 58.0185 45.7385 55.171 50.1878 49.6539L 58.3745 57.4846C 55.7049 61.5779 51.9675 64.6034 47.5182 66.9171C 43.069 69.2307 38.0858 70.2985 32.3907 70.2985ZM 30.611 12.458C 26.5177 12.458 23.1362 13.8817 20.4667 16.9072C 17.9751 19.7548 16.1954 23.8481 15.4835 29.1872L 44.4927 29.1872L 44.4927 28.1194C 44.1368 22.9582 42.891 19.2209 40.3994 16.5513C 38.0858 13.7038 34.7043 12.458 30.611 12.458Z" transform="translate(383.295 56.6202)" fill="#2F2F2F"/>
</g>
<g id="Vector_6">
<path d="M 10.3223 97.3501L 10.3223 40.9333L -5.43124e-06 40.9333L -5.43124e-06 29.7211L 10.3223 29.7211L 10.3223 23.4922C 10.3223 16.0174 12.458 10.1443 16.5513 6.05101C 20.6446 1.95768 26.5177 0 33.9925 0C 36.662 0 39.5096 0.355942 42.5351 1.06783L 42.3571 12.9919C 40.7553 12.6359 38.7977 12.458 36.484 12.458C 29.1872 12.458 25.6278 16.1954 25.6278 23.6701L 25.6278 29.7211L 39.3316 29.7211L 39.3316 40.9333L 25.6278 40.9333L 25.6278 97.3501L 10.3223 97.3501Z" transform="translate(447.898 28.3229)" fill="#2F2F2F"/>
</g>
<g id="Vector_7">
<path d="M -5.43124e-06 8.18666C -5.43124e-06 5.87304 0.711873 3.91536 2.13564 2.31362C 3.55941 0.711884 5.69507 8.48631e-08 8.5426 8.48631e-08C 11.3901 8.48631e-08 13.3478 0.711884 14.9496 2.31362C 16.3733 3.91536 17.2632 5.87304 17.2632 8.18666C 17.2632 10.5003 16.5513 12.458 14.9496 13.8817C 13.5258 15.4835 11.3901 16.1954 8.5426 16.1954C 5.69507 16.1954 3.73738 15.4835 2.13564 13.8817C 0.711873 12.458 -5.43124e-06 10.5003 -5.43124e-06 8.18666ZM 16.0174 93.4347L 0.889849 93.4347L 0.889849 25.8058L 16.0174 25.8058L 16.0174 93.4347Z" transform="translate(498.512 32.2384)" fill="#2F2F2F"/>
</g>
<g id="Vector_8">
<path d="M 15.1275 96.1043L -5.43124e-06 96.1043L -5.43124e-06 -2.12158e-08L 15.1275 -2.12158e-08L 15.1275 96.1043Z" transform="translate(530.547 29.5685)" fill="#2F2F2F"/>
</g>
<g id="Vector_9">
<path d="M 15.1275 96.1043L 1.08625e-05 96.1043L 1.08625e-05 -2.12158e-08L 15.1275 -2.12158e-08L 15.1275 96.1043Z" transform="translate(561.514 29.5685)" fill="#2F2F2F"/>
</g>
</g>
</g>
<g id="Vector_10">
<path d="M 54.1237 0L 101.118 0C 116.703 0 124.493 0 132.883 2.65204C 142.042 5.98586 149.256 13.1994 152.59 22.3587C 155.242 30.7469 155.242 38.54 155.242 54.1237L 155.242 101.118C 155.242 116.703 155.242 124.493 152.59 132.883C 149.256 142.042 142.042 149.256 132.883 152.588C 124.493 155.242 116.703 155.242 101.118 155.242L 54.1237 155.242C 38.5387 155.242 30.7469 155.242 22.3587 152.588C 13.1994 149.256 5.98586 142.042 2.65204 132.883C 0 124.493 0 116.703 0 101.118L 0 54.1237C 0 38.54 0 30.7469 2.65204 22.3587C 5.98586 13.1994 13.1994 5.98586 22.3587 2.65204C 30.7469 0 38.5387 0 54.1237 0Z" fill="#449BF7"/>
</g>
<g id="Group 2.14">
<g id="Subtract">
<path fill-rule="evenodd" clip-rule="evenodd" d="M 70.3152 38.1366C 70.3152 56.8089 55.5234 71.9456 37.2769 71.9456C 19.2719 71.9456 4.63081 57.2069 4.24653 38.8759L 0 38.8759C 0.385059 59.6064 16.927 76.2902 37.2769 76.2902C 57.8682 76.2902 74.5607 59.2084 74.5607 38.1366C 74.5607 17.449 58.4709 0.606711 38.3984 0L 38.3984 4.34668C 56.1256 4.9518 70.3152 19.8483 70.3152 38.1366Z" transform="translate(46.7219 52.2699)" fill="white"/>
</g>
<g id="Subtract_2">
<path fill-rule="evenodd" clip-rule="evenodd" d="M 55.6379 30.65C 55.6379 45.1779 44.1292 56.9552 29.9325 56.9552C 16.0927 56.9552 4.8078 45.7632 4.2486 31.7412L 0 31.7412C 0.561523 48.1632 13.7476 61.2998 29.9325 61.2998C 46.474 61.2998 59.8834 47.5775 59.8834 30.65C 59.8834 13.7223 46.474 0 29.9325 0C 29.3407 0 28.7527 0.0175013 28.1692 0.0522387L 31.5642 0.0522387L 31.5642 4.3968C 45.0006 5.25807 55.6379 16.6827 55.6379 30.65Z" transform="translate(54.0666 59.756)" fill="white"/>
</g>
<g id="Rectangle 6">
<path d="M 0 2.17228C 0 0.972562 0.950386 0 2.12275 0C 3.29511 0 4.24549 0.972563 4.24549 2.17228L 4.24549 64.4003L 0 64.4003L 0 2.17228Z" transform="translate(54.088 27.0964)" fill="white"/>
</g>
<g id="Rectangle 6.4">
<path d="M 0 0L 4.34456 0L 4.34456 10.4014L 0 10.4014L 0 0Z" transform="matrix(0 -1 1 0 75.2289 56.6138)" fill="white"/>
</g>
<g id="Rectangle 6.6">
<path d="M 0 0L 4.24549 0L 4.24549 43.7684L 0 43.7684L 0 0Z" transform="translate(61.476 47.3768)" fill="white"/>
</g>
<g id="Rectangle 6.7">
<path d="M 0 0L 4.24549 0L 4.24549 43.7684L 0 43.7684L 0 0Z" transform="translate(46.7148 47.3768)" fill="white"/>
</g>
<g id="Rectangle 6.5">
<path d="M 0 0L 4.34456 0L 4.34456 19.7942L 0 19.7942L 0 0Z" transform="matrix(0 -1 1 0 63.9718 71.6976)" fill="white"/>
</g>
<g id="Rectangle 6.1">
<path d="M 0 0L 4.34456 0L 4.34456 22.4779L 0 22.4779L 0 0Z" transform="matrix(0 -1 1 0 63.1524 64.153)" fill="white"/>
</g>
<g id="Rectangle 6.8">
<path d="M 0 2.12275C 0 0.950387 0.972563 0 2.17228 0C 3.372 0 4.34456 0.950387 4.34456 2.12275L 4.34456 4.77123L 0 4.77123L 0 2.12275Z" transform="matrix(0 -1 1 0 44.3193 64.1006)" fill="white"/>
</g>
<g id="Subtract_3">
<path fill-rule="evenodd" clip-rule="evenodd" d="M 9.71692 0C 4.35039 0 0 4.2512 0 9.49536C 0 14.7398 4.35039 18.991 9.71719 18.991L 42.1351 18.991L 42.1351 14.7455L 9.7148 14.7455C 6.7478 14.7455 4.34244 12.395 4.34244 9.49536C 4.34244 6.59601 6.7478 4.2455 9.71506 4.2455L 42.1351 4.2455L 42.1351 0L 9.71692 0Z" transform="matrix(0 1 -1 0 65.7063 19.4053)" fill="white"/>
</g>
<g id="Subtract_4">
<path fill-rule="evenodd" clip-rule="evenodd" d="M 0 23.7877C 0.381431 36.1746 10.3142 46.0965 22.5114 46.0965C 34.9502 46.0965 45.034 35.7774 45.034 23.0484C 45.034 10.3191 34.9502 0 22.5114 0C 22.4337 0 22.356 0.000530342 22.2782 0.00132585L 22.2782 4.34615C 22.356 4.34509 22.4337 4.34456 22.5114 4.34456C 32.6056 4.34456 40.7885 12.7184 40.7885 23.0484C 40.7885 33.3781 32.6056 41.7519 22.5114 41.7519C 12.659 41.7519 4.62744 33.7748 4.24809 23.7877L 0 23.7877Z" transform="translate(61.4872 67.358)" fill="white"/>
</g>
<g id="Subtract_5">
<path fill-rule="evenodd" clip-rule="evenodd" d="M 9.49536 0L 13.8245 0L 13.8245 4.34456L 9.49354 4.34456C 6.59394 4.34456 4.24342 6.74992 4.24342 9.71719C 4.24342 12.6842 6.59394 15.0895 9.49328 15.0895L 13.1485 15.0895L 13.1485 19.4341L 9.49562 19.4341C 4.2512 19.4341 0 15.0837 0 9.71719C 0 4.35039 4.2512 0 9.49536 0ZM 27.5094 19.4341L 41.1744 19.4341L 41.1744 15.0895L 27.5094 15.0895L 27.5094 19.4341ZM 41.1744 4.34456L 26.0262 4.34456L 26.0262 0L 41.1744 0L 41.1744 4.34456Z" transform="translate(36.3848 52.2631)" fill="white"/>
</g>
</g>
</g>
</g>
</svg>

