<svg width="102px" height="62px" viewBox="0 0 102 62" version="1.1" xmlns="http://www.w3.org/2000/svg" xmlns:xlink="http://www.w3.org/1999/xlink">
    <title>logo-bluewallet</title>
    <defs>
        <filter x="-14.0%" y="-13.8%" width="128.1%" height="127.6%" filterUnits="objectBoundingBox" id="filter-1">
            <feOffset dx="0" dy="2" in="SourceAlpha" result="shadowOffsetOuter1"></feOffset>
            <feGaussianBlur stdDeviation="1" in="shadowOffsetOuter1" result="shadowBlurOuter1"></feGaussianBlur>
            <feColorMatrix values="0 0 0 0 0   0 0 0 0 0   0 0 0 0 0  0 0 0 0.137729458 0" type="matrix" in="shadowBlurOuter1" result="shadowMatrixOuter1"></feColorMatrix>
            <feMerge>
                <feMergeNode in="shadowMatrixOuter1"></feMergeNode>
                <feMergeNode in="SourceGraphic"></feMergeNode>
            </feMerge>
        </filter>
        <linearGradient x1="50%" y1="2.83824061%" x2="50%" y2="100%" id="linearGradient-2">
            <stop stop-color="#174697" offset="0%"></stop>
            <stop stop-color="#0C2550" offset="100%"></stop>
        </linearGradient>
        <linearGradient x1="50%" y1="0%" x2="50%" y2="97.8843027%" id="linearGradient-3">
            <stop stop-color="#3F78DC" offset="0%"></stop>
            <stop stop-color="#2F5FB3" offset="100%"></stop>
        </linearGradient>
        <linearGradient x1="50%" y1="2.72534321%" x2="50%" y2="100%" id="linearGradient-4">
            <stop stop-color="#8BD7F9" offset="0%"></stop>
            <stop stop-color="#68BBE1" offset="100%"></stop>
        </linearGradient>
    </defs>
    <g id="bluewallet" stroke="none" stroke-width="1" fill="none" fill-rule="evenodd">
        <g id="bluewallet-site-copy-2" transform="translate(-156.000000, -30.000000)">
            <g id="logo-bluewallet" transform="translate(158.000000, 30.000000)">
                <g id="Group-Copy" filter="url(#filter-1)">
                    <path d="M16.6652538,-1.58013034e-15 L39.9523933,-2.33537939e-16 C45.7472651,1.35692268e-16 47.8486256,0.603366472 49.9671441,1.73636257 C52.0856627,2.86935868 53.7482884,4.53198441 54.8812845,6.65050293 C56.0142806,8.76902145 56.6176471,10.870382 56.6176471,16.6652538 L56.6176471,39.9523933 C56.6176471,45.7472651 56.0142806,47.8486256 54.8812845,49.9671441 C53.7482884,52.0856627 52.0856627,53.7482884 49.9671441,54.8812845 C47.8486256,56.0142806 45.7472651,56.6176471 39.9523933,56.6176471 L16.6652538,56.6176471 C10.870382,56.6176471 8.76902145,56.0142806 6.65050293,54.8812845 C4.53198441,53.7482884 2.86935868,52.0856627 1.73636257,49.9671441 C0.603366472,47.8486256 2.60802988e-16,45.7472651 -4.48864133e-16,39.9523933 L-4.57970006e-16,16.6652538 C2.66093762e-16,10.870382 0.603366472,8.76902145 1.73636257,6.65050293 C2.86935868,4.53198441 4.53198441,2.86935868 6.65050293,1.73636257 C8.76902145,0.603366472 10.870382,9.18101232e-16 16.6652538,-1.58013034e-15 Z" id="Rectangle-Copy" fill="url(#linearGradient-2)"></path>
                    <path d="M16.6652538,13.2352941 L39.9523933,13.2352941 C45.7472651,13.2352941 47.8486256,13.8386606 49.9671441,14.9716567 C52.0856627,16.1046528 53.7482884,17.7672785 54.8812845,19.885797 C56.0142806,22.0043156 56.6176471,24.1056761 56.6176471,29.9005479 L56.6176471,39.2170991 C56.6176471,45.011971 56.0142806,47.1133315 54.8812845,49.23185 C53.7482884,51.3503685 52.0856627,53.0129943 49.9671441,54.1459904 C47.8486256,55.2789865 45.7472651,55.8823529 39.9523933,55.8823529 L16.6652538,55.8823529 C10.870382,55.8823529 8.76902145,55.2789865 6.65050293,54.1459904 C4.53198441,53.0129943 2.86935868,51.3503685 1.73636257,49.23185 C0.603366472,47.1133315 2.60802988e-16,45.011971 -4.48864133e-16,39.2170991 L-1.36480415e-15,29.9005479 C7.92990512e-16,24.1056761 0.603366472,22.0043156 1.73636257,19.885797 C2.86935868,17.7672785 4.53198441,16.1046528 6.65050293,14.9716567 C8.76902145,13.8386606 10.870382,13.2352941 16.6652538,13.2352941 Z" id="Rectangle-Copy-2" fill="url(#linearGradient-3)"></path>
                    <path d="M13.2492834,27.2058824 L43.3683637,27.2058824 C47.2492145,27.2058824 49.1977058,27.7164232 50.9902984,28.6751122 C52.782891,29.6338012 54.1897282,31.0406384 55.1484172,32.833231 C56.1071062,34.6258236 56.6176471,36.5743149 56.6176471,40.4551657 L56.6176471,44.1036578 C56.6176471,47.9845086 56.1071062,49.933 55.1484172,51.7255925 C54.1897282,53.5181851 52.782891,54.9250223 50.9902984,55.8837113 C49.1977058,56.8424003 47.2492145,57.3529412 43.3683637,57.3529412 L13.2492834,57.3529412 C9.36843258,57.3529412 7.41994122,56.8424003 5.62734863,55.8837113 C3.83475604,54.9250223 2.42791888,53.5181851 1.46922987,51.7255925 C0.510540861,49.933 -2.77257755e-16,47.9845086 3.82228307e-16,44.1036578 L2.75457766e-16,40.4551657 C-1.99809382e-16,36.5743149 0.510540861,34.6258236 1.46922987,32.833231 C2.42791888,31.0406384 3.83475604,29.6338012 5.62734863,28.6751122 C7.41994122,27.7164232 9.36843258,27.2058824 13.2492834,27.2058824 Z" id="Rectangle-Copy-3" fill="url(#linearGradient-4)"></path>
                    <path d="M30.8453034,44.2612592 C30.8453034,44.8309235 30.7830721,45.343135 30.6586077,45.797909 C30.5341432,46.252683 30.3546298,46.6404319 30.1200622,46.9611673 C29.8854945,47.2819026 29.5970764,47.5284343 29.2547991,47.7007698 C28.9125218,47.8731052 28.5235761,47.9592716 28.0879505,47.9592716 C27.8725312,47.9592716 27.6714762,47.9389268 27.4847795,47.8982364 C27.2980828,47.8575461 27.1197662,47.7917246 26.9498243,47.7007698 C26.7798825,47.609815 26.6123367,47.4949264 26.4471819,47.3561006 C26.2820271,47.2172749 26.1132845,47.0497291 25.9409491,46.8534582 L25.9409491,47.549977 C25.9409491,47.6026351 25.9277848,47.646915 25.9014558,47.6828182 C25.8751268,47.7187215 25.8320435,47.7486404 25.7722049,47.7725758 C25.7123662,47.7965113 25.6321835,47.8132659 25.5316545,47.8228401 C25.4311255,47.8324143 25.3090564,47.8372013 25.1654436,47.8372013 C25.0170437,47.8372013 24.8937778,47.8324143 24.7956424,47.8228401 C24.6975069,47.8132659 24.618521,47.7965113 24.5586823,47.7725758 C24.4988437,47.7486404 24.4569572,47.7187215 24.4330217,47.6828182 C24.4090862,47.646915 24.3971187,47.6026351 24.3971187,47.549977 L24.3971187,38.1074793 C24.3971187,38.0596084 24.4114798,38.0165252 24.4402023,37.9782284 C24.4689249,37.9399316 24.5179919,37.9076192 24.5874048,37.8812902 C24.6568176,37.8549612 24.7489678,37.8346163 24.8638581,37.8202551 C24.9787484,37.8058938 25.1247526,37.7987132 25.3018751,37.7987132 C25.4789976,37.7987132 25.6250018,37.8058938 25.7398921,37.8202551 C25.8547824,37.8346163 25.9469326,37.8549612 26.0163455,37.8812902 C26.0857584,37.9076192 26.1348253,37.9399316 26.1635479,37.9782284 C26.1922705,38.0165252 26.2066316,38.0596084 26.2066316,38.1074793 L26.2066316,41.6475184 C26.3693928,41.4847572 26.5321516,41.3459335 26.6949128,41.2310432 C26.857674,41.1161529 27.0204328,41.0216092 27.1831941,40.9474092 C27.3459553,40.8732093 27.5135011,40.8193553 27.6858365,40.7858456 C27.8581719,40.7523359 28.0400788,40.7355813 28.2315626,40.7355813 C28.705485,40.7355813 29.107595,40.8301251 29.4379045,41.0192153 C29.7682141,41.2083056 30.0374841,41.4632145 30.2457228,41.7839499 C30.4539614,42.1046853 30.6059494,42.4792698 30.7016913,42.9077148 C30.7974332,43.3361598 30.8453034,43.7873368 30.8453034,44.2612592 Z M28.9711651,44.3905101 C28.9711651,44.1176457 28.9508203,43.8543594 28.91013,43.6006434 C28.8694396,43.3469273 28.7988311,43.1219373 28.6983021,42.9256664 C28.5977731,42.7293955 28.4673267,42.5726205 28.306959,42.4553366 C28.1465913,42.3380528 27.9443396,42.2794118 27.7001977,42.2794118 C27.5805204,42.2794118 27.4632383,42.2961663 27.348348,42.329676 C27.2334577,42.3631857 27.1149789,42.42063 26.992908,42.5020106 C26.8708371,42.5833912 26.7451777,42.6887057 26.6159261,42.8179573 C26.4866746,42.9472088 26.3502444,43.1075741 26.2066316,43.2990579 L26.2066316,45.4245175 C26.4603476,45.7500399 26.703289,45.9977684 26.9354631,46.1677102 C27.1676372,46.3376521 27.4105787,46.4226218 27.6642947,46.4226218 C27.8988624,46.4226218 28.0975238,46.362784 28.2602851,46.2431066 C28.4230463,46.1234292 28.5582797,45.967851 28.6659893,45.7763672 C28.773699,45.5848834 28.8514881,45.3670738 28.899359,45.122932 C28.94723,44.8787901 28.9711651,44.634652 28.9711651,44.3905101 Z M34.0347841,47.549977 C34.0347841,47.597848 34.020423,47.6397344 33.9917004,47.6756376 C33.9629779,47.7115409 33.9139109,47.7414597 33.844498,47.7653952 C33.7750851,47.7893307 33.6829349,47.807282 33.5680446,47.8192498 C33.4531544,47.8312175 33.3071502,47.8372013 33.1300276,47.8372013 C32.9529051,47.8372013 32.8069009,47.8312175 32.6920106,47.8192498 C32.5771204,47.807282 32.4849702,47.7893307 32.4155573,47.7653952 C32.3461444,47.7414597 32.2970774,47.7115409 32.2683548,47.6756376 C32.2396323,47.6397344 32.2252712,47.597848 32.2252712,47.549977 L32.2252712,38.1074793 C32.2252712,38.0596084 32.2396323,38.0165252 32.2683548,37.9782284 C32.2970774,37.9399316 32.3461444,37.9076192 32.4155573,37.8812902 C32.4849702,37.8549612 32.5771204,37.8346163 32.6920106,37.8202551 C32.8069009,37.8058938 32.9529051,37.7987132 33.1300276,37.7987132 C33.3071502,37.7987132 33.4531544,37.8058938 33.5680446,37.8202551 C33.6829349,37.8346163 33.7750851,37.8549612 33.844498,37.8812902 C33.9139109,37.9076192 33.9629779,37.9399316 33.9917004,37.9782284 C34.020423,38.0165252 34.0347841,38.0596084 34.0347841,38.1074793 L34.0347841,47.549977 Z M41.8485754,47.549977 C41.8485754,47.597848 41.8366078,47.6397344 41.8126723,47.6756376 C41.7887369,47.7115409 41.7468504,47.7414597 41.6870117,47.7653952 C41.627173,47.7893307 41.5481871,47.807282 41.4500517,47.8192498 C41.3519163,47.8312175 41.2286504,47.8372013 41.0802505,47.8372013 C40.9222763,47.8372013 40.7942235,47.8312175 40.696088,47.8192498 C40.5979526,47.807282 40.5201634,47.7893307 40.4627183,47.7653952 C40.4052732,47.7414597 40.3645835,47.7115409 40.340648,47.6756376 C40.3167125,47.6397344 40.3047449,47.597848 40.3047449,47.549977 L40.3047449,46.8103745 C39.9504999,47.1933421 39.5902764,47.4805635 39.2240636,47.6720473 C38.8578509,47.8635311 38.4784793,47.9592716 38.0859375,47.9592716 C37.6455248,47.9592716 37.2757272,47.8874663 36.9765338,47.7438534 C36.6773403,47.6002406 36.4355957,47.4039726 36.2512925,47.1550437 C36.0669894,46.9061147 35.9353462,46.6176966 35.8563591,46.2897806 C35.7773721,45.9618646 35.7378791,45.5537708 35.7378791,45.0654871 L35.7378791,41.1448759 C35.7378791,41.097005 35.7510434,41.0551185 35.7773725,41.0192153 C35.8037015,40.9833121 35.8515717,40.9533932 35.9209846,40.9294577 C35.9903975,40.9055222 36.0837444,40.8875709 36.2010283,40.8756032 C36.3183121,40.8636354 36.4631195,40.8576517 36.635455,40.8576517 C36.8125775,40.8576517 36.9585817,40.8636354 37.073472,40.8756032 C37.1883622,40.8875709 37.2805124,40.9055222 37.3499253,40.9294577 C37.4193382,40.9533932 37.4684052,40.9833121 37.4971278,41.0192153 C37.5258503,41.0551185 37.5402114,41.097005 37.5402114,41.1448759 L37.5402114,44.7639017 C37.5402114,45.0989983 37.561753,45.355104 37.6048369,45.5322266 C37.6479207,45.7093491 37.7137423,45.8613371 37.8023035,45.9881951 C37.8908648,46.1150531 38.0033598,46.2131871 38.139792,46.2826 C38.2762243,46.3520128 38.4353928,46.3867188 38.6173024,46.3867188 C38.847083,46.3867188 39.0780568,46.3029458 39.3102309,46.1353975 C39.542405,45.9678492 39.7901335,45.723711 40.0534237,45.4029756 L40.0534237,41.1448759 C40.0534237,41.097005 40.066588,41.0551185 40.092917,41.0192153 C40.1192461,40.9833121 40.1671163,40.9533932 40.2365292,40.9294577 C40.3059421,40.9055222 40.3980923,40.8875709 40.5129825,40.8756032 C40.6278728,40.8636354 40.773877,40.8576517 40.9509995,40.8576517 C41.1281221,40.8576517 41.2741263,40.8636354 41.3890165,40.8756032 C41.5039068,40.8875709 41.5948603,40.9055222 41.6618796,40.9294577 C41.7288989,40.9533932 41.7767692,40.9833121 41.8054917,41.0192153 C41.8342143,41.0551185 41.8485754,41.097005 41.8485754,41.1448759 L41.8485754,47.549977 Z M49.5187545,44.1607307 C49.5187545,44.3809371 49.4696875,44.5436959 49.3715521,44.6490119 C49.2734166,44.754328 49.1381832,44.8069853 48.9658478,44.8069853 L45.0667784,44.8069853 C45.0667784,45.0798497 45.0990908,45.3275782 45.1637166,45.5501781 C45.2283424,45.772778 45.3312634,45.9618654 45.4724827,46.117446 C45.613702,46.2730266 45.7956089,46.3915054 46.0182088,46.472886 C46.2408087,46.5542666 46.5076853,46.5949563 46.8188464,46.5949563 C47.1347947,46.5949563 47.4124421,46.572218 47.6517968,46.5267406 C47.8911516,46.4812632 48.0981903,46.4309994 48.2729193,46.3759478 C48.4476483,46.3208962 48.5924557,46.2706325 48.707346,46.2251551 C48.8222363,46.1796777 48.9155832,46.1569393 48.9873896,46.1569393 C49.0304735,46.1569393 49.0663762,46.1653166 49.0950987,46.1820715 C49.1238213,46.1988263 49.1477564,46.2287452 49.1669048,46.271829 C49.1860532,46.3149129 49.1992175,46.3759474 49.2063981,46.4549345 C49.2135788,46.5339216 49.2171691,46.6332523 49.2171691,46.7529297 C49.2171691,46.8582458 49.2147755,46.9480025 49.2099884,47.0222024 C49.2052014,47.0964024 49.1980208,47.1598305 49.1884466,47.2124885 C49.1788724,47.2651466 49.1645114,47.3094265 49.145363,47.3453297 C49.1262146,47.3812329 49.1010827,47.4159389 49.0699666,47.4494485 C49.0388505,47.4829582 48.9538808,47.5284349 48.8150551,47.5858801 C48.6762293,47.6433252 48.4991095,47.6995727 48.2836902,47.7546243 C48.0682709,47.8096759 47.8217392,47.8575461 47.5440877,47.8982364 C47.2664362,47.9389268 46.9696408,47.9592716 46.6536925,47.9592716 C46.0840282,47.9592716 45.584981,47.8874663 45.156536,47.7438534 C44.728091,47.6002406 44.370261,47.382431 44.0830353,47.0904182 C43.7958096,46.7984054 43.5815903,46.4298046 43.440371,45.9846048 C43.2991517,45.5394049 43.2285431,45.0176194 43.2285431,44.4192325 C43.2285431,43.8495682 43.302742,43.33616 43.4511419,42.8789924 C43.5995419,42.4218248 43.8149579,42.034076 44.0973965,41.7157341 C44.3798351,41.3973923 44.7233041,41.1544509 45.1278136,40.9869026 C45.5323231,40.8193542 45.9882871,40.7355813 46.4957191,40.7355813 C47.0318738,40.7355813 47.4902313,40.8145672 47.8708053,40.9725414 C48.2513794,41.1305155 48.5637326,41.3495218 48.8078745,41.6295669 C49.0520163,41.9096119 49.2315297,42.2411133 49.34642,42.6240809 C49.4613103,43.0070485 49.5187545,43.4235195 49.5187545,43.8735064 L49.5187545,44.1607307 Z M47.7666865,43.643727 C47.7810478,43.136295 47.6793236,42.7377753 47.4615107,42.448156 C47.2436979,42.1585368 46.9074095,42.0137293 46.4526355,42.0137293 C46.2228549,42.0137293 46.0229967,42.0568125 45.8530549,42.1429802 C45.683113,42.2291479 45.5418958,42.3452333 45.4293991,42.4912397 C45.3169023,42.6372461 45.2307359,42.8095789 45.1708972,43.0082433 C45.1110585,43.2069078 45.0763526,43.4187336 45.0667784,43.643727 L47.7666865,43.643727 Z" id="blue" fill="#FFFFFF"></path>
                </g>
                <path d="M73.3043752,41.1305147 C73.3043752,41.1831728 73.2971947,41.2477976 73.2828334,41.3243911 C73.2684721,41.4009846 73.2421435,41.5110861 73.2038467,41.654699 L71.4948623,47.4494485 C71.4709268,47.5308291 71.4398112,47.5966507 71.4015144,47.6469152 C71.3632177,47.6971797 71.3045766,47.7366727 71.2255896,47.7653952 C71.1466025,47.7941178 71.0341075,47.8132659 70.8881011,47.8228401 C70.7420947,47.8324143 70.5518105,47.8372013 70.3172428,47.8372013 C70.0826752,47.8372013 69.8911943,47.8312175 69.7427943,47.8192498 C69.5943944,47.807282 69.478309,47.7869372 69.3945349,47.7582146 C69.3107607,47.729492 69.2497262,47.6899991 69.2114294,47.6397346 C69.1731327,47.5894701 69.1444105,47.526042 69.1252621,47.4494485 L68.0481711,43.5575597 L68.0338099,43.4929343 L68.0194487,43.5575597 L67.028525,47.4494485 C67.0093766,47.5308291 66.9818512,47.5966507 66.945948,47.6469152 C66.9100448,47.6971797 66.8490103,47.7366727 66.7628426,47.7653952 C66.6766748,47.7941178 66.5593928,47.8132659 66.4109928,47.8228401 C66.2625929,47.8324143 66.071112,47.8372013 65.8365443,47.8372013 C65.5971896,47.8372013 65.4045119,47.8312175 65.2585055,47.8192498 C65.1124991,47.807282 64.9976105,47.7869372 64.9138364,47.7582146 C64.8300622,47.729492 64.7690276,47.6899991 64.7307309,47.6397346 C64.6924341,47.5894701 64.663712,47.526042 64.6445636,47.4494485 L62.9499404,41.654699 C62.9068566,41.5158732 62.8793312,41.4069685 62.8673635,41.3279814 C62.8553957,41.2489943 62.849412,41.1831728 62.849412,41.1305147 C62.849412,41.0826438 62.8625763,41.0407573 62.8889053,41.0048541 C62.9152343,40.9689509 62.9631045,40.9402287 63.0325174,40.9186868 C63.1019303,40.8971449 63.1952773,40.8815871 63.3125611,40.8720129 C63.4298449,40.8624387 63.5770459,40.8576517 63.7541684,40.8576517 C63.9456522,40.8576517 64.1012304,40.8624387 64.2209078,40.8720129 C64.3405852,40.8815871 64.4339321,40.8983416 64.5009515,40.9222771 C64.5679708,40.9462126 64.6146443,40.978525 64.6409733,41.0192153 C64.6673023,41.0599056 64.6876472,41.1089726 64.7020085,41.1664177 L65.9729758,45.8697151 L65.987337,45.9558824 L66.0016983,45.8697151 L67.193679,41.1664177 C67.2080402,41.1089726 67.2307786,41.0599056 67.2618947,41.0192153 C67.2930108,40.978525 67.3396843,40.9462126 67.4019165,40.9222771 C67.4641488,40.8983416 67.551512,40.8815871 67.6640087,40.8720129 C67.7765054,40.8624387 67.9213129,40.8576517 68.0984354,40.8576517 C68.2755579,40.8576517 68.4191686,40.8636354 68.5292718,40.8756032 C68.639375,40.8875709 68.7267381,40.9043255 68.7913639,40.9258674 C68.8559897,40.9474093 68.9014664,40.9761315 68.9277955,41.0120347 C68.9541245,41.0479379 68.9744693,41.0898244 68.9888306,41.1376953 L70.2669786,45.8768957 L70.2885204,45.9558824 L70.3028816,45.8697151 L71.5235847,41.1664177 C71.5331589,41.1089726 71.552307,41.0599056 71.5810296,41.0192153 C71.6097522,40.978525 71.6576224,40.9462126 71.7246417,40.9222771 C71.7916611,40.8983416 71.8826145,40.8815871 71.9975048,40.8720129 C72.1123951,40.8624387 72.2583993,40.8576517 72.4355218,40.8576517 C72.6126443,40.8576517 72.7574518,40.8624387 72.8699485,40.8720129 C72.9824452,40.8815871 73.0710051,40.8971449 73.1356309,40.9186868 C73.2002567,40.9402287 73.2445367,40.9689509 73.2684722,41.0048541 C73.2924076,41.0407573 73.3043752,41.0826438 73.3043752,41.1305147 Z M79.6964064,47.5715188 C79.6964064,47.6385382 79.6724713,47.6911954 79.6246003,47.7294922 C79.5767294,47.7677889 79.5013337,47.7953143 79.3984112,47.8120692 C79.2954887,47.828824 79.1435007,47.8372013 78.9424427,47.8372013 C78.7270234,47.8372013 78.5702484,47.828824 78.4721129,47.8120692 C78.3739775,47.7953143 78.3045657,47.7677889 78.2638754,47.7294922 C78.223185,47.6911954 78.2028402,47.6385382 78.2028402,47.5715188 L78.2028402,47.0616958 C77.93955,47.3441344 77.6391643,47.5643374 77.3016741,47.7223116 C76.9641839,47.8802857 76.5895993,47.9592716 76.1779091,47.9592716 C75.8380254,47.9592716 75.5256721,47.9149916 75.24084,47.8264304 C74.9560078,47.7378691 74.7094761,47.606226 74.5012375,47.431497 C74.2929989,47.256768 74.1314368,47.0401552 74.0165465,46.7816521 C73.9016563,46.523149 73.844212,46.2215665 73.844212,45.8768957 C73.844212,45.5035023 73.9172141,45.1791814 74.0632205,44.9039235 C74.2092269,44.6286655 74.4270364,44.4012819 74.7166557,44.2217659 C75.0062749,44.0422498 75.3664984,43.9094099 75.797337,43.8232422 C76.2281755,43.7370745 76.7284195,43.6939913 77.2980838,43.6939913 L77.9227965,43.6939913 L77.9227965,43.3062385 C77.9227965,43.1051805 77.9024517,42.9292574 77.8617614,42.7784639 C77.8210711,42.6276704 77.7540528,42.5020111 77.6607044,42.4014821 C77.567356,42.3009531 77.4428934,42.2267542 77.2873129,42.1788833 C77.1317323,42.1310123 76.9390546,42.1070772 76.709274,42.1070772 C76.407687,42.1070772 76.138417,42.1405864 75.9014558,42.2076057 C75.6644946,42.274625 75.4550623,42.3488239 75.2731527,42.4302045 C75.0912431,42.5115851 74.9392551,42.585784 74.8171842,42.6528033 C74.6951133,42.7198226 74.5957825,42.7533318 74.519189,42.7533318 C74.466531,42.7533318 74.4198575,42.7365772 74.3791672,42.7030676 C74.3384769,42.6695579 74.3049677,42.6216877 74.2786387,42.5594554 C74.2523097,42.4972232 74.2319648,42.4206308 74.2176035,42.329676 C74.2032422,42.2387212 74.1960617,42.1381937 74.1960617,42.0280905 C74.1960617,41.8796906 74.2080293,41.7624085 74.2319647,41.6762408 C74.2559002,41.5900731 74.3013769,41.512284 74.3683963,41.4428711 C74.4354156,41.3734582 74.5526977,41.2968658 74.720246,41.2130917 C74.8877943,41.1293175 75.0840623,41.0515284 75.3090557,40.979722 C75.5340492,40.9079155 75.7793841,40.8492745 76.0450679,40.8037971 C76.3107517,40.7583197 76.5848088,40.7355813 76.8672474,40.7355813 C77.3698923,40.7355813 77.7995277,40.7846483 78.1561663,40.8827838 C78.5128048,40.9809192 78.80601,41.1317105 79.0357906,41.335162 C79.2655711,41.5386135 79.4331169,41.8007031 79.538433,42.1214384 C79.6437491,42.4421738 79.6964064,42.8227421 79.6964064,43.2631549 L79.6964064,47.5715188 Z M77.9227965,44.8285271 L77.2334583,44.8285271 C76.9414455,44.8285271 76.6925203,44.8500687 76.4866752,44.8931526 C76.2808301,44.9362364 76.1132843,45.0008612 75.9840328,45.087029 C75.8547812,45.1731967 75.7602375,45.2773144 75.7003988,45.3993853 C75.6405601,45.5214563 75.6106412,45.6614767 75.6106412,45.8194508 C75.6106412,46.0875281 75.6956109,46.2981572 75.8655527,46.4513442 C76.0354946,46.6045313 76.2712555,46.6811236 76.5728425,46.6811236 C76.8265585,46.6811236 77.0599259,46.6164988 77.2729516,46.4872472 C77.4859774,46.3579957 77.7025902,46.1689083 77.9227965,45.9199793 L77.9227965,44.8285271 Z M83.2449173,47.549977 C83.2449173,47.597848 83.2305563,47.6397344 83.2018337,47.6756376 C83.1731111,47.7115409 83.1240441,47.7414597 83.0546313,47.7653952 C82.9852184,47.7893307 82.8930682,47.807282 82.7781779,47.8192498 C82.6632876,47.8312175 82.5172834,47.8372013 82.3401609,47.8372013 C82.1630384,47.8372013 82.0170342,47.8312175 81.9021439,47.8192498 C81.7872536,47.807282 81.6951034,47.7893307 81.6256905,47.7653952 C81.5562777,47.7414597 81.5072107,47.7115409 81.4784881,47.6756376 C81.4497655,47.6397344 81.4354045,47.597848 81.4354045,47.549977 L81.4354045,38.1074793 C81.4354045,38.0596084 81.4497655,38.0165252 81.4784881,37.9782284 C81.5072107,37.9399316 81.5562777,37.9076192 81.6256905,37.8812902 C81.6951034,37.8549612 81.7872536,37.8346163 81.9021439,37.8202551 C82.0170342,37.8058938 82.1630384,37.7987132 82.3401609,37.7987132 C82.5172834,37.7987132 82.6632876,37.8058938 82.7781779,37.8202551 C82.8930682,37.8346163 82.9852184,37.8549612 83.0546313,37.8812902 C83.1240441,37.9076192 83.1731111,37.9399316 83.2018337,37.9782284 C83.2305563,38.0165252 83.2449173,38.0596084 83.2449173,38.1074793 L83.2449173,47.549977 Z M86.7934283,47.549977 C86.7934283,47.597848 86.7790672,47.6397344 86.7503447,47.6756376 C86.7216221,47.7115409 86.6725551,47.7414597 86.6031422,47.7653952 C86.5337294,47.7893307 86.4415792,47.807282 86.3266889,47.8192498 C86.2117986,47.8312175 86.0657944,47.8372013 85.8886719,47.8372013 C85.7115494,47.8372013 85.5655452,47.8312175 85.4506549,47.8192498 C85.3357646,47.807282 85.2436144,47.7893307 85.1742015,47.7653952 C85.1047886,47.7414597 85.0557217,47.7115409 85.0269991,47.6756376 C84.9982765,47.6397344 84.9839154,47.597848 84.9839154,47.549977 L84.9839154,38.1074793 C84.9839154,38.0596084 84.9982765,38.0165252 85.0269991,37.9782284 C85.0557217,37.9399316 85.1047886,37.9076192 85.1742015,37.8812902 C85.2436144,37.8549612 85.3357646,37.8346163 85.4506549,37.8202551 C85.5655452,37.8058938 85.7115494,37.7987132 85.8886719,37.7987132 C86.0657944,37.7987132 86.2117986,37.8058938 86.3266889,37.8202551 C86.4415792,37.8346163 86.5337294,37.8549612 86.6031422,37.8812902 C86.6725551,37.9076192 86.7216221,37.9399316 86.7503447,37.9782284 C86.7790672,38.0165252 86.7934283,38.0596084 86.7934283,38.1074793 L86.7934283,47.549977 Z M94.4492463,44.1607307 C94.4492463,44.3809371 94.4001793,44.5436959 94.3020438,44.6490119 C94.2039084,44.754328 94.068675,44.8069853 93.8963396,44.8069853 L89.9972702,44.8069853 C89.9972702,45.0798497 90.0295826,45.3275782 90.0942083,45.5501781 C90.1588341,45.772778 90.2617551,45.9618654 90.4029744,46.117446 C90.5441937,46.2730266 90.7261006,46.3915054 90.9487005,46.472886 C91.1713005,46.5542666 91.438177,46.5949563 91.7493382,46.5949563 C92.0652864,46.5949563 92.3429338,46.572218 92.5822885,46.5267406 C92.8216433,46.4812632 93.028682,46.4309994 93.203411,46.3759478 C93.37814,46.3208962 93.5229474,46.2706325 93.6378377,46.2251551 C93.752728,46.1796777 93.8460749,46.1569393 93.9178814,46.1569393 C93.9609652,46.1569393 93.9968679,46.1653166 94.0255905,46.1820715 C94.054313,46.1988263 94.0782482,46.2287452 94.0973965,46.271829 C94.1165449,46.3149129 94.1297092,46.3759474 94.1368899,46.4549345 C94.1440705,46.5339216 94.1476608,46.6332523 94.1476608,46.7529297 C94.1476608,46.8582458 94.1452673,46.9480025 94.1404802,47.0222024 C94.1356931,47.0964024 94.1285125,47.1598305 94.1189384,47.2124885 C94.1093642,47.2651466 94.0950031,47.3094265 94.0758547,47.3453297 C94.0567063,47.3812329 94.0315745,47.4159389 94.0004583,47.4494485 C93.9693422,47.4829582 93.8843726,47.5284349 93.7455468,47.5858801 C93.6067211,47.6433252 93.4296012,47.6995727 93.2141819,47.7546243 C92.9987626,47.8096759 92.752231,47.8575461 92.4745794,47.8982364 C92.1969279,47.9389268 91.9001325,47.9592716 91.5841842,47.9592716 C91.0145199,47.9592716 90.5154727,47.8874663 90.0870277,47.7438534 C89.6585827,47.6002406 89.3007528,47.382431 89.0135271,47.0904182 C88.7263014,46.7984054 88.5120821,46.4298046 88.3708628,45.9846048 C88.2296435,45.5394049 88.1590349,45.0176194 88.1590349,44.4192325 C88.1590349,43.8495682 88.2332337,43.33616 88.3816337,42.8789924 C88.5300336,42.4218248 88.7454497,42.034076 89.0278883,41.7157341 C89.3103269,41.3973923 89.6537958,41.1544509 90.0583053,40.9869026 C90.4628148,40.8193542 90.9187788,40.7355813 91.4262109,40.7355813 C91.9623655,40.7355813 92.420723,40.8145672 92.801297,40.9725414 C93.1818711,41.1305155 93.4942244,41.3495218 93.7383662,41.6295669 C93.9825081,41.9096119 94.1620214,42.2411133 94.2769117,42.6240809 C94.391802,43.0070485 94.4492463,43.4235195 94.4492463,43.8735064 L94.4492463,44.1607307 Z M92.6971782,43.643727 C92.7115395,43.136295 92.6098153,42.7377753 92.3920025,42.448156 C92.1741896,42.1585368 91.8379013,42.0137293 91.3831272,42.0137293 C91.1533467,42.0137293 90.9534885,42.0568125 90.7835466,42.1429802 C90.6136047,42.2291479 90.4723875,42.3452333 90.3598908,42.4912397 C90.2473941,42.6372461 90.1612276,42.8095789 90.101389,43.0082433 C90.0415503,43.2069078 90.0068443,43.4187336 89.9972702,43.643727 L92.6971782,43.643727 Z M99.5631295,46.9180836 C99.5631295,47.1287158 99.5499652,47.2902779 99.5236361,47.4027746 C99.4973071,47.5152713 99.4626012,47.5942572 99.4195173,47.6397346 C99.3764335,47.685212 99.3130054,47.7259017 99.2292313,47.7618049 C99.1454571,47.7977081 99.0473231,47.8288238 98.9348264,47.8551528 C98.8223297,47.8814818 98.7002606,47.9018267 98.5686155,47.916188 C98.4369703,47.9305492 98.3041304,47.9377298 98.1700918,47.9377298 C97.8110597,47.9377298 97.4999032,47.8922531 97.2366129,47.8012983 C96.9733227,47.7103434 96.7555131,47.570323 96.5831777,47.3812328 C96.4108423,47.1921425 96.2839862,46.9539881 96.2026056,46.6667624 C96.121225,46.3795367 96.0805353,46.0396581 96.0805353,45.6471163 L96.0805353,42.365579 L95.3122104,42.365579 C95.2212555,42.365579 95.1518437,42.3093315 95.1039728,42.1968348 C95.0561018,42.0843381 95.0321667,41.8964474 95.0321667,41.6331572 C95.0321667,41.4943314 95.0381505,41.3770493 95.0501182,41.2813074 C95.0620859,41.1855655 95.0800373,41.1101699 95.1039728,41.0551183 C95.1279082,41.0000667 95.1578271,40.9605738 95.1937303,40.9366383 C95.2296336,40.9127029 95.27152,40.9007353 95.319391,40.9007353 L96.0805353,40.9007353 L96.0805353,39.4717946 C96.0805353,39.4239236 96.0936996,39.3808404 96.1200286,39.3425437 C96.1463576,39.3042469 96.1942279,39.2719345 96.2636407,39.2456055 C96.3330536,39.2192764 96.4264006,39.2001284 96.5436844,39.1881606 C96.6609682,39.1761929 96.8057757,39.1702091 96.9781111,39.1702091 C97.1552336,39.1702091 97.3024346,39.1761929 97.4197184,39.1881606 C97.5370022,39.2001284 97.6291524,39.2192764 97.6961717,39.2456055 C97.7631911,39.2719345 97.8110613,39.3042469 97.8397839,39.3425437 C97.8685065,39.3808404 97.8828675,39.4239236 97.8828675,39.4717946 L97.8828675,40.9007353 L99.2759052,40.9007353 C99.3237762,40.9007353 99.3656626,40.9127029 99.4015658,40.9366383 C99.437469,40.9605738 99.4673879,41.0000667 99.4913234,41.0551183 C99.5152589,41.1101699 99.5332102,41.1855655 99.545178,41.2813074 C99.5571457,41.3770493 99.5631295,41.4943314 99.5631295,41.6331572 C99.5631295,41.8964474 99.5391944,42.0843381 99.4913234,42.1968348 C99.4434525,42.3093315 99.3740406,42.365579 99.2830858,42.365579 L97.8828675,42.365579 L97.8828675,45.3742532 C97.8828675,45.7237112 97.9379183,45.9858007 98.0480215,46.1605296 C98.1581247,46.3352586 98.3543926,46.4226218 98.6368312,46.4226218 C98.7325731,46.4226218 98.8187395,46.4142445 98.8953331,46.3974897 C98.9719266,46.3807348 99.0401417,46.3615867 99.0999803,46.3400448 C99.159819,46.3185029 99.2100828,46.2993548 99.2507731,46.2826 C99.2914634,46.2658451 99.3285628,46.2574678 99.3620725,46.2574678 C99.3907951,46.2574678 99.4183204,46.2658451 99.4446495,46.2826 C99.4709785,46.2993548 99.4913233,46.3328639 99.5056846,46.3831284 C99.5200459,46.4333929 99.5332102,46.501608 99.545178,46.5877757 C99.5571457,46.6739434 99.5631295,46.784045 99.5631295,46.9180836 Z" id="wallet" fill="#0C2550"></path>
            </g>
        </g>
    </g>
</svg>