<svg id="Layer_1" data-name="Layer 1" xmlns="http://www.w3.org/2000/svg" viewBox="0 0 400 300" width="406" height="306" class="illustration styles_illustrationTablet__1DWOa"><polygon points="198.79 251.33 159.59 251.33 159.59 248.33 195.79 248.33 195.79 195.01 198.79 195.01 198.79 251.33" fill="#e6e6e6"></polygon><path d="M276.48,129.37c-.93,0-1.84.06-2.74.15,0-.43,0-.86,0-1.29a39,39,0,0,0-39-39c-.55,0-1.1,0-1.65,0A46.65,46.65,0,1,0,141,101a39,39,0,0,0,1.47,77.93h134a24.77,24.77,0,0,0,0-49.54Z" fill="#68e1fd"></path><rect x="155.27" y="153.28" width="92.99" height="58.61" fill="#ffd200"></rect><rect x="155.27" y="153.28" width="92.99" height="58.61" opacity="0.09"></rect><rect x="147.25" y="128.68" width="109.38" height="28.75" fill="#ffd200"></rect><rect x="159.59" y="139.24" width="65.26" height="6.69" fill="#24285b"></rect><circle cx="238.79" cy="143.58" r="5.46" fill="#fff"></circle><rect x="147.25" y="163.34" width="109.38" height="28.75" fill="#ffd200"></rect><rect x="159.59" y="173.89" width="65.26" height="6.69" fill="#24285b"></rect><circle cx="238.79" cy="178.24" r="5.46" fill="#fff"></circle><rect x="147.25" y="198" width="109.38" height="28.75" fill="#ffd200"></rect><rect x="159.59" y="208.55" width="65.26" height="6.69" fill="#24285b"></rect><circle cx="238.79" cy="212.9" r="5.46" fill="#fff"></circle><rect x="197.29" y="248.33" width="36.04" height="3" fill="#e6e6e6"></rect><circle cx="161.18" cy="249.95" r="5.9" fill="#c1c1c1"></circle><circle cx="233.33" cy="249.95" r="5.9" fill="#c1c1c1"></circle></svg>