<svg id="Layer_1" data-name="Layer 1" xmlns="http://www.w3.org/2000/svg" viewBox="0 0 400 300" width="406" height="306" class="illustration styles_illustrationTablet__1DWOa"><ellipse cx="200.81" cy="253.87" rx="166.62" ry="19.34" fill="#e6e6e6" opacity="0.45"></ellipse><rect x="248.19" y="216" width="57.93" height="18.37" fill="#e6e6e6"></rect><rect x="248.19" y="234.69" width="81.33" height="18.37" fill="#c9c9c9"></rect><rect x="148.77" y="64.3" width="114.61" height="189.58" fill="#24285b"></rect><rect x="158.22" y="73.67" width="95.49" height="30.49" rx="9.29" fill="#fff" opacity="0.07"></rect><rect x="175.66" y="53.41" width="58.34" height="10.89" fill="#68e1fd"></rect><circle cx="236.3" cy="88.95" r="8.16" fill="#68e1fd"></circle><rect x="168" y="85.08" width="48.07" height="7.75" fill="#fff"></rect><rect x="158.22" y="120.01" width="95.49" height="30.49" rx="9.29" fill="#fff" opacity="0.07"></rect><circle cx="236.3" cy="135.29" r="8.16" fill="#68e1fd"></circle><rect x="168" y="131.42" width="48.07" height="7.75" fill="#fff"></rect><rect x="158.22" y="166.35" width="95.49" height="30.49" rx="9.29" fill="#fff" opacity="0.07"></rect><circle cx="236.3" cy="181.64" r="8.16" fill="#68e1fd"></circle><rect x="168" y="177.76" width="48.07" height="7.75" fill="#fff"></rect><rect x="158.22" y="212.69" width="95.49" height="30.49" rx="9.29" fill="#fff" opacity="0.07"></rect><circle cx="236.3" cy="227.98" r="8.16" fill="#68e1fd"></circle><rect x="168" y="224.1" width="48.07" height="7.75" fill="#fff"></rect><path d="M168.64,178.45s26.8,6,37.32,24.64-32.62,50.78-32.62,50.78l-29.87.1-6.9-31.23,15.58-22.21Z" opacity="0.08"></path><rect x="246.65" y="35.77" width="66.25" height="47.43" fill="#ffd200"></rect><path d="M299.55,65a5.47,5.47,0,0,0-5.48-5.47,5.14,5.14,0,0,0-.88.08,7.36,7.36,0,0,0-6.5-3.89h-.27a8.73,8.73,0,0,0-8.49-10.88,8.76,8.76,0,0,0-8.76,8.76,8.67,8.67,0,0,0,.27,2.12h-.27a7.38,7.38,0,1,0,0,14.76h25.62v0A5.48,5.48,0,0,0,299.55,65Z" fill="#fff"></path><path d="M114,175.13S79,171.42,80.33,190s21,58,21,58h43s32.64-50.06,16.76-66.16S141.54,179.51,114,175.13Z" fill="#68e1fd"></path><polygon points="101.21 253.97 127.39 261.03 150.61 249.25 154.14 242.96 130.73 242.96 93.49 242.96 101.21 253.97" fill="#24285b"></polygon><path d="M97.13,195.22c3.28-11-2.91-23-14.64-14.18-8,6-17.56,25.2-18,43-1.14,40.81,48.92-3.1,55.14-26.47l-6.16-3.64S103,213.47,91.73,217.71C83.57,220.77,92.29,211.42,97.13,195.22Z" fill="#68e1fd"></path><path d="M97.13,195.22c3.28-11-2.91-23-14.64-14.18-8,6-17.56,25.2-18,43-1.14,40.81,48.92-3.1,55.14-26.47l-6.16-3.64S103,213.47,91.73,217.71C83.57,220.77,92.29,211.42,97.13,195.22Z" fill="#fff" opacity="0.46"></path><path d="M114,175.13s-5.38,8.48-.1,11.51,7-.42,7-.42,3.93,4.64,7.45,1,3-10.76-.57-14.07S114,175.13,114,175.13Z" fill="#fff"></path><path d="M115.25,175.41a41.27,41.27,0,0,1,.47,4.71c.07,2.17.76,5.39,4.18,6,5.27,1,6.68-7.36,6.68-7.36s3.31-7.82-2.39-8.89C119.05,168.93,114.2,168.24,115.25,175.41Z" fill="#f4a28c"></path><path d="M135.58,187.17s-3.27,6.87,5,21c4.73,8.06-9.85,21.51-9.85,21.51l-36.27,3.64L101.28,248h43s18.9-30.74,20.36-46.56S135.58,187.17,135.58,187.17Z" opacity="0.08"></path><path d="M126.25,179.12s.3-2.54,2.51-2.43S130.1,181.53,126.25,179.12Z" fill="#f4a28c"></path><path d="M116.52,177.7s.78-2.43-1.28-3.24S112,178.31,116.52,177.7Z" fill="#f4a28c"></path><polygon points="102.92 240.73 99.89 213.08 146.31 213.08 141.68 242.14 142.34 245.87 102.43 246.19 102.92 240.73" fill="#ffd200"></polygon><path d="M121.61,254s8.81,3.08,5.78,7.06-7.81-2.63-7.81-2.63Z" fill="#68e1fd"></path><path d="M146.31,213.08l-9.2,12.15a47.54,47.54,0,0,1-20.94,15.71l-13.74,5.25,36.81-.3,3.1,0-.66-3.73Z" opacity="0.08"></path><path d="M115.25,175.41s-8.54-1.23-4.73-7.51,4.67-1.57,6.47-6.44,3.43-5.81,6.08-3.73.08,6.43,4.08,5.21,6.73-2.37,7.49.95,0,4.9-2.57,6,1.47,5.6-5,7.42-9.84-5.26-9.84-5.26Z" fill="#24285b"></path><path d="M121.88,252.43s-35.61-18.18-38.64-8.5,21.5,15.29,37.34,15.87Z" fill="#24285b"></path><circle cx="123.56" cy="227.97" r="3.98" fill="#fff"></circle><path d="M130.53,253.86s28.4-28.14,34.22-19.85-15.83,21.1-30.75,26.47Z" fill="#24285b"></path><path d="M131.64,256s-8.41,7.49-3.54,9.7,5.9-5.2,5.9-5.2Z" fill="#68e1fd"></path><path d="M135.58,187.17A12,12,0,0,1,146.28,174c6.42-.69,14.86-.26,22.36,4.44,14.56,9.12,30.66,16.4,26.69,32.94s-32.86,23.48-32.86,23.48l-3.86-6.28s25.47-8.6,20.84-22.05C175.27,194.41,138.32,214.67,135.58,187.17Z" fill="#68e1fd"></path><path d="M135.58,187.17A12,12,0,0,1,146.28,174c6.42-.69,14.86-.26,22.36,4.44,14.56,9.12,30.66,16.4,26.69,32.94s-32.86,23.48-32.86,23.48l-3.86-6.28s25.47-8.6,20.84-22.05C175.27,194.41,138.32,214.67,135.58,187.17Z" fill="#fff" opacity="0.46"></path><path d="M159.25,229.63s-8,5.43-5.11,6.93,7.84-2.48,7.84-2.48Z" fill="#f4a28c"></path><path d="M114.5,194.53s2.88-7.05,6.82-6.48-2.21,9.2-2.21,9.2Z" fill="#f4a28c"></path><polygon points="286.79 67.39 280.43 58.35 274.06 67.39 277.25 67.39 277.25 74.4 283.51 74.4 283.51 67.39 286.79 67.39" fill="#24285b"></polygon><rect x="42.39" y="100.22" width="66.25" height="47.43" fill="#ffd200"></rect><path d="M95.29,129.47A5.47,5.47,0,0,0,89.82,124a5.05,5.05,0,0,0-.88.08,7.37,7.37,0,0,0-6.5-3.89h-.27a8.76,8.76,0,1,0-17,0h-.27a7.38,7.38,0,0,0,0,14.76H90.53v0A5.48,5.48,0,0,0,95.29,129.47Z" fill="#fff"></path><polygon points="69.81 132.63 76.17 141.66 82.53 132.63 79.34 132.63 79.34 125.61 73.08 125.61 73.08 132.63 69.81 132.63" fill="#24285b"></polygon></svg>