<svg id="Layer_1" data-name="Layer 1" xmlns="http://www.w3.org/2000/svg" viewBox="0 0 400 300" width="406" height="306" class="illustration styles_illustrationTablet__1DWOa"><title>_</title><ellipse cx="209.86" cy="241.52" rx="167.3" ry="11.79" fill="#e6e6e6" opacity="0.45"></ellipse><path d="M108.74,49.62c-33.51,10.91-58.37,38.56-63.27,72-4.14,28.19-15.39,89.3,54.32,104,111.92,23.54,238.51,1,265.54-45.54s-11-117.58-66.9-131.42C259,38.86,174.2,28.32,108.74,49.62Z" fill="#e6e6e6" opacity="0.3"></path><path d="M81.83,148.77S101,189.53,77,194s-30.13-22.51-30.13-22.51l-8.68,5.6s9.48,31.18,35.89,31.15,44.28-8.61,43.77-36.75S81.83,148.77,81.83,148.77Z" fill="#0070f3"></path><path d="M81.83,148.77S101,189.53,77,194s-30.13-22.51-30.13-22.51l-8.68,5.6s9.48,31.18,35.89,31.15,44.28-8.61,43.77-36.75S81.83,148.77,81.83,148.77Z" fill="#fff" opacity="0.44"></path><path d="M110.19,89.42l-7.61,2.38L91.17,96.56S67.27,117.09,76,138.92s47.87,42.29,47.87,42.29L139.32,161Z" fill="#0070f3"></path><polygon points="37.71 124.51 42.25 135.88 47.04 124.51 37.71 124.51" fill="#e6e6e6"></polygon><path d="M79.8,72.51s1.5,6.65,4,10.61a3.42,3.42,0,0,0,4.73,1.09c2-1.27,4.29-3.56,3.91-7.23l.14-6.3A6.12,6.12,0,0,0,88,65.27C83.48,63.8,78.68,68.5,79.8,72.51Z" fill="#f4a28c"></path><polygon points="92.52 71.83 102.58 91.8 91.17 96.56 88.44 80.11 92.52 71.83" fill="#f4a28c"></polygon><path d="M81.5,72.26a27,27,0,0,0,5.85-2.37,5.69,5.69,0,0,0,1.89,6,4.64,4.64,0,0,0,5.9.06l-2.77-8.32c-1.45-4.85-7-6-11.12-3.7a5.81,5.81,0,0,0-3,3.81,7,7,0,0,0-.07,1.88,4,4,0,0,0,.58,2C79.47,72.56,80.47,72.53,81.5,72.26Z" fill="#24285b"></path><path d="M88.48,75.87s-.74-2.52,1.2-2.93,3,3.23.6,4.38Z" fill="#f4a28c"></path><path d="M81,76.65l-1,3.08a1.1,1.1,0,0,0,1.17,1.43l2.64-.32Z" fill="#f4a28c"></path><path d="M88.88,83.74A8.19,8.19,0,0,0,92,80.25s1.07,4-2,9.17Z" fill="#ce8172" opacity="0.31"></path><path d="M45.64,172.3s-2.71-9.85-7.48-11,1.63,14.81,1.63,14.81Z" fill="#f4a28c"></path><rect x="38.56" y="150.63" width="10.85" height="17.68" transform="translate(-41.05 17.57) rotate(-15.51)" fill="#ffd200"></rect><rect x="22.84" y="100.46" width="39.06" height="27.57" fill="#e6e6e6"></rect><path d="M91.68,66S78,71.25,78.2,70.87s-1.68-3.83-.92-7.23,7.92-6,10.39-4.94S91.68,66,91.68,66Z" fill="#ffd200"></path><path d="M78.2,70.87s-7.39,2.75-7.32,2.56,7.79-5.49,8-5.49S78.2,70.87,78.2,70.87Z" fill="#ffd200"></path><path d="M89.63,74.71c-.13,1.36-.29,2.72-.49,4.07a15.93,15.93,0,0,1-.72,3.71c-1,2.31-3.88,2.57-6,2.71-.64,0-.64,1,0,1,2.44-.16,5.38-.5,6.72-2.87a11.59,11.59,0,0,0,.95-4.08c.23-1.51.41-3,.56-4.54C90.69,74.07,89.69,74.07,89.63,74.71Z" fill="#24285b"></path><rect x="78.96" y="84.84" width="3.72" height="2.04" rx="1.02" fill="#24285b"></rect><rect x="286.01" y="203.97" width="67.55" height="18.37" fill="#e6e6e6"></rect><rect x="284.63" y="222.34" width="81.33" height="18.37" fill="#c9c9c9"></rect><rect x="216.28" y="71.11" width="103.02" height="170.41" fill="#24285b"></rect><rect x="224.77" y="79.54" width="85.84" height="27.41" rx="9.29" fill="#fff" opacity="0.07"></rect><rect x="240.45" y="61.32" width="52.44" height="9.79" fill="#0070f3"></rect><circle cx="294.96" cy="93.28" r="7.33" fill="#0070f3"></circle><rect x="233.56" y="89.79" width="43.21" height="6.97" fill="#fff"></rect><rect x="224.77" y="121.2" width="85.84" height="27.41" rx="9.29" fill="#fff" opacity="0.07"></rect><circle cx="294.96" cy="134.93" r="7.33" fill="#0070f3"></circle><rect x="233.56" y="131.45" width="43.21" height="6.97" fill="#fff"></rect><rect x="233.56" y="214.76" width="43.21" height="6.97" fill="#fff"></rect><rect x="233.56" y="173.08" width="43.21" height="6.97" fill="#fff"></rect><rect x="224.77" y="162.85" width="85.84" height="27.41" rx="9.29" fill="#fff" opacity="0.07"></rect><circle cx="294.96" cy="176.59" r="7.33" fill="#0070f3"></circle><rect x="224.77" y="204.51" width="85.84" height="27.41" rx="9.29" fill="#fff" opacity="0.07"></rect><circle cx="294.96" cy="218.25" r="7.33" fill="#0070f3"></circle><rect x="107.84" y="71.11" width="103.02" height="170.41" fill="#24285b"></rect><rect x="116.33" y="79.54" width="85.84" height="27.41" rx="9.29" fill="#fff" opacity="0.07"></rect><rect x="132.01" y="61.32" width="52.44" height="9.79" fill="#0070f3"></rect><circle cx="186.52" cy="93.28" r="7.33" fill="#0070f3"></circle><rect x="125.12" y="89.79" width="43.21" height="6.97" fill="#fff"></rect><rect x="116.33" y="121.2" width="85.84" height="27.41" rx="9.29" fill="#fff" opacity="0.07"></rect><circle cx="186.52" cy="134.93" r="7.33" fill="#0070f3"></circle><rect x="125.12" y="131.45" width="43.21" height="6.97" fill="#fff"></rect><rect x="125.12" y="214.76" width="43.21" height="6.97" fill="#fff"></rect><rect x="125.12" y="173.08" width="43.21" height="6.97" fill="#fff"></rect><rect x="116.33" y="162.85" width="85.84" height="27.41" rx="9.29" fill="#fff" opacity="0.07"></rect><circle cx="186.52" cy="176.59" r="7.33" fill="#0070f3"></circle><rect x="116.33" y="204.51" width="85.84" height="27.41" rx="9.29" fill="#fff" opacity="0.07"></rect><circle cx="186.52" cy="218.25" r="7.33" fill="#0070f3"></circle><path d="M337.08,192.1s-9.36-2.55-11.4-11.27c0,0,14.51-2.93,14.92,12Z" fill="#0070f3" opacity="0.58"></path><path d="M338.23,191.17s-6.54-10.34-.78-20c0,0,11,7,6.13,20Z" fill="#0070f3" opacity="0.73"></path><path d="M339.92,191.18s3.45-10.92,13.9-13c0,0,2,7.09-6.77,13Z" fill="#0070f3"></path><polygon points="333.13 190.94 335.02 203.92 346.98 203.97 348.74 191 333.13 190.94" fill="#24285b"></polygon><path d="M55.89,118a3.73,3.73,0,0,0-3.74-3.74,3.83,3.83,0,0,0-.6,0,5,5,0,0,0-4.45-2.66h-.18a5.82,5.82,0,0,0,.18-1.45,6,6,0,1,0-12,0,6.33,6.33,0,0,0,.18,1.45h-.18a5,5,0,1,0,0,10.09H52.64v0A3.75,3.75,0,0,0,55.89,118Z" fill="#fff"></path><polygon points="47.17 119.66 42.82 113.48 38.47 119.66 40.65 119.66 40.65 124.45 44.93 124.45 44.93 119.66 47.17 119.66" fill="#24285b"></polygon></svg>