<svg id="Layer_1" data-name="Layer 1" xmlns="http://www.w3.org/2000/svg" viewBox="0 0 400 300" width="406" height="306" class="illustration styles_illustrationTablet__1DWOa"><ellipse cx="204.83" cy="257.52" rx="82.66" ry="9.3" fill="#e6e6e6" opacity="0.3"></ellipse><path d="M150,249.37s-6.35-1.74-7.73-7.65c0,0,9.84-2,10.12,8.17Z" fill="#0070f3" opacity="0.58"></path><path d="M150.81,248.74s-4.44-7-.53-13.57c0,0,7.48,4.75,4.15,13.58Z" fill="#0070f3" opacity="0.73"></path><path d="M152,248.74s2.35-7.4,9.43-8.81c0,0,1.33,4.81-4.59,8.83Z" fill="#0070f3"></path><polygon points="147.35 248.58 148.63 257.38 156.74 257.42 157.94 248.62 147.35 248.58" fill="#24285b"></polygon><rect x="256.1" y="41.53" width="82.44" height="92.22" transform="translate(594.64 175.28) rotate(-180)" fill="#24285b"></rect><rect x="144.32" y="117.94" width="11.14" height="20.28" fill="#ffd200"></rect><path d="M193.69,148.75l-18.83,24.36-13.54-39.25s-5-4.24-8.33-.75,5,6.17,5,6.17-2,45.31,15,49.32c13.22,3.12,44.89-14.33,42.12-34.48C213.67,143.71,200.11,140.43,193.69,148.75Z" fill="#f4a28c"></path><polygon points="228.32 128.13 227.16 134.85 221.1 135.29 224.79 124.54 228.32 128.13" fill="#f4a28c"></polygon><path d="M222.41,118.19a4,4,0,0,1,6.4,2.17c.82,3.09,1.38,7.59-2.19,8-5.47.56-6.42-6.49-6.42-6.49A7.38,7.38,0,0,1,222.41,118.19Z" fill="#f4a28c"></path><path d="M223.46,123.27s-.57-1.42-1.69-.45.38,2.54,1.25,2.21S223.46,123.27,223.46,123.27Z" fill="#f4a28c"></path><path d="M205,138.55s14.58-8.1,27.56-3.26c23.61,8.81,22.31,24.64,5.73,70l-21.75.12Z" fill="#0070f3"></path><path d="M227.31,134s-1.4,3.45,1,13.5,14.93,43.71,14.93,43.71l-5,14.09h-7.91L206.05,138S217.05,132.31,227.31,134Z" opacity="0.08"></path><path d="M215.94,131.37a8.87,8.87,0,0,0,1.39-8.16,7.68,7.68,0,0,1,1.76-7.62c5.29-6.26,12.83-1.84,10.33,1.72s-3.87,5.17-3.87,5.17,9.12,9.59,4.37,15.44C225.69,143.12,208.41,140.93,215.94,131.37Z" fill="#24285b"></path><polygon points="185.06 225.48 196.46 248.44 200.17 247.71 193.08 221.51 185.06 225.48" fill="#f4a28c"></polygon><path d="M196.16,247.67S195.4,251,192.9,252s-1.22,4.65,2.54,2.44a24.28,24.28,0,0,0,3.32-2.34,7.06,7.06,0,0,1,3.36-1.45,1.18,1.18,0,0,0,.91-1c.49-1.84-3.67-3.55-3.67-3.55Z" fill="#0070f3"></path><polygon points="201.24 225.48 212.63 248.44 216.34 247.71 209.25 221.51 201.24 225.48" fill="#f4a28c"></polygon><path d="M212.33,247.67s-.76,3.32-3.26,4.36-1.22,4.65,2.54,2.44a24.28,24.28,0,0,0,3.32-2.34,7.06,7.06,0,0,1,3.36-1.45,1.18,1.18,0,0,0,.91-1c.49-1.84-3.67-3.55-3.67-3.55Z" fill="#0070f3"></path><path d="M191.61,197.83s-17,6.08-14.77,17.14,10.25,28.42,10.25,28.42l34.56-2.1s-8.28-30.34,9.47-31.18l2.35-6.11Z" fill="#24285b"></path><rect x="219.03" y="210.11" width="4.14" height="35.71" fill="#ffd200"></rect><rect x="219.03" y="210.11" width="4.14" height="35.71" fill="#fff" opacity="0.46"></rect><polygon points="219.43 245.81 204.6 257.51 237.6 257.51 223.57 245.81 219.43 245.81" fill="#ffd200"></polygon><polygon points="219.43 245.81 204.6 257.51 237.6 257.51 223.57 245.81 219.43 245.81" opacity="0.08"></polygon><path d="M237.65,205a8.52,8.52,0,0,1-6.55-8.35c.23-16.59-1.47-55.74-22.3-59.51-26.49-4.79-35.3,18-19.81,66.88,0,0,1.23,8,5.23,10.85s50.48,8.56,53.73,1.06C249.87,211.47,245.46,207,237.65,205Z" fill="#ffd200"></path><polygon points="311.1 65.14 297.32 57.19 283.54 65.14 283.54 81.06 297.32 89.02 311.1 81.06 311.1 65.14" fill="#0070f3"></polygon><polygon points="283.54 65.14 297.32 73.1 297.32 89.02 283.54 81.06 283.54 65.14" opacity="0.08"></polygon><polygon points="297.32 73.1 311.1 65.14 297.32 57.19 283.54 65.14 297.32 73.1" fill="#fff" opacity="0.44"></polygon><rect x="275.22" y="105.53" width="43.91" height="7.33" fill="#fff"></rect><rect x="275.22" y="105.53" width="31.62" height="7.33" fill="#0070f3"></rect><rect x="63.64" y="38.9" width="122.55" height="62.48" fill="#24285b"></rect><path d="M246.82,145.05c5.56,7,14,17.37,13.18,34.54l22.87-26.05s3.75-9.19,6.81-9.87,2,9.87-2.58,12.59c0,0-10,36.77-28.74,37.45-15.35.56-26.14-28-22.77-45.87A6.38,6.38,0,0,1,246.82,145.05Z" fill="#f4a28c"></path><path d="M246.82,145.05c5.56,7,14,17.37,13.18,34.54l22.87-26.05s3.75-9.19,6.81-9.87,2,9.87-2.58,12.59c0,0-10,36.77-28.74,37.45-15.35.56-26.14-28-22.77-45.87A6.38,6.38,0,0,1,246.82,145.05Z" opacity="0.08"></path><path d="M112.9,72.17l-.51,0V72a7.32,7.32,0,0,0-7.32-7.32h-.31a8.76,8.76,0,0,0-17.52.28,8.54,8.54,0,0,0,.21,1.91,7.32,7.32,0,0,0,.28,14.64H112.9a4.65,4.65,0,0,0,0-9.3Z" fill="#ffd200"></path><rect x="130.02" y="59.71" width="39.83" height="5.83" fill="#fff"></rect><rect x="130.02" y="73.24" width="39.83" height="5.83" fill="#fff" opacity="0.29"></rect><path d="M87.72,179.86l-1,0h-.24a.5.5,0,0,1-.48-.52.53.53,0,0,1,.51-.48h.25c.93,0,1.84,0,2.69,0a.5.5,0,1,1,.07,1C89,179.83,88.36,179.86,87.72,179.86ZM76.66,178.5h-.12c-1-.23-2-.5-2.92-.79a.5.5,0,0,1,.29-1c1,.29,1.91.55,2.86.78a.5.5,0,0,1-.11,1Zm22.17-1.81a.5.5,0,0,1-.29-.91,15.54,15.54,0,0,0,2.19-1.89.51.51,0,0,1,.71,0,.5.5,0,0,1,0,.71,16.79,16.79,0,0,1-2.33,2A.45.45,0,0,1,98.83,176.69Zm-34.27-2.8a.53.53,0,0,1-.24-.06c-.89-.48-1.77-1-2.62-1.52a.49.49,0,0,1-.16-.69.5.5,0,0,1,.68-.16c.84.52,1.7,1,2.58,1.49a.49.49,0,0,1,.2.67A.51.51,0,0,1,64.56,173.89ZM54,166.39a.51.51,0,0,1-.33-.13c-.74-.67-1.47-1.37-2.19-2.09a.48.48,0,0,1,0-.7.5.5,0,0,1,.71,0c.7.7,1.43,1.39,2.15,2a.5.5,0,0,1-.34.88Zm52.33-.09a.71.71,0,0,1-.2,0,.52.52,0,0,1-.27-.66c.36-.85.71-1.76,1.07-2.78a.5.5,0,0,1,.64-.3.5.5,0,0,1,.3.64c-.36,1-.72,2-1.08,2.83A.51.51,0,0,1,106.31,166.3Zm-61-9.59a.48.48,0,0,1-.4-.21c-.58-.79-1.16-1.63-1.72-2.48a.5.5,0,0,1,.14-.69.49.49,0,0,1,.69.14c.56.84,1.13,1.66,1.7,2.45a.49.49,0,0,1-.12.69A.45.45,0,0,1,45.34,156.71ZM110.42,154l-.15,0a.51.51,0,0,1-.33-.63c.3-1,.61-1.92.92-2.87a.52.52,0,0,1,.64-.32.5.5,0,0,1,.31.64c-.31.94-.62,1.89-.91,2.85A.51.51,0,0,1,110.42,154Zm-71.67-8.43a.5.5,0,0,1-.45-.28c-.43-.92-.84-1.84-1.23-2.77a.5.5,0,0,1,.93-.38c.38.91.78,1.82,1.21,2.72a.5.5,0,0,1-.24.66A.42.42,0,0,1,38.75,145.52Zm76.49-3.63a.57.57,0,0,1-.25-.06.52.52,0,0,1-.19-.69c.52-.91,1.07-1.77,1.64-2.57a.5.5,0,1,1,.81.59c-.54.76-1.07,1.59-1.58,2.48A.5.5,0,0,1,115.24,141.89Zm-80.92-8.57a.5.5,0,0,1-.48-.38c-.25-1-.49-2-.7-2.94a.49.49,0,0,1,.38-.59.51.51,0,0,1,.6.38c.21,1,.44,1.94.69,2.9a.5.5,0,0,1-.36.61Zm89.95-.45a.5.5,0,0,1-.45-.27.5.5,0,0,1,.22-.67,21.31,21.31,0,0,1,2.81-1.18.51.51,0,0,1,.64.32.49.49,0,0,1-.32.63,20.67,20.67,0,0,0-2.68,1.12A.59.59,0,0,1,124.27,132.87Zm12.9-2.46h-.34a.5.5,0,0,1-.49-.51.47.47,0,0,1,.51-.49h.34a.51.51,0,0,1,.48.52A.5.5,0,0,1,137.17,130.41ZM32.32,120.49a.5.5,0,0,1-.5-.48c0-.85-.06-1.69-.06-2.53V117a.51.51,0,0,1,.5-.5h0a.5.5,0,0,1,.49.51v.48q0,1.23.06,2.49a.5.5,0,0,1-.48.52Zm.91-12.94h-.1a.5.5,0,0,1-.4-.58c.19-1,.39-2,.62-3a.5.5,0,0,1,1,.23c-.23,1-.43,2-.61,2.91A.51.51,0,0,1,33.23,107.55Zm3.62-12.46a.43.43,0,0,1-.19,0,.51.51,0,0,1-.28-.65c.38-1,.77-1.88,1.18-2.78a.5.5,0,1,1,.91.4c-.4.9-.78,1.82-1.16,2.75A.48.48,0,0,1,36.85,95.09Zm5.8-11.63a.48.48,0,0,1-.26-.07.51.51,0,0,1-.17-.69c.54-.89,1.08-1.74,1.61-2.55a.5.5,0,1,1,.84.54c-.53.8-1.06,1.65-1.59,2.53A.49.49,0,0,1,42.65,83.46Zm7.57-10.57a.49.49,0,0,1-.32-.12.51.51,0,0,1-.06-.71c1.24-1.46,2-2.24,2-2.27a.5.5,0,0,1,.71,0,.51.51,0,0,1,0,.71s-.78.78-2,2.21A.49.49,0,0,1,50.22,72.89Z" fill="#e6e6e6"></path><path d="M193.31,138.22s-5.54,18.25,5.05,39.84,4.11,33.53,38.31,41.4c0,0-24.26.9-42.45-4.61,0,0-2.59-1.12-5-9.55C189.24,205.3,169.88,150,193.31,138.22Z" opacity="0.08"></path></svg>