<svg id="Layer_1" data-name="Layer 1" xmlns="http://www.w3.org/2000/svg" viewBox="0 0 400 300" width="406" height="306" class="illustration styles_illustrationTablet__1DWOa"><title>_</title><path d="M298.5,65.76c35.23,12.07,68.79,45.15,69.81,87.88,1,42.57-10.65,86.24-74.84,103.11C233.18,272.59,90,278.33,51.89,225.23,15.92,175.17,27.34,93.9,90.22,67.91,134.29,49.69,229.69,42.2,298.5,65.76Z" fill="#e6e6e6" opacity="0.3"></path><path d="M168,160.3s34.25-.59,96.45-64.67l-.52,149.9S211.49,202,170.69,211.27C170.69,211.27,152.52,186,168,160.3Z" fill="#e6e6e6"></path><ellipse cx="277.87" cy="169.21" rx="78.54" ry="42.47" transform="translate(101.01 442.28) rotate(-88.41)" fill="#999"></ellipse><path d="M134.65,209.77S129.77,224,144,228.25s26.33,43.52,26.33,43.52l19.41-8.64s-25.52-45.69-15.06-53.49Z" fill="#999"></path><path d="M134.65,209.77s-5.19,15.42,9.37,18.48c13.71,2.89,25.17,40.54,26.33,43.52l19.41-8.64s-25.52-45.69-15.06-53.49Z" fill="#999"></path><path d="M238.24,203.1l39.24-7.77,1.24-44.64L237.22,148S230.76,171.9,238.24,203.1Z" fill="#68e1fd"></path><path d="M238.24,203.1l39.24-7.77,1.24-44.64L237.22,148S230.76,171.9,238.24,203.1Z" fill="#c9c9c9"></path><ellipse cx="278.1" cy="173.01" rx="22.33" ry="12.07" transform="translate(97.44 446.21) rotate(-88.41)" fill="#e6e6e6"></ellipse><path d="M172.12,159.83s-57.17,6-61.85,17.27,1.7,39,15.54,40.4,44-7.5,44-7.5S159.14,181,172.12,159.83Z" fill="#c9c9c9"></path><path d="M168.48,209.66l5.71,18.25,9.05-3.67a4.75,4.75,0,0,0,2.81-5.62l-2.17-8.17S175,207.8,168.48,209.66Z" fill="#c9c9c9"></path><path d="M180,142.27s13-8.36,18.57.2-9.06,11.31-9.06,11.31Z" fill="#24285b"></path><path d="M192.45,78.79l25,34.26a4.49,4.49,0,0,0,7,.6l16.76-17.74,5.5,5.56s-17.35,29.82-27.63,29.83-29.29-19.92-29.29-19.92Z" fill="#68e1fd"></path><path d="M192.45,78.79l25,34.26a4.49,4.49,0,0,0,7,.6l16.76-17.74,5.5,5.56s-17.35,29.82-27.63,29.83-29.29-19.92-29.29-19.92Z" fill="#fff" opacity="0.46"></path><polygon points="186.73 47.98 179.53 66.29 189.47 75.37 190.98 54.91 186.73 47.98" fill="#f4a28c"></polygon><path d="M190.88,58.12a7.13,7.13,0,0,1-3-2.8s-.63,3.55,2.47,7.87Z" fill="#ce8172" opacity="0.31"></path><path d="M195.62,48.31s0,6-1.29,9.89a3,3,0,0,1-3.84,1.87,6.67,6.67,0,0,1-4.79-5.42l-1.37-5.37a5.39,5.39,0,0,1,2.83-5.55C190.73,41.58,195.78,44.65,195.62,48.31Z" fill="#f4a28c"></path><path d="M195.45,52.09l1.48,2.44a1,1,0,0,1-.72,1.46l-2.32.24Z" fill="#f4a28c"></path><path d="M183.33,55.42l-.5-8.15s-4.32-1.65-2.4-4.31,3.33-.35,4.06-3.69,3.58-3.48,5.14-1.21,1.18-.55,3.66-.43,2.9,1.32,2.59,3.16,3.55.58,4,3.07.11,4.76-6,4S191.18,52.78,183.33,55.42Z" fill="#ffd200"></path><path d="M188.84,52.92s.15-2.31-1.6-2.27-2,3.37.36,3.87Z" fill="#f4a28c"></path><path d="M194.43,151.22s17.08-5.59,18.4,7.71-10.26,35.15-10.26,35.15,6.79,9.84-5.21,7.07L194,196.31l2.43-22.95-2.79-18.68-10.18-10.81Z" opacity="0.08"></path><path d="M180.35,142l-.25.19-.08.06-.06.05-17.27-1.64-11.77-1.12s-2.82-25.49.63-47.09c2.24-14,13.3-20.82,20.83-23.9a40.4,40.4,0,0,1,7.15-2.23l9.94,9.08C221.06,108.35,184.55,138.67,180.35,142Z" fill="#68e1fd"></path><path d="M150.91,139.51s-4,23.76,10.1,22.32a111.75,111.75,0,0,1,21.91.2,7.58,7.58,0,0,1,6.82,7.26l.83,21.31,6.85,2.89,4.91-25.56A18.36,18.36,0,0,0,192,147.78l-12-5.51Z" fill="#24285b"></path><path d="M180.35,142l-.25.19-.08.06-.06.05-17.27-1.64s5.59-9.63,10.7-20.18c3.73-7.71.82-36.81-1-51.93a40.4,40.4,0,0,1,7.15-2.23l9.94,9.08C221.06,108.35,184.55,138.67,180.35,142Z" opacity="0.08"></path><path d="M171.71,90.14c12.31,1.8,19-13.91,9.45-21.86a29.43,29.43,0,0,0-9.56-5.38c-13.17-4.3-66.14-30.27-66.14-30.27l-4.28,8.13s37.73,32.13,58.66,44.82A31.92,31.92,0,0,0,171.71,90.14Z" fill="#68e1fd"></path><path d="M171.71,90.14c12.31,1.8,19-13.91,9.45-21.86a29.43,29.43,0,0,0-9.56-5.38c-13.17-4.3-66.14-30.27-66.14-30.27l-4.28,8.13s37.73,32.13,58.66,44.82A31.92,31.92,0,0,0,171.71,90.14Z" fill="#fff" opacity="0.46"></path><path d="M104.75,34s-4.86-9.27-8.4-4.26,4.83,11,4.83,11Z" fill="#f4a28c"></path><path d="M245,99.7s8.27-5.59,2.69-10.51-6.45,6.72-6.45,6.72Z" fill="#f4a28c"></path><rect x="238.05" y="77.29" width="9.96" height="15.7" transform="translate(481.24 183) rotate(-176.98)" fill="#ffd200"></rect><path d="M195.78,192.8s.27,6.09,3.4,7c0,0,.23,4.32-4.31,3.14s-5.19-7.24-5.19-7.24l2.09-4.55Z" fill="#68e1fd"></path><polygon points="275.27 136.37 316.97 98.75 320.55 116.79 354.25 95.13 306.65 140.5 306.08 121.56 275.27 136.37" fill="#68e1fd"></polygon><polygon points="275.27 208.57 311.22 241 314.3 225.44 343.36 244.12 302.32 205 301.83 221.33 275.27 208.57" fill="#68e1fd"></polygon><path d="M111.38,105.08h-7.47c1.34-14.74,8.18-19.21,9.25-19.82a33.16,33.16,0,0,0-16.33,19.82H73.59a22.47,22.47,0,0,0,0,44.94h37.79a22.47,22.47,0,0,0,0-44.94Z" fill="#e6e6e6"></path><path d="M113.16,85.26l.14-.08Z" fill="#e6e6e6"></path><path d="M100.87,123.86a9,9,0,0,1-.31,2.19,7.17,7.17,0,0,1-1.46,2.7,20.47,20.47,0,0,1-2,2c-1.28,1.14-2.6,2.25-3.87,3.4-.58.52-1.16,1-1.72,1.59,0,0-.07,0-.12,0-1.36-1.3-2.78-2.54-4.2-3.76-.88-.77-1.77-1.53-2.6-2.36a9.78,9.78,0,0,1-1.69-2.15,7.06,7.06,0,0,1-.8-2.41,11.74,11.74,0,0,1-.11-1.87,4.77,4.77,0,0,1,3.74-4.56A5,5,0,0,1,90.35,120a5.87,5.87,0,0,1,1,1.25l0,.08a5.68,5.68,0,0,1,.6-.83,5.23,5.23,0,0,1,2.68-1.77,4.84,4.84,0,0,1,6.08,3.7A6,6,0,0,1,100.87,123.86Z" opacity="0.08"></path></svg>