<?xml version="1.0" encoding="utf-8"?>
<!-- Generator: Adobe Illustrator 23.0.4, SVG Export Plug-In . SVG Version: 6.00 Build 0)  -->
<svg version="1.1" id="Layer_1" xmlns="http://www.w3.org/2000/svg" xmlns:xlink="http://www.w3.org/1999/xlink" x="0px" y="0px"
	 viewBox="0 0 566.9 119.1" style="enable-background:new 0 0 566.9 119.1;" xml:space="preserve">
<style type="text/css">
	.st0{fill:#101820;}
	.st1{fill:#FFB71B;}
</style>
<g>
	<path class="st0" d="M137.5,25.7l-1.6,8.9H117l-1.7,10h14.1l-1.6,8.6h-14.1l-3.3,18.9H99.1l8.2-46.4H137.5z"/>
	<path class="st0" d="M160.3,63.9H143l-4.2,8.2h-11.8l25-46.4H165l8.6,46.4h-12L160.3,63.9z M159,55.3l-2.7-17.2l-8.9,17.2H159z"/>
	<path class="st0" d="M181.9,69.3c-3.2-2.2-4.7-5.3-4.7-9.3c0-0.4,0-1,0.1-1.8h11.8c-0.1,1.7,0.3,3,1.2,4c0.9,1,2.3,1.5,4.2,1.5
		c1.7,0,3.1-0.4,4.1-1.1c1-0.7,1.5-1.8,1.5-3.2c0-1.4-0.6-2.6-1.9-3.4c-1.3-0.9-3.2-1.9-5.9-3c-2.6-1.1-4.6-2.1-6.2-3
		c-1.6-0.9-3-2.2-4.2-3.9c-1.2-1.6-1.8-3.7-1.8-6.1c0-3,0.7-5.7,2.2-7.9c1.5-2.2,3.7-4,6.4-5.2s5.9-1.8,9.4-1.8c3.2,0,6,0.5,8.5,1.5
		c2.5,1,4.4,2.4,5.8,4.3c1.4,1.9,2,4.1,2,6.6c0,0.7,0,1.1-0.1,1.5h-12c0-0.2,0.1-0.4,0.1-0.8c0-1.2-0.4-2.2-1.3-3
		c-0.9-0.8-2-1.2-3.5-1.2c-1.6,0-2.9,0.4-3.9,1.2c-1,0.8-1.5,1.8-1.5,3.1c0,1.3,0.6,2.4,1.8,3.3c1.2,0.9,3.2,2,5.8,3.1
		c2.6,1.2,4.7,2.3,6.4,3.3c1.7,1,3.1,2.4,4.3,4.1c1.2,1.7,1.8,3.8,1.8,6.2c0,2.7-0.7,5.2-2.2,7.3c-1.5,2.2-3.5,3.8-6.3,5.1
		s-5.9,1.8-9.6,1.8C189.1,72.5,185,71.4,181.9,69.3z"/>
	<path class="st0" d="M255.8,25.7l-1.5,8.9h-12.4l-6.6,37.5H224l6.6-37.5h-12.3l1.6-8.9H255.8z"/>
	<path class="st0" d="M297.8,52.3c1.6,2.1,2.4,4.5,2.4,7.2c0,3.9-1.4,7-4.1,9.2c-2.7,2.3-6.5,3.4-11.3,3.4h-21.6V25.7h20.9
		c4.7,0,8.4,1.1,11.1,3.2c2.7,2.2,4,5.1,4,8.8c0,2.7-0.7,5-2.2,6.8c-1.4,1.8-3.3,3.1-5.7,3.8C294,48.8,296.2,50.2,297.8,52.3z
		 M274.6,44.4h7.4c1.9,0,3.3-0.4,4.3-1.2s1.5-2,1.5-3.6s-0.5-2.8-1.5-3.6c-1-0.8-2.4-1.3-4.3-1.3h-7.4V44.4z M287.3,61.7
		c1-0.9,1.6-2.1,1.6-3.7c0-1.6-0.5-2.9-1.6-3.8c-1.1-0.9-2.6-1.4-4.5-1.4h-8.2v10.2h8.3C284.8,62.9,286.2,62.5,287.3,61.7z"/>
	<path class="st0" d="M318.1,25.7v46.4h-11.3V25.7H318.1z"/>
	<path class="st0" d="M359.7,25.7v9.1h-12.3v37.4h-11.3V34.7h-12.3v-9.1H359.7z"/>
	<path class="st0" d="M363.8,36.5c2-3.6,4.7-6.4,8.3-8.4c3.5-2,7.6-3,12.1-3c5.5,0,10.2,1.5,14.1,4.4c3.9,2.9,6.5,6.9,7.9,11.9
		h-12.4c-0.9-1.9-2.2-3.4-3.9-4.4c-1.7-1-3.6-1.5-5.8-1.5c-3.5,0-6.3,1.2-8.5,3.6c-2.2,2.4-3.2,5.7-3.2,9.7c0,4.1,1.1,7.3,3.2,9.7
		c2.2,2.4,5,3.6,8.5,3.6c2.2,0,4.1-0.5,5.8-1.5c1.7-1,3-2.5,3.9-4.4h12.4c-1.3,5-3.9,9-7.9,11.9c-3.9,2.9-8.6,4.3-14.1,4.3
		c-4.5,0-8.5-1-12.1-3c-3.5-2-6.3-4.8-8.3-8.4c-2-3.6-3-7.6-3-12.2C360.8,44.2,361.8,40.1,363.8,36.5z"/>
	<path class="st0" d="M420.4,69.5c-3.6-2-6.5-4.9-8.7-8.5c-2.1-3.6-3.2-7.7-3.2-12.3c0-4.5,1.1-8.6,3.2-12.2c2.1-3.6,5-6.4,8.7-8.5
		c3.6-2,7.6-3,12-3c4.4,0,8.4,1,12,3c3.6,2,6.5,4.8,8.6,8.5c2.1,3.6,3.1,7.7,3.1,12.2c0,4.5-1.1,8.6-3.2,12.3
		c-2.1,3.6-5,6.5-8.6,8.5c-3.6,2-7.6,3-12,3C428.1,72.5,424.1,71.5,420.4,69.5z M441.3,58.5c2.2-2.5,3.3-5.7,3.3-9.8
		c0-4.1-1.1-7.4-3.3-9.8s-5.2-3.7-8.9-3.7c-3.7,0-6.7,1.2-9,3.6c-2.2,2.4-3.3,5.7-3.3,9.9c0,4.1,1.1,7.4,3.3,9.8
		c2.2,2.4,5.2,3.7,9,3.7C436.1,62.2,439.1,61,441.3,58.5z"/>
	<path class="st0" d="M472.4,25.7v46.4h-11.3V25.7H472.4z"/>
	<path class="st0" d="M522.1,72.1h-11.3l-18.9-28.6v28.6h-11.3V25.7h11.3l18.9,28.8V25.7h11.3V72.1z"/>
	<path class="st0" d="M538,70.9c-2.7-1.1-4.8-2.7-6.4-4.9c-1.6-2.2-2.5-4.8-2.5-7.8h12c0.2,1.7,0.8,3,1.8,3.9c1,0.9,2.3,1.4,4,1.4
		c1.7,0,3-0.4,4-1.2c1-0.8,1.5-1.8,1.5-3.2c0-1.1-0.4-2.1-1.2-2.8s-1.7-1.4-2.8-1.9c-1.1-0.5-2.7-1-4.8-1.7c-3-0.9-5.4-1.9-7.3-2.8
		c-1.9-0.9-3.5-2.3-4.9-4.1c-1.4-1.8-2.1-4.2-2.1-7.1c0-4.3,1.6-7.7,4.7-10.1c3.1-2.4,7.2-3.7,12.2-3.7c5.1,0,9.2,1.2,12.4,3.7
		c3.1,2.4,4.8,5.9,5,10.2h-12.2c-0.1-1.5-0.6-2.7-1.7-3.5c-1-0.9-2.3-1.3-3.9-1.3c-1.4,0-2.5,0.4-3.3,1.1c-0.8,0.7-1.3,1.8-1.3,3.1
		c0,1.5,0.7,2.7,2.1,3.5c1.4,0.8,3.6,1.7,6.6,2.7c3,1,5.4,2,7.3,2.9c1.9,0.9,3.5,2.3,4.9,4c1.4,1.8,2.1,4,2.1,6.8c0,2.6-0.7,5-2,7.2
		c-1.3,2.2-3.3,3.9-5.8,5.2c-2.6,1.3-5.6,1.9-9.1,1.9C543.7,72.5,540.7,72,538,70.9z"/>
</g>
<path class="st1" d="M30.6,25.5l-4.2,23.2H3.3l8.2-46.3h80.8L76.6,25.5H30.6z M60.8,48.7H26.6L14.5,117L60.8,48.7z"/>
</svg>
