<svg id="Layer_1" data-name="Layer 1" xmlns="http://www.w3.org/2000/svg" viewBox="0 0 400 300" width="406" height="306" class="illustration styles_illustrationTablet__1DWOa"><title>#65_gaming_twocolour</title><ellipse cx="202.51" cy="248.07" rx="177.71" ry="15.86" fill="#e6e6e6" opacity="0.45"></ellipse><rect x="40.29" y="203.27" width="59.53" height="43.15" fill="#e6e6e6"></rect><rect x="56.63" y="167.25" width="49.48" height="35.86" fill="#e6e6e6" opacity="0.45"></rect><path d="M343.89,172.88h-9.08v-2h9.08a2.41,2.41,0,0,0,2.42-2.41V162a2.42,2.42,0,0,0-2.42-2.42h-9.08v-2h9.08a4.42,4.42,0,0,1,4.42,4.42v6.5A4.42,4.42,0,0,1,343.89,172.88Z" fill="#ffd200"></path><path d="M343.89,172.88h-9.08v-2h9.08a2.41,2.41,0,0,0,2.42-2.41V162a2.42,2.42,0,0,0-2.42-2.42h-9.08v-2h9.08a4.42,4.42,0,0,1,4.42,4.42v6.5A4.42,4.42,0,0,1,343.89,172.88Z" fill="#fff" opacity="0.46"></path><rect x="315.11" y="220.42" width="31.75" height="4.08" fill="#adadad"></rect><polygon points="95.73 219.86 91.85 246.43 101.33 246.43 107.8 219.86 95.73 219.86" fill="#c9c9c9"></polygon><polygon points="273.79 219.86 277.67 246.43 268.19 246.43 261.72 219.86 273.79 219.86" fill="#c9c9c9"></polygon><path d="M76.88,197.44l2.57,13.61a19.05,19.05,0,0,0,18.72,15.52H270.86a25.37,25.37,0,0,0,24.55-19l2.65-10.16Z" fill="#adadad"></path><path d="M85.06,186.49l-6.38,4.7a5.35,5.35,0,0,0,3.12,9.65l209.3,2.26a7,7,0,0,0,5.15-11.85l-4.53-4.76Z" fill="#c9c9c9"></path><path d="M85.06,186.49S63.33,117.09,112,112.78c39.82-3.53,130.23-1.28,161.68-.35,10.43.31,19.91,6.36,24,15.73,4.92,11.27,6.68,29.7-5.9,58.33Z" fill="#e6e6e6"></path><path d="M134,230.08s.61,3.62-2,5.37-1.81,4.81,1,4.14,7.39-7.35,7.39-7.35l-2.38-3.83Z" fill="#0070f3"></path><circle cx="76.5" cy="61.07" r="24.41" fill="#e6e6e6"></circle><circle cx="76.5" cy="61.07" r="16.43" fill="#f2f2f2"></circle><polyline points="76.5 49.7 76.5 61.07 81.04 64.92" fill="none" stroke="#a5a5a5" stroke-linecap="round" stroke-linejoin="round" stroke-width="2"></polyline><path d="M179.52,96.75s-42.29-4.48-40.69,17.88,25.3,70,25.3,70h51.92s46.63-61.36,27.46-80.8S212.75,102,179.52,96.75Z" fill="#0070f3"></path><path d="M180,98.62s-5.46,14.88,3.88,17.89,14.51-8.8,11.92-15S180,98.62,180,98.62Z" fill="#f4a28c"></path><path d="M164.46,126.33s-5.15,42.37,21.18,46.55,38.49.27,38.49.27l-8.08,11.52-52.66-1.51s-15.94-34.85-16.77-39S164.46,126.33,164.46,126.33Z" opacity="0.08"></path><path d="M180,98.62s-5.46,14.88,3.88,17.89,14.51-8.8,11.92-15S180,98.62,180,98.62Z" opacity="0.08"></path><path d="M181,97.08a51.71,51.71,0,0,1,.57,5.69c.08,2.62.92,6.5,5.05,7.27,6.36,1.18,8-8.89,8-8.89s4-9.44-2.88-10.73C185.59,89.25,179.73,88.42,181,97.08Z" fill="#f4a28c"></path><path d="M194.28,101.56s.36-3.06,3-2.93S198.93,104.47,194.28,101.56Z" fill="#f4a28c"></path><path d="M182.53,99.85s.94-2.93-1.54-3.92S177.1,100.58,182.53,99.85Z" fill="#f4a28c"></path><path d="M165.82,111.88a18.44,18.44,0,0,0-26.06-7.81c-12.7,7.5-28.25,23.62-27.23,57.39,1.49,48.76,70.18,15.08,70.18,15.08l-2.56-7.31s-50.87,15.93-41.36-12.07C146.75,133.7,175.24,131.9,165.82,111.88Z" fill="#f4a28c"></path><path d="M165.79,183.17l50.26,1.5s35.43,3.29,35.86,16c.34,10.05-42.45,4.2-60.35,1.32a75.81,75.81,0,0,0-26.87.37c-14,2.78-28.24-1.47-24.43,27.07l-7.48,1.83S113.07,182.68,165.79,183.17Z" fill="#24285b"></path><rect x="184.2" y="166.06" width="23.84" height="9.62" rx="2.92" ry="2.92" fill="#ffd200"></rect><path d="M180.15,169.23s2.25-7.48,4.76-7.55,6.24-.14,5.63,2.66-5.27,1.38-4.76,3.3,5.67,1.15,8.25,3.09,3,7.18-11.32,5.81Z" fill="#f4a28c"></path><path d="M213.51,110.25a18.45,18.45,0,0,1,23.55-13.6c14.09,4.38,32.94,16.48,39.72,49.58C286.57,194,212,177.07,212,177.07l.8-7.71s53.17,3.79,37.47-21.27C237.09,127.1,209,131.91,213.51,110.25Z" fill="#f4a28c"></path><path d="M212.77,169.36s-3.91-6.76-6.37-6.25-6.1,1.3-4.87,3.89,5.45.13,5.4,2.11-5.26,2.43-7.33,4.91-1.24,7.67,12.37,3Z" fill="#f4a28c"></path><path d="M191.81,197.44s-8.4,7.75-5.6,11,8.07-6,8.07-6Z" fill="#0070f3"></path><polygon points="313.79 184.67 309.79 246.43 313.79 246.43 322.29 184.67 313.79 184.67" fill="#c9c9c9"></polygon><polygon points="346.79 184.67 350.79 246.43 346.79 246.43 338.29 184.67 346.79 184.67" fill="#c9c9c9"></polygon><rect x="309.79" y="176.77" width="41" height="9.72" fill="#e6e6e6"></rect><rect x="322.29" y="153" width="17.68" height="23.77" fill="#ffd200"></rect><ellipse cx="331.35" cy="164.5" rx="5.29" ry="5.92" opacity="0.08"></ellipse><path d="M325,153s-2.5-8.33,4.16-9.17,15.84.84,12.42-9.16-7.92-7.84-2.92-19.17,18.17,8.83,23-1.83,11.5-7,18.17-1.75,8,21.58-5.17,24.08-15.83,5.35-18.5,12.68S340,153,340,153Z" fill="#e6e6e6"></path><path d="M178.45,93.08s-3.56-8.46,4-11c0,0-3,2-1.51,10.91Z" fill="#ffd200"></path><path d="M198.32,96.77s4-11.08-5.5-14.94c0,0,6.35,4.92,3,14.6Z" fill="#ffd200"></path><path d="M178.45,93.08s-3.56-8.46,4-11c0,0-3,2-1.51,10.91Z" opacity="0.08"></path><path d="M198.32,96.77s4-11.08-5.5-14.94c0,0,6.35,4.92,3,14.6Z" opacity="0.08"></path><path d="M181,93.88s5.19,1,8.6-2.84c0,0,3.56,6.07,6.07,6.24,0,0,1.77-4.16,1.69-6.78s2.95-2.92,1.83-6.13-3.83-4-6.35-2.54c0,0,1.31-2.41-1.11-2.91S182.43,82,182.43,82,178.64,84.63,181,93.88Z" fill="#24285b"></path><path d="M195.79,103.25s-1.5,5.54-6.75,4.11V106s3.73,1.52,5.45-3.62Z" fill="#ffd200"></path><path d="M176.27,93.81c-.77,2.73-.92,7,5.23,7.67L180.92,93a1.55,1.55,0,0,0-1.55-1.45h0A3.21,3.21,0,0,0,176.27,93.81Z" fill="#ffd200"></path><path d="M200.48,97.26c.33,2.81-.18,7-6.36,6.76l1.9-8.34a1.56,1.56,0,0,1,1.75-1.19h0A3.22,3.22,0,0,1,200.48,97.26Z" fill="#ffd200"></path><circle cx="188.24" cy="106.56" r="1.57" fill="#ffd200"></circle><circle cx="188.24" cy="106.56" r="1.57" fill="#fff" opacity="0.46"></circle><ellipse cx="241.37" cy="44.64" rx="33.33" ry="27.74" fill="#24285b"></ellipse><polygon points="218.13 57.31 206.25 77.5 225.79 63 218.13 57.31" fill="#24285b"></polygon><circle cx="228.24" cy="44.64" r="4.11" fill="#0070f3"></circle><circle cx="241.45" cy="44.64" r="4.11" fill="#0070f3"></circle><circle cx="254.5" cy="44.64" r="4.11" fill="#0070f3"></circle><rect x="212.77" y="168.5" width="5.02" height="10.42" transform="translate(13.63 -15.65) rotate(4.3)" fill="#0070f3"></rect><rect x="212.77" y="168.5" width="5.02" height="10.42" transform="translate(13.63 -15.65) rotate(4.3)" fill="#fff" opacity="0.46"></rect></svg>