<?xml version="1.0" encoding="utf-8"?>
<!-- Generator: Adobe Illustrator 24.2.0, SVG Export Plug-In . SVG Version: 6.00 Build 0)  -->
<svg version="1.1" xmlns="http://www.w3.org/2000/svg" xmlns:xlink="http://www.w3.org/1999/xlink" x="0px" y="0px"
	 viewBox="0 0 390 150" style="enable-background:new 0 0 390 150;" xml:space="preserve">
<style type="text/css">
	.st0{fill:none;stroke:#231F20;stroke-width:3.8799;stroke-miterlimit:10;}
</style>
<g id="Layer_1">
	<g>
		<path class="st0" d="M17.4,68.4c0-1.2,1.3-2.2,3-2.2h33.1c1.6,0,3.3-1.3,3.7-2.9l0.6-2.4c0.4-1.6-0.6-2.5-2.1-2l-5.4,1.8
			c-1.6,0.5-2.7-0.4-2.5-2l4.8-38.4c0.2-1.6,1.7-3.2,3.3-3.4l47.9-7c1.6-0.2,2.3,0.8,1.6,2.2L91.6,38.4c-0.8,1.5,0,2.5,1.6,2.2
			l4.2-0.6c1.6-0.2,2.3,0.8,1.6,2.2L90.8,58c-0.8,1.5,0,2.7,1.6,2.7l273,0.4c1.6,0,3,1.2,3,2.6s-1.3,2.6-3,2.6L89.7,65.9
			c-1.6,0-3.5,1.3-4.1,2.8L84.7,71c-0.6,1.5,0.2,2.5,1.9,2.2l8.5-1.9c1.6-0.4,2.2,0.5,1.4,1.9l-42.9,69.9c-0.9,1.4-1.3,1.2-1-0.4
			l9.4-51.2c0.3-1.6-0.7-2.4-2.2-1.8L53,92.4c-1.5,0.6-2.4-0.2-2.1-1.8l4.2-17c0.4-1.6-0.6-2.9-2.3-2.9l-32.5-0.1
			C18.7,70.6,17.4,69.6,17.4,68.4z"/>
	</g>
	<g>
		<g>
			<g>
				<path d="M150.9,51.7c-2.3,1.5-6,2.5-11.1,2.5c-9.6,0-16.1-7-16.1-16.5c0-10.5,7.3-22.1,21.2-22.1c9.1,0,15.8,5.5,15.8,14.8
					c0,6.7-3.2,14.7-11.2,14.7c-2.9,0-4.2-1.2-4.6-3.2c-1.8,2.4-4,3.2-6.3,3.2c-3.4,0-5.6-2.4-5.6-7.2c0-6.4,3.9-13.7,9.8-13.7
					c2.7,0,4.1,1.3,4.4,2.4l0.5-1.9h5.1l-3.1,13.2c-0.5,1.9-0.3,2.9,1.2,2.9c3.7,0,5.7-5.1,5.7-10c0-7.6-5.2-11.1-12-11.1
					c-10.2,0-15.9,8.4-15.9,18.1c0,6.6,4.3,12.3,11.9,12.3c4.1,0,6.9-0.6,9.9-2.1L150.9,51.7z M138.3,37.8c0,2,0.8,3,2.2,3
					c1.7,0,3.7-1.9,4.7-6.1c0.9-4,0.5-6.2-1.7-6.2C140.4,28.5,138.3,33.6,138.3,37.8z"/>
				<path d="M169.8,14.4h6.1l-5.5,25.8h13.4l-1.7,5h-18.8L169.8,14.4z"/>
				<path d="M191.3,21.9h5.9l-4.9,23.3h-5.9L191.3,21.9z M193.3,12.5h5.9l-1.2,5.6h-5.9L193.3,12.5z"/>
				<path d="M218.1,43.3c-1.4,6.4-3.6,11.2-12.2,11.2c-7.4,0-9.1-4.3-8.9-7.7h5.7c0.1,2,1.2,3.2,3.7,3.2c3.9,0,4.9-2.2,5.9-6.6
					l0.3-1.2c-1.6,2.1-3.9,2.8-6.3,2.8c-4.5,0-7.3-3.2-7.3-8.9c0-6.4,4-14.5,11.5-14.5c3.4,0,5.4,1.6,5.8,3.1
					c0.3-1.2,0.5-2.1,0.7-2.6h5.8c-0.4,1.5-0.9,3.8-1.6,7L218.1,43.3z M205.3,35.4c0,2.7,1,4.7,3.6,4.7c3.3,0,5-2.9,5.8-6.5
					c0.8-3.5,0.8-7.2-3.2-7.2C207,26.3,205.3,32.1,205.3,35.4z"/>
				<path d="M236.3,12.5l-2.6,12.3c1.5-1.9,3.6-3.3,6.8-3.3c4.1,0,6.8,2.7,5.5,8.9l-3.1,14.9h-5.9l3.1-14.5c0.5-2.5,0.2-4.4-2.6-4.4
					c-2.9,0-4.5,2.2-5.3,6l-2.7,12.9h-5.9l6.9-32.7H236.3z"/>
				<path d="M250.6,21.9h3.6l1.4-6.3h5.7l-1.4,6.3h4.2l-1,4.6h-4.2l-2.7,12.3c-0.3,1.6-0.1,2.3,1.8,2.3c0.7,0,1.5-0.2,2.2-0.2
					l-0.9,4.1c-1.3,0.5-3.1,0.6-3.9,0.6c-4.4,0-6.1-1.8-5.2-6.2l2.8-12.7h-3.5L250.6,21.9z"/>
				<path d="M266.1,29.2c1-4.8,1.3-6.3,1.4-7.3h5.8c-0.1,0.5-0.2,1.6-0.4,2.9c1.2-1.7,3.1-3.4,6.5-3.4c4.8,0,7,3.2,5.8,8.5L282,45.2
					h-6l3-14.1c0.6-2.6,0.3-4.6-2.5-4.6c-2.6,0-4.3,1.6-5.2,5.7l-2.7,13h-5.9L266.1,29.2z"/>
				<path d="M292.6,21.9h5.9l-4.9,23.3h-5.9L292.6,21.9z M294.6,12.5h5.9l-1.2,5.6h-5.9L294.6,12.5z"/>
				<path d="M302.8,29.2c1-4.8,1.3-6.3,1.4-7.3h5.8c-0.1,0.5-0.2,1.6-0.4,2.9c1.2-1.7,3.1-3.4,6.5-3.4c4.8,0,7,3.2,5.8,8.5
					l-3.2,15.2h-6l3-14.1c0.6-2.6,0.3-4.6-2.5-4.6c-2.6,0-4.3,1.6-5.2,5.7l-2.7,13h-5.9L302.8,29.2z"/>
				<path d="M344.4,43.3c-1.4,6.4-3.6,11.2-12.2,11.2c-7.4,0-9.1-4.3-8.9-7.7h5.7c0.1,2,1.2,3.2,3.7,3.2c3.9,0,4.9-2.2,5.9-6.6
					l0.3-1.2c-1.6,2.1-3.9,2.8-6.3,2.8c-4.5,0-7.3-3.2-7.3-8.9c0-6.4,4-14.5,11.5-14.5c3.4,0,5.4,1.6,5.8,3.1
					c0.3-1.2,0.5-2.1,0.7-2.6h5.8c-0.4,1.5-0.9,3.8-1.6,7L344.4,43.3z M331.6,35.4c0,2.7,1,4.7,3.6,4.7c3.3,0,5-2.9,5.8-6.5
					c0.8-3.5,0.8-7.2-3.2-7.2C333.3,26.3,331.6,32.1,331.6,35.4z"/>
			</g>
		</g>
	</g>
</g>
<g id="_x3C_Layer_x3E_">
	<g>
		<g>
			<g>
				<path d="M141.6,86.6h-12.9l1.7-8h35.7l-1.7,8h-12.9l-8.7,41.3h-9.9L141.6,86.6z"/>
				<path d="M169.2,90.6h9.5l-7.9,37.3h-9.5L169.2,90.6z M172.3,75.5h9.5l-1.9,9h-9.5L172.3,75.5z"/>
				<path d="M190.2,123.9l-3.9,18.3h-9.5l8.7-40.8c1.1-5,1.9-9,2.2-10.8h9.3c-0.1,1.2-0.5,3.2-0.8,4.8c1.8-2.8,5-5.5,10.5-5.5
					c7.3,0,11.4,5.2,11.4,13.6c0,10.6-5.7,25-19.1,25C194.3,128.5,191.4,126.7,190.2,123.9z M208.2,104.9c0-5.1-1.7-7.3-5.6-7.3
					c-5.5,0-8.3,4.9-9.7,11.8c-1.5,7.7,0,11.6,5.3,11.6C205.7,120.9,208.2,109.6,208.2,104.9z"/>
				<path d="M232.3,78.5h15.1c11,0,15.3,5.6,15.3,12.1c0,5.9-3.5,9.8-8.4,11.5c2.7,1.3,6.4,4.3,6.4,9.9c0,8.9-7.2,15.8-18.5,15.8
					h-20.3L232.3,78.5z M232.9,120.5h7.7c5.9,0,10-2.9,10-8.3c0-4.6-2.7-6.8-8.3-6.8h-6.3L232.9,120.5z M244.4,98.1
					c5.5,0,8.6-2.2,8.6-6.7c0-3.9-2.7-5.4-6.7-5.4h-6l-2.6,12.1H244.4z"/>
				<path d="M301.4,104.4c0,10.9-5.7,24.2-20.4,24.2c-10.4,0-14.7-6.3-14.7-15c0-9.6,5.7-23.7,20.6-23.7
					C296.9,89.9,301.4,96.2,301.4,104.4z M276.2,113.5c0,4.8,1.7,7.4,5.7,7.4c7.2,0,9.9-10.5,9.9-16.5c0-4.8-1.8-7-5.8-7
					C279,97.5,276.2,107.1,276.2,113.5z"/>
				<path d="M307.6,90.6h5.7l2.3-10.1h9.1l-2.2,10.1h6.7l-1.6,7.3h-6.7l-4.3,19.7c-0.5,2.6-0.1,3.6,2.8,3.6c1.1,0,2.5-0.3,3.5-0.4
					l-1.4,6.5c-2.1,0.8-4.9,0.9-6.2,0.9c-7,0-9.8-2.9-8.3-10l4.5-20.4H306L307.6,90.6z"/>
			</g>
		</g>
	</g>
</g>
</svg>
