<?xml version="1.0" encoding="UTF-8"?>
<svg id="Ebene_1" data-name="Ebene 1" xmlns="http://www.w3.org/2000/svg" version="1.1" viewBox="0 0 588.8 358.1">
  <defs>
    <style>
      .cls-1 {
        fill: #001f3a;
        stroke-width: 0px;
      }
    </style>
  </defs>
  <rect class="cls-1" x="50" y="50" width="39.1" height="210.9"/>
  <circle class="cls-1" cx="142.2" cy="65.2" r="24.7"/>
  <rect class="cls-1" x="122.6" y="107.5" width="39.1" height="153.4"/>
  <path class="cls-1" d="M280.1,103.7c-17.6,0-34.5,6.6-46.3,21v-18.1h-38.9v211.1h38.9v-75.1c11.5,14,28.6,21,46.3,21,40.6,0,75.9-28.9,75.9-79.7s-35.3-80-75.9-80ZM276.3,228.1c-24.8,0-42.7-19.9-42.7-44.7s17.9-44.5,42.7-44.5,40.4,19.7,40.4,44.5-15.6,44.7-40.4,44.7Z"/>
  <path class="cls-1" d="M500,107v17.9c-11.8-14.3-28.6-21.2-46.3-21.2-40.6,0-75.9,29.1-75.9,80s35.3,79.7,75.9,79.7,34.8-6.6,46.3-21v17.9h38.9V107h-38.9ZM457.6,228.1c-24.8,0-40.4-19.9-40.4-44.5s15.6-44.7,40.4-44.7,42.7,19.9,42.7,44.7-17.9,44.5-42.7,44.5Z"/>
</svg>