<?xml version="1.0" encoding="utf-8"?>
<!-- Generator: Adobe Illustrator 17.0.0, SVG Export Plug-In . SVG Version: 6.00 Build 0)  -->
<!DOCTYPE svg PUBLIC "-//W3C//DTD SVG 1.1//EN" "http://www.w3.org/Graphics/SVG/1.1/DTD/svg11.dtd">
<svg version="1.1" xmlns="http://www.w3.org/2000/svg" xmlns:xlink="http://www.w3.org/1999/xlink" x="0px" y="0px"
	 width="2631.611px" height="943.795px" viewBox="0 0 2631.611 943.795" enable-background="new 0 0 2631.611 943.795"
	 xml:space="preserve">
<g id="Squares" display="none">
	<g display="inline">
		
			<rect x="364.553" y="464.437" fill="none" stroke="#E5E5E5" stroke-width="1.7004" stroke-miterlimit="10" width="943.795" height="943.795"/>
		
			<rect x="1308.348" y="464.437" fill="none" stroke="#E5E5E5" stroke-width="1.7004" stroke-miterlimit="10" width="943.795" height="943.795"/>
		
			<rect x="2252.143" y="464.437" fill="none" stroke="#E5E5E5" stroke-width="1.7004" stroke-miterlimit="10" width="943.795" height="943.795"/>
		
			<rect x="1308.348" y="464.437" fill="none" stroke="#E5E5E5" stroke-width="0.8502" stroke-miterlimit="10" width="471.897" height="471.897"/>
	</g>
</g>
<g id="Background" display="none">
	<rect x="0" y="0" display="inline" fill="#FFFFFF" width="3560.491" height="1872.669"/>
</g>
<g id="Layer_1">
	<g display="none">
		<path display="inline" fill="#3E3E3E" d="M1308.378,464.44h35.009l98.792,166.892l98.792-166.892h35.009v311.724h-32.131V520.55
			l-101.67,172.647l-101.67-172.647v255.613h-32.131V464.44z"/>
		<path display="inline" fill="#3E3E3E" d="M1636.403,464.44h30.214v71.937h97.833v28.775h-97.833v130.924
			c0,33.57,11.989,48.437,31.172,53.233c6.714,1.438,14.387,1.918,22.54,1.438c19.662-0.959,36.448-8.152,48.437-20.622
			c3.836,9.112,7.673,17.265,11.51,26.377c-17.744,15.346-41.243,23.979-67.62,23.979c-43.162,0-76.253-22.54-76.253-84.885V464.44z
			"/>
	</g>
	<g>
		<path fill="#59C7F2" d="M544.249,0.004c0-0.001,0-0.003,0-0.003L471.98,0c0,0,0,0.002,0,0.004
			c0,109.233-87.637,197.984-196.434,199.812c-1.141-0.014-2.278-0.043-3.422-0.043c-1.144,0-2.281,0.029-3.422,0.043
			C159.905,197.987,72.269,109.236,72.269,0.004c0-0.001,0-0.003,0-0.003L0,0c0,0,0,0.002,0,0.004
			C0,100.892,54.904,188.955,136.462,235.95C54.904,282.945,0,371.008,0,471.897c0,100.89,54.905,188.953,136.463,235.948
			C54.905,754.838,0,842.902,0,943.791c0,0.001,0,0.003,0,0.004h72.269c0-0.001,0-0.002,0-0.004
			c0-109.256,87.674-198.022,196.504-199.813c1.117,0.013,2.231,0.042,3.352,0.042c1.121,0,2.234-0.029,3.352-0.042
			c108.83,1.791,196.504,90.557,196.504,199.813c0,0.001,0,0.003,0,0.004h72.269c0-0.001,0-0.002,0-0.004
			c0-100.889-54.905-188.953-136.463-235.947c81.559-46.995,136.463-135.058,136.463-235.948
			c0-100.889-54.904-188.952-136.462-235.947C489.344,188.955,544.249,100.892,544.249,0.004z M471.98,471.897
			c0,109.256-87.674,198.022-196.504,199.813c-1.117-0.013-2.231-0.042-3.352-0.042c-1.121,0-2.234,0.029-3.352,0.042
			c-108.83-1.791-196.504-90.557-196.504-199.813c0-109.233,87.637-197.984,196.434-199.812c1.141,0.014,2.278,0.043,3.422,0.043
			c1.144,0,2.281-0.029,3.422-0.043C384.343,273.913,471.98,362.663,471.98,471.897z"/>
		<path fill="#3E3E3E" d="M901.229,472.924c120.034,0,165.764,57.879,165.764,137.189s-45.73,137.189-165.764,137.189H791.903
			v190.062h-47.868V472.924H901.229z M791.903,517.221v185.777h109.326c87.88,0,117.896-37.152,117.896-92.885
			c0-56.445-30.016-92.892-117.896-92.892H791.903z"/>
		<path fill="#3E3E3E" d="M1399.203,777.31h-234.366v2.859c0,85.028,43.591,120.755,109.326,120.755
			c43.576,0,80.023-15.008,103.608-32.155l17.139,39.299c-33.58,22.865-75.018,35.727-120.747,35.727
			c-93.613,0-155.769-51.448-155.769-173.628v-22.865c0-123.614,56.453-174.349,140.04-174.349
			c83.603,0,140.768,50.735,140.768,174.349V777.31z M1164.838,740.158h187.923v-4.292c0-87.167-38.586-120.034-94.326-120.034
			c-55.012,0-93.598,32.868-93.598,120.034V740.158z"/>
		<path fill="#3E3E3E" d="M1469.914,437.198h45.017v395.845c0,50.735,18.58,67.881,45.73,67.881c18.58,0,29.288-5.005,40.724-12.862
			l16.441,39.299c-16.441,10.716-35.734,16.434-61.458,16.434c-48.581,0-86.454-29.296-86.454-111.465V437.198z"/>
		<path fill="#3E3E3E" d="M1922.174,777.31h-234.366v2.859c0,85.028,43.591,120.755,109.326,120.755
			c43.576,0,80.023-15.008,103.608-32.155l17.139,39.299c-33.581,22.865-75.018,35.727-120.747,35.727
			c-93.613,0-155.769-51.448-155.769-173.628v-22.865c0-123.614,56.453-174.349,140.04-174.349
			c83.602,0,140.768,50.735,140.768,174.349V777.31z M1687.808,740.158h187.923v-4.292c0-87.167-38.586-120.034-94.326-120.034
			c-55.012,0-93.598,32.868-93.598,120.034V740.158z"/>
		<path fill="#3E3E3E" d="M1989.304,601.536c21.447-12.862,61.458-28.583,110.752-28.583c27.15,0,51.448,5.005,70.74,15.008
			l-19.293,40.011c-13.575-7.857-30.001-12.141-51.448-12.141c-29.288,0-52.16,9.282-65.735,15v306.532h-45.017V601.536z"/>
		<path fill="#3E3E3E" d="M2238.641,434.339c17.139,0,30.001,12.862,30.001,30.721c0,16.434-12.862,30.016-30.001,30.016
			c-17.154,0-30.729-13.582-30.729-30.016C2207.912,447.201,2221.486,434.339,2238.641,434.339z M2215.768,580.104h45.017v357.259
			h-45.017V580.104z"/>
		<path fill="#3E3E3E" d="M2351.516,601.536c24.298-13.575,65.022-28.583,125.04-28.583c90.033,0,155.056,50.022,155.056,175.774
			v188.636h-45.017V746.589c0-97.89-45.017-130.758-112.178-130.758c-36.447,0-58.592,7.144-77.884,15v306.532h-45.017V601.536z"/>
		<g>
			<path fill="#3E3E3E" d="M743.992,0.003h43.117l89.942,152.067L966.529,0.003h43.117v301.352h-39.871V70.472L877.05,229.493
				L783.863,70.472v230.882h-39.872V0.003z"/>
			<path fill="#3E3E3E" d="M1068.059,0.003h38.017v69.542h92.724v36.162h-92.724v116.369c0,30.135,11.591,42.652,29.672,45.898
				c6.954,0.927,14.835,0.927,22.254,0c18.081-1.391,33.844-7.882,44.971-18.545c4.172,11.127,8.345,21.79,12.981,32.917
				c-18.545,15.299-42.652,23.181-69.542,23.181c-44.971,0-78.352-21.791-78.352-83.451V0.003z"/>
		</g>
	</g>
	<g display="none">
		<path display="inline" fill="#3E3E3E" d="M1308.348,464.437h49.937l82.327,139.461l81.877-139.461h49.936v292.418h-46.786v-210.54
			l-85.026,148.008l-85.476-148.008v210.54h-46.787V464.437z"/>
		<path display="inline" fill="#3E3E3E" d="M1629.109,464.437h44.988v67.481h88.175v42.289h-88.175v104.37
			c0,26.543,11.247,36.89,28.342,39.139c7.198,0.9,14.846,0.45,22.044-0.9c16.645-2.249,31.041-8.097,41.388-17.095
			c4.949,13.045,9.898,25.642,14.396,38.689c-18.895,14.846-43.188,22.494-71.081,22.494c-45.886,0-80.078-21.594-80.078-82.777
			V464.437z"/>
	</g>
</g>
<g id="Mt_Variant" display="none">
	<rect x="1066.302" y="488.016" display="inline" fill="#FFFFFF" width="602" height="472"/>
	<g display="inline">
		<path fill="#3E3E3E" d="M1136.728,559.136h36.978l104.342,176.276L1382.4,559.136h36.978v329.251h-33.935V618.399
			l-107.396,182.357l-107.385-182.357v269.989h-33.935V559.136z"/>
		<path fill="#3E3E3E" d="M1483.162,559.136h26.341v62.716h85.29v25.086h-85.29v114.138c0,29.27,10.455,42.232,27.176,46.412
			c5.849,1.251,12.541,1.673,19.649,1.251c17.147-0.834,31.773-7.104,42.228-17.977c3.346,7.943,6.692,15.052,10.038,22.995
			c-15.469,13.379-35.962,20.905-58.957,20.905c-37.63,0-66.475-19.649-66.475-74.005V559.136z"/>
	</g>
</g>
</svg>
