<svg id="mash" data-name="mash" xmlns="http://www.w3.org/2000/svg" viewBox="219.17 217.25 1690.83 428"><defs><style>.cls-1{fill:#fd5e68;}.cls-2{fill:#0188b5;}.cls-3{fill:#fff;}</style></defs><path d="M1288.13,323.37H1323L1417.26,541h-39.78l-21.73-52.16h-92.83a12.78,12.78,0,0,0-11.76,7.84L1232.44,541h-38.55Zm49.69,122.05L1305,368.74l-36.72,86.41h63.24A7,7,0,0,0,1337.82,445.42Z"></path><path d="M1732.57,324.91h37.63v89.81h93.62a8.61,8.61,0,0,0,8.58-8.65V324.91H1910V541H1872.4v-91h-93.61a8.62,8.62,0,0,0-8.59,8.66V541h-37.63Z"></path><path d="M1563.74,548c-19.64,0-36.1-6-48.94-17.72-12.62-11.75-20.59-28.45-23.71-49.66l-.23-1.59,37.37-8.31s4.31,23.58,7.94,28.34l0,0c6.63,9.28,16.06,13.8,28.83,13.8,9.94,0,18.29-3.4,24.83-10.09s9.86-15.32,9.86-25.63a36.31,36.31,0,0,0-1.71-11.43,28.75,28.75,0,0,0-5.29-9.45,43.46,43.46,0,0,0-9.49-8.23,93.45,93.45,0,0,0-14.13-7.48l-21.42-9c-31-13.21-46.68-32.89-46.68-58.5,0-17.28,6.64-31.93,19.72-43.54S1550.15,312,1569.49,312c26.16,0,46.85,13,61.5,38.61l.85,1.48-30.16,18-.86-1.52c-4.91-8.59-9.6-14.24-13.92-16.79l-.06,0c-4.49-2.9-10.43-4.37-17.64-4.37-8.84,0-16.26,2.54-22,7.56a23,23,0,0,0-8.61,18.43c0,10.11,7.78,18.46,23.11,24.82l22.16,9.14c18.23,7.44,31.78,16.67,40.27,27.45S1637,459.14,1637,474.85c0,21-7,38.61-21,52.33S1584.45,548,1563.74,548Z"></path><polygon points="1119.12 541.47 1093.31 323.49 1057.83 323.49 1051.38 323.49 986.87 427.6 922.36 323.49 915.91 323.49 880.43 323.49 854.63 541.47 890.11 541.47 910.38 370.18 986.87 489.41 1063.36 370.18 1083.64 541.47 1119.12 541.47"></polygon><circle cx="433.17" cy="431.25" r="214"></circle><path class="cls-1" d="M431.21,377.1a51.75,51.75,0,0,0-51.75,51.76V535.57c0,.51,0,1,0,1.52.57,12,9.42,22,21.12,25a135.06,135.06,0,0,0,33.75,4.05C507.92,565.65,568,505.56,568.46,432a135.06,135.06,0,0,0-4.05-33.75c-2.93-11.7-12.91-20.55-25-21.12C539,377.12,431.21,377.1,431.21,377.1Z"></path><path class="cls-2" d="M298.63,428.61a135.26,135.26,0,0,0,4.59,37.66,26.84,26.84,0,0,0,24.44,20c.49,0,1,0,1.48,0H435.85A51.75,51.75,0,0,0,487.6,434.5V327.79c0-.51,0-1,0-1.51a28.68,28.68,0,0,0-22-26.2,135.2,135.2,0,0,0-34.36-3.81C358.89,297.49,300,356.31,298.63,428.61Z"></path><path class="cls-3" d="M431.21,377.1a51.75,51.75,0,0,0-51.75,51.75v57.41h56.39A51.75,51.75,0,0,0,487.6,434.5V377.1Z"></path></svg>
