<svg width="1536" height="335" viewBox="0 0 1536 335" fill="none" xmlns="http://www.w3.org/2000/svg">
<path fill-rule="evenodd" clip-rule="evenodd" d="M101.959 225.517H0V146.192C0 65.5844 65.2131 0 145.373 0H226.049V102.483H328.001V181.808C328.001 262.423 262.788 328 182.628 328H101.959V225.517ZM225.663 102.921H145.373C121.648 102.921 102.345 122.33 102.345 146.192V225.079H182.635C206.36 225.079 225.663 205.67 225.663 181.808V102.921Z" fill="#DA30F8"/>
<path d="M455 327.881H516.579V77.8875H518.674L601.617 327.881H657.332L740.275 77.8875H742.37V327.881H803.949V0H711.37L630.522 248.319H628.846L547.159 0H455V327.881Z" fill="#21212D"/>
<path d="M917.659 335C952.009 335 977.981 322.856 990.967 303.175H993.062V304.85C993.062 320.344 1003.95 327.881 1022.39 327.881H1068.88V271.769H1052.55C1044.59 271.769 1043.33 269.256 1043.33 258.788V164.569C1043.33 110.969 1012.33 86.6813 945.725 86.6813C880.795 86.6813 845.607 113.063 843.094 164.569H903.416C905.51 143.631 917.659 134.419 945.725 134.419C970.86 134.419 983.846 143.631 983.846 161.219C983.846 179.225 970.022 184.669 922.686 190.113C865.714 196.394 835.553 220.681 835.553 262.556C835.553 308.619 866.971 335 917.659 335ZM895.876 262.138C895.876 242.875 906.767 234.081 935.253 229.894C959.13 226.544 973.792 221.938 983.846 214.4V244.969C983.846 271.35 962.063 288.519 931.902 288.519C908.862 288.519 895.876 279.306 895.876 262.138Z" fill="#21212D"/>
<path d="M1188.43 335C1257.97 335 1290.64 304.013 1290.64 256.694C1290.64 219.006 1269.7 198.906 1220.27 188.856L1188.85 182.156C1157.43 175.456 1144.86 169.175 1144.86 154.519C1144.86 139.025 1160.78 131.488 1185.08 131.488C1210.63 131.488 1225.71 141.119 1228.64 164.569H1288.97C1286.03 114.319 1251.27 87.1 1187.17 87.1C1122.66 87.1 1087.05 114.319 1087.05 159.963C1087.05 198.488 1111.35 221.519 1159.94 230.313L1202.25 237.85C1223.2 241.619 1231.16 249.156 1231.16 262.138C1231.16 278.469 1219.43 289.775 1190.94 289.775C1160.78 289.775 1148.21 276.794 1145.7 255.856H1084.12C1086.63 306.525 1121.4 335 1188.43 335Z" fill="#21212D"/>
<path d="M1321.94 327.881H1381.84V203.094C1381.84 164.15 1401.11 141.956 1434.62 141.956C1462.69 141.956 1476.52 157.45 1476.52 190.113V327.881H1536V169.175C1536 117.669 1506.26 87.1 1456.83 87.1C1421.22 87.1 1397.76 102.594 1383.94 126.044H1381.84V0H1321.94V327.881Z" fill="#21212D"/>
</svg>
