<svg xmlns="http://www.w3.org/2000/svg" xmlns:xlink="http://www.w3.org/1999/xlink" viewBox="0 0 427.62 128.91"><defs><style>.cls-1{fill:url(#linear-gradient);}.cls-2{fill:url(#linear-gradient-2);}.cls-3{fill:url(#linear-gradient-3);}.cls-4{fill:#110c23;}</style><linearGradient id="linear-gradient" x1="12.32" y1="184.39" x2="-4.87" y2="105.86" gradientTransform="translate(39.33 -58.04) rotate(1.98)" gradientUnits="userSpaceOnUse"><stop offset="0" stop-color="#7134ff"/><stop offset="1" stop-color="#ff3176"/></linearGradient><linearGradient id="linear-gradient-2" x1="110.95" y1="135.11" x2="136.07" y2="68.61" gradientTransform="translate(39.33 -58.04) rotate(1.98)" gradientUnits="userSpaceOnUse"><stop offset="0" stop-color="#ff9947"/><stop offset="0.2" stop-color="#ff9f42"/><stop offset="0.47" stop-color="#ffaf35"/><stop offset="0.77" stop-color="#ffca1f"/><stop offset="1" stop-color="#ffe409"/></linearGradient><linearGradient id="linear-gradient-3" x1="4.24" y1="92.93" x2="96.77" y2="153.09" gradientTransform="translate(39.33 -58.04) rotate(1.98)" gradientUnits="userSpaceOnUse"><stop offset="0" stop-color="#ff3176"/><stop offset="0.17" stop-color="#ff3674"/><stop offset="0.38" stop-color="#ff446d"/><stop offset="0.6" stop-color="#ff5c62"/><stop offset="0.84" stop-color="#ff7d53"/><stop offset="1" stop-color="#ff9947"/></linearGradient></defs><g id="Layer_2" data-name="Layer 2"><g id="Layer_1-2" data-name="Layer 1"><path class="cls-1" d="M32,128.9A25.1,25.1,0,0,1,8.42,109.64C-7.35,43.45,2.3,22.05,10.92,11.7A31.55,31.55,0,0,1,36.88,0,25.09,25.09,0,0,1,50.4,45.3c-.61,6.54-.5,22,6.83,52.71A25.13,25.13,0,0,1,32,128.9Z"/><path class="cls-2" d="M131.4,121.31c-.69,0-1.37-.06-2.06-.11a25.09,25.09,0,0,1,.84-50.08c2-3.58,6.12-14.35,7.09-42.53a25.09,25.09,0,1,1,50.15,1.73c-1.42,41.06-9,65.62-24.73,79.66A43.73,43.73,0,0,1,131.4,121.31Z"/><path class="cls-3" d="M126,121.12l-1.07-.06c-32.38-2.48-59.72-32.18-81.69-56-5.18-5.63-12-13.09-15.59-16.09A25.09,25.09,0,0,1,36.37,0l.48,0C52.4.87,63.44,12.87,80.15,31c8.8,9.55,18.76,20.38,28.64,28.59,11.81,9.82,17.9,11.25,20,11.41A25.09,25.09,0,0,1,126,121.12Zm-91.86-71h0Z"/><path class="cls-4" d="M227.86,51.94v5.82a16.37,16.37,0,0,1,13.75-7.51c9.7,0,16.28,7.51,16.28,17.89v27H245.24V70.33c0-5.23-3-8.94-8-8.94a9.08,9.08,0,0,0-9,9.45V95.13H215.54V51.94Z"/><path class="cls-4" d="M309.9,73.54c0,13.75-9.78,23.28-24,23.28s-24-9.53-24-23.28,9.79-23.29,24-23.29S309.9,59.7,309.9,73.54Zm-12.74,0c0-7.09-4.64-12.15-11.3-12.15s-11.22,5.06-11.22,12.15,4.64,12.15,11.22,12.15S297.16,80.62,297.16,73.54Z"/><path class="cls-4" d="M349.49,51.94h12.65V95.13H349.49v-6a17.52,17.52,0,0,1-14.68,7.68c-12.15,0-20.67-9.62-20.67-23.28s8.52-23.29,20.67-23.29a17.52,17.52,0,0,1,14.68,7.68Zm-.09,21.6c0-7-4.72-12.15-11.3-12.15s-11.31,5.14-11.31,12.15,4.73,12.15,11.31,12.15S349.4,80.54,349.4,73.54Z"/><path class="cls-4" d="M379.1,32.54V56.83a16,16,0,0,1,13.24-6.58c10,0,16.45,7.26,16.45,17.47V95.13H396.14V70.33c0-5.23-3-8.86-8.1-8.94-4.89,0-8.94,4-8.94,9.45V95.13H366.44V32.54Z"/><path class="cls-4" d="M412.94,89.31a7,7,0,0,1,7.34-7.08c4.3,0,7.34,3,7.34,7.08a7.34,7.34,0,0,1-14.68,0Z"/></g></g></svg>