<svg width="236" height="43" viewBox="0 0 236 43" fill="none" xmlns="http://www.w3.org/2000/svg">
<path d="M61.05 29.288C60.138 29.288 59.266 29.192 58.434 29C57.602 28.792 56.866 28.48 56.226 28.064C55.586 27.632 55.082 27.104 54.714 26.48C54.346 25.84 54.162 25.088 54.162 24.224C54.162 24.128 54.162 24.032 54.162 23.936C54.178 23.84 54.186 23.768 54.186 23.72H57.33C57.33 23.752 57.322 23.816 57.306 23.912C57.306 23.992 57.306 24.064 57.306 24.128C57.306 24.656 57.458 25.112 57.762 25.496C58.066 25.864 58.506 26.152 59.082 26.36C59.658 26.552 60.338 26.648 61.122 26.648C61.65 26.648 62.114 26.616 62.514 26.552C62.93 26.488 63.282 26.4 63.57 26.288C63.874 26.16 64.122 26.016 64.314 25.856C64.506 25.68 64.642 25.488 64.722 25.28C64.818 25.072 64.866 24.848 64.866 24.608C64.866 24.144 64.722 23.76 64.434 23.456C64.146 23.152 63.754 22.896 63.258 22.688C62.778 22.48 62.226 22.296 61.602 22.136C60.994 21.96 60.362 21.784 59.706 21.608C59.066 21.432 58.434 21.224 57.81 20.984C57.202 20.728 56.65 20.424 56.154 20.072C55.674 19.72 55.29 19.28 55.002 18.752C54.714 18.208 54.57 17.56 54.57 16.808C54.57 16.04 54.73 15.368 55.05 14.792C55.386 14.216 55.85 13.744 56.442 13.376C57.05 12.992 57.754 12.712 58.554 12.536C59.354 12.344 60.226 12.248 61.17 12.248C62.05 12.248 62.874 12.344 63.642 12.536C64.426 12.712 65.114 13 65.706 13.4C66.298 13.784 66.762 14.28 67.098 14.888C67.434 15.48 67.602 16.192 67.602 17.024V17.312H64.506V17.072C64.506 16.608 64.362 16.216 64.074 15.896C63.802 15.576 63.41 15.328 62.898 15.152C62.402 14.976 61.818 14.888 61.146 14.888C60.426 14.888 59.81 14.96 59.298 15.104C58.786 15.232 58.394 15.432 58.122 15.704C57.85 15.96 57.714 16.28 57.714 16.664C57.714 17.064 57.858 17.4 58.146 17.672C58.434 17.944 58.818 18.176 59.298 18.368C59.794 18.56 60.346 18.736 60.954 18.896C61.578 19.056 62.21 19.232 62.85 19.424C63.506 19.6 64.138 19.808 64.746 20.048C65.37 20.288 65.922 20.592 66.402 20.96C66.898 21.312 67.29 21.752 67.578 22.28C67.866 22.808 68.01 23.44 68.01 24.176C68.01 25.408 67.706 26.4 67.098 27.152C66.506 27.904 65.682 28.448 64.626 28.784C63.586 29.12 62.394 29.288 61.05 29.288ZM70.9138 29V12.536H79.1698C80.3858 12.536 81.3858 12.752 82.1698 13.184C82.9698 13.616 83.5698 14.224 83.9698 15.008C84.3698 15.792 84.5698 16.728 84.5698 17.816C84.5698 18.888 84.3618 19.824 83.9458 20.624C83.5298 21.424 82.9058 22.048 82.0738 22.496C81.2578 22.928 80.2338 23.144 79.0018 23.144H74.0338V29H70.9138ZM74.0338 20.48H78.9058C79.7058 20.48 80.3218 20.248 80.7538 19.784C81.2018 19.304 81.4258 18.648 81.4258 17.816C81.4258 17.256 81.3298 16.784 81.1378 16.4C80.9458 16.016 80.6658 15.72 80.2978 15.512C79.9298 15.304 79.4658 15.2 78.9058 15.2H74.0338V20.48ZM84.0927 29L90.5007 12.536H94.4367L100.869 29H97.4847L96.1647 25.496H88.6287L87.3087 29H84.0927ZM89.6127 22.856H95.1567L93.5007 18.392C93.4367 18.232 93.3567 18.032 93.2607 17.792C93.1807 17.536 93.0927 17.264 92.9967 16.976C92.9007 16.672 92.8047 16.368 92.7087 16.064C92.6127 15.76 92.5247 15.488 92.4447 15.248H92.3247C92.2287 15.568 92.1087 15.936 91.9647 16.352C91.8367 16.768 91.7087 17.16 91.5807 17.528C91.4527 17.896 91.3487 18.184 91.2687 18.392L89.6127 22.856ZM102.812 29V12.536H111.476C112.692 12.536 113.7 12.744 114.5 13.16C115.3 13.576 115.9 14.168 116.3 14.936C116.7 15.704 116.9 16.608 116.9 17.648C116.9 18.72 116.66 19.672 116.18 20.504C115.7 21.32 114.996 21.936 114.068 22.352L117.476 29H114.068L111.044 22.88H105.932V29H102.812ZM105.932 20.264H111.236C112.036 20.264 112.652 20.032 113.084 19.568C113.516 19.104 113.732 18.464 113.732 17.648C113.732 17.12 113.636 16.68 113.444 16.328C113.252 15.96 112.972 15.68 112.604 15.488C112.236 15.296 111.78 15.2 111.236 15.2H105.932V20.264ZM120.015 29V12.536H123.135V20.168L130.431 12.536H134.247L127.863 19.208L134.367 29H130.671L125.751 21.392L123.135 23.696V29H120.015ZM143.192 29L138.728 12.536H142.04L144.704 23.12C144.752 23.28 144.8 23.504 144.848 23.792C144.896 24.064 144.944 24.352 144.992 24.656C145.04 24.96 145.08 25.232 145.112 25.472H145.232C145.264 25.28 145.288 25.072 145.304 24.848C145.336 24.624 145.368 24.4 145.4 24.176C145.448 23.952 145.488 23.752 145.52 23.576C145.552 23.384 145.576 23.232 145.592 23.12L148.064 12.536H152.072L154.544 23.12C154.592 23.28 154.64 23.504 154.688 23.792C154.736 24.064 154.784 24.352 154.832 24.656C154.88 24.96 154.92 25.232 154.952 25.472H155.072C155.104 25.296 155.136 25.104 155.168 24.896C155.216 24.672 155.256 24.456 155.288 24.248C155.336 24.024 155.384 23.816 155.432 23.624C155.48 23.432 155.52 23.264 155.552 23.12L158.216 12.536H161.144L156.656 29H153.08L150.416 18.2C150.368 17.976 150.312 17.72 150.248 17.432C150.2 17.128 150.152 16.832 150.104 16.544C150.072 16.24 150.04 15.976 150.008 15.752H149.912C149.896 15.992 149.864 16.272 149.816 16.592C149.784 16.896 149.744 17.192 149.696 17.48C149.648 17.768 149.6 18.008 149.552 18.2L146.912 29H143.192ZM160.663 29L167.071 12.536H171.007L177.439 29H174.055L172.735 25.496H165.199L163.879 29H160.663ZM166.183 22.856H171.727L170.071 18.392C170.007 18.232 169.927 18.032 169.831 17.792C169.751 17.536 169.663 17.264 169.567 16.976C169.471 16.672 169.375 16.368 169.279 16.064C169.183 15.76 169.095 15.488 169.015 15.248H168.895C168.799 15.568 168.679 15.936 168.535 16.352C168.407 16.768 168.279 17.16 168.151 17.528C168.023 17.896 167.919 18.184 167.839 18.392L166.183 22.856ZM179.383 29V12.536H182.503V26.288H190.759V29H179.383ZM193.07 29V12.536H196.19V26.288H204.446V29H193.07ZM206.758 29V12.536H219.598V15.2H209.878V19.256H218.542V21.92H209.878V26.336H219.742V29H206.758ZM226.915 29V15.224H221.659V12.536H235.315V15.224H230.035V29H226.915Z" fill="url(#paint0_linear_5065_3500)"/>
<circle cx="21.5" cy="21.5" r="21.5" fill="black"/>
<mask id="mask0_5065_3500" style="mask-type:alpha" maskUnits="userSpaceOnUse" x="15" y="8" width="14" height="27">
<path d="M28.8271 8C28.8271 8 18.4933 12.1702 17.518 12.766C16.5427 13.3617 16.1354 14.1004 17.1279 14.5532L23.9553 17.3333L28.8271 15.3475V8Z" fill="white"/>
<path d="M15.2842 34.9631C15.2842 34.9631 25.6698 30.7321 26.6481 30.1325C27.6264 29.5328 28.0303 28.797 27.0249 28.3577L20.1114 25.6678L15.2154 27.682L15.2842 34.9631Z" fill="white"/>
<path d="M15.7887 14.9876C15.3622 14.7903 15.2072 14.6555 15 14.395V21.7037C15.0116 21.9434 15.0541 22.0763 15.3944 22.2963L28.4085 27.6296C28.7157 27.7963 28.8355 27.9349 29 28.2222V20.9135C28.8763 20.6099 28.7764 20.4591 28.4085 20.3209L15.7887 14.9876Z" fill="white"/>
</mask>
<g mask="url(#mask0_5065_3500)">
<rect x="42.4153" y="18.8188" width="30.544" height="29.2188" transform="rotate(129.58 42.4153 18.8188)" fill="url(#paint1_linear_5065_3500)"/>
</g>
<defs>
<linearGradient id="paint0_linear_5065_3500" x1="53" y1="9" x2="234.921" y2="39.445" gradientUnits="userSpaceOnUse">
<stop stop-color="#8AD4EC"/>
<stop offset="0.217372" stop-color="#EF96FF"/>
<stop offset="0.540308" stop-color="#FF56A9"/>
<stop offset="0.852826" stop-color="#FFAA6C"/>
</linearGradient>
<linearGradient id="paint1_linear_5065_3500" x1="42.4153" y1="18.8188" x2="73.6133" y2="19.5346" gradientUnits="userSpaceOnUse">
<stop stop-color="#8AD4EC"/>
<stop offset="0.217372" stop-color="#EF96FF"/>
<stop offset="0.540308" stop-color="#FF56A9"/>
<stop offset="0.852826" stop-color="#FFAA6C"/>
</linearGradient>
</defs>
</svg>
