<svg xmlns="http://www.w3.org/2000/svg" viewBox="0 0 493.23 257.95"><defs><style>.cls-1{fill:#1e2127;}.cls-2{fill:#fad228;}</style></defs><g id="Artwork"><rect class="cls-1" x="45.27" y="46.02" width="402.69" height="163.12" rx="19.84"/><path class="cls-2" d="M200.61,135.61h10.56c.83,0,1.21-.64.89-1.47l-17.6-42a2,2,0,0,0-2.11-1.34H177.76a2,2,0,0,0-2,1.34l-19.6,46.77c-.32.83.06,1.47.83,1.47h13.7a1.42,1.42,0,0,1,1.32,1.94l-9.69,24.8,30.56-32.64a1,1,0,0,0-.68-1.7H174.87a1.43,1.43,0,0,1-1.33-1.94L178.6,118l6.86-17.51L192.24,118h-7.53a1.44,1.44,0,0,0-1.33.9l-2.82,7.22a1.41,1.41,0,0,0,1.31,1.93h13.28a1.42,1.42,0,0,1,1.33.91l2.08,5.36A1.92,1.92,0,0,0,200.61,135.61Zm62.64,0h37.42a1.3,1.3,0,0,0,1.48-1.41v-7.48a1.3,1.3,0,0,0-1.48-1.41h-26V92.22a1.35,1.35,0,0,0-1.54-1.4h-9.92a1.3,1.3,0,0,0-1.47,1.4v42A1.3,1.3,0,0,0,263.25,135.61Zm45.36,0h42.05a1.3,1.3,0,0,0,1.47-1.41v-7.48a1.3,1.3,0,0,0-1.47-1.41H320.07V118h25.6a1.33,1.33,0,0,0,1.47-1.41v-7a1.33,1.33,0,0,0-1.47-1.41h-25.6v-7h30.59a1.3,1.3,0,0,0,1.47-1.41V92.22a1.3,1.3,0,0,0-1.47-1.4H308.61a1.3,1.3,0,0,0-1.47,1.4v42A1.3,1.3,0,0,0,308.61,135.61ZM161.92,90.82H151.75a1.71,1.71,0,0,0-1.86,1.4l-7.68,32.9L135,92.22a1.65,1.65,0,0,0-1.79-1.4H120.51a1.71,1.71,0,0,0-1.85,1.4l-7.17,32.9-7.68-32.9a1.65,1.65,0,0,0-1.79-1.4H91.27c-.9,0-1.28.51-1.09,1.4l10.88,42a1.68,1.68,0,0,0,1.79,1.41h15.68a1.65,1.65,0,0,0,1.79-1.41l6.27-28.28,6.34,28.28a1.65,1.65,0,0,0,1.79,1.41h15.62a1.65,1.65,0,0,0,1.79-1.41l10.88-42C163.2,91.33,162.82,90.82,161.92,90.82Zm239.84,0H358.24a1.3,1.3,0,0,0-1.47,1.4v7.49a1.3,1.3,0,0,0,1.47,1.41h15.3V134.2a1.3,1.3,0,0,0,1.47,1.41h10a1.33,1.33,0,0,0,1.47-1.41V101.12h15.3a1.3,1.3,0,0,0,1.47-1.41V92.22A1.3,1.3,0,0,0,401.76,90.82ZM217.89,135.61h37.43a1.3,1.3,0,0,0,1.47-1.41v-7.48a1.3,1.3,0,0,0-1.47-1.41h-26V92.22a1.35,1.35,0,0,0-1.54-1.4h-9.92a1.3,1.3,0,0,0-1.47,1.4v42A1.3,1.3,0,0,0,217.89,135.61Zm-3.84,9.61H202.53c-3.14,0-4.54,1.31-4.54,4.36v10.36c0,3.06,1.4,4.37,4.54,4.37h11.52c3.16,0,4.51-1.31,4.51-4.37V149.58C218.56,146.53,217.21,145.22,214.05,145.22Zm-.94,12.95c0,1.47-.3,1.75-2.08,1.75h-5.51c-1.75,0-2.08-.28-2.08-1.75v-6.82c0-1.47.33-1.74,2.08-1.74H211c1.78,0,2.08.27,2.08,1.74ZM265,152.58h-8.74c-.89,0-1.16-.27-1.16-1v-1.07c0-.68.27-.95,1.16-.95h6.69c.65,0,.89.27.89.84v.17a.55.55,0,0,0,.62.6h4.05a.55.55,0,0,0,.62-.6V149.5c0-3.22-1.1-4.28-4.4-4.28H254.12c-3.18,0-4.51,1.31-4.51,4.36v2.84c0,3.05,1.33,4.36,4.51,4.36h8.75c.89,0,1.16.27,1.16.95V159c0,.68-.27,1-1.16,1h-7.34c-.63,0-.87-.28-.87-.85v-.16a.56.56,0,0,0-.62-.6h-4a.55.55,0,0,0-.62.6V160c0,3.22,1.08,4.29,4.4,4.29H265c3.19,0,4.51-1.31,4.51-4.37v-3C269.48,153.89,268.16,152.58,265,152.58Zm85.43,0h-8.74c-.89,0-1.16-.27-1.16-1v-1.07c0-.68.27-.95,1.16-.95h6.69c.65,0,.89.27.89.84v.17a.55.55,0,0,0,.62.6h4.05a.55.55,0,0,0,.62-.6V149.5c0-3.22-1.11-4.28-4.4-4.28H339.55c-3.18,0-4.51,1.31-4.51,4.36v2.84c0,3.05,1.33,4.36,4.51,4.36h8.75c.89,0,1.16.27,1.16.95V159c0,.68-.27,1-1.16,1H341c-.62,0-.86-.28-.86-.85v-.16a.56.56,0,0,0-.62-.6h-4.05a.55.55,0,0,0-.62.6V160c0,3.22,1.08,4.29,4.4,4.29h11.2c3.19,0,4.51-1.31,4.51-4.37v-3C354.91,153.89,353.59,152.58,350.4,152.58Zm26.65-7.36h-4.21a.55.55,0,0,0-.62.6v6.65H363v-6.65a.57.57,0,0,0-.65-.6h-4.18a.55.55,0,0,0-.62.6v17.89a.55.55,0,0,0,.62.6h4.18a.57.57,0,0,0,.65-.6v-6.85h9.21v6.85a.55.55,0,0,0,.62.6h4.21a.55.55,0,0,0,.62-.6V145.82A.55.55,0,0,0,377.05,145.22Zm-137.62,0H222.32a.55.55,0,0,0-.62.6v17.89a.55.55,0,0,0,.62.6h4.18a.57.57,0,0,0,.65-.6v-6.52H237.3a.58.58,0,0,0,.65-.6V153.4a.58.58,0,0,0-.65-.6H227.15v-3.19h12.28a.55.55,0,0,0,.62-.6v-3.19A.55.55,0,0,0,239.43,145.22Zm146.48,0h-4.19a.55.55,0,0,0-.62.6v17.89a.55.55,0,0,0,.62.6h4.19a.58.58,0,0,0,.65-.6V145.82A.58.58,0,0,0,385.91,145.22Zm-100.34.57a.83.83,0,0,0-.86-.57h-6.15a.82.82,0,0,0-.89.57l-7.43,17.89c-.13.35,0,.63.38.63h4.45a.83.83,0,0,0,.87-.58l1-2.67h9.1l1,2.67a.79.79,0,0,0,.86.58h4.7c.32,0,.48-.28.35-.63Zm-7,11,2.89-7.53,2.89,7.53Zm30.86-11.56H291.11a.55.55,0,0,0-.62.6V149a.55.55,0,0,0,.62.6h6.45v14.1a.56.56,0,0,0,.63.6h4.21a.57.57,0,0,0,.62-.6v-14.1h6.45a.55.55,0,0,0,.62-.6v-3.19A.55.55,0,0,0,309.47,145.22Zm18.47,0H316.41c-3.13,0-4.53,1.31-4.53,4.36v10.36c0,3.06,1.4,4.37,4.53,4.37h11.53c3.16,0,4.5-1.31,4.5-4.37V149.58C332.44,146.53,331.1,145.22,327.94,145.22ZM327,158.17c0,1.47-.29,1.75-2.08,1.75h-5.5c-1.76,0-2.08-.28-2.08-1.75v-6.82c0-1.47.32-1.74,2.08-1.74h5.5c1.79,0,2.08.27,2.08,1.74Z"/></g></svg>