<svg xmlns="http://www.w3.org/2000/svg" viewBox="0 0 313.1 76.32"><defs><style>.cls-1{fill:#fad228;}</style></defs><title>WALLET</title><g id="Artwork"><path class="cls-1" d="M110.47,44.8H121c.84,0,1.22-.64.9-1.48l-17.6-42A2,2,0,0,0,102.22,0H87.63a2,2,0,0,0-2,1.34L66,48.11c-.32.84.06,1.48.83,1.48h13.7a1.42,1.42,0,0,1,1.32,1.93l-9.7,24.8L102.7,43.69A1,1,0,0,0,102,42H84.73A1.42,1.42,0,0,1,83.41,40l5.06-12.91L95.33,9.62l6.78,17.51H94.57a1.42,1.42,0,0,0-1.32.9l-2.83,7.22a1.42,1.42,0,0,0,1.32,1.93H105a1.42,1.42,0,0,1,1.33.91l2.08,5.36A1.92,1.92,0,0,0,110.47,44.8Zm62.65,0h37.42A1.3,1.3,0,0,0,212,43.39V35.9a1.3,1.3,0,0,0-1.47-1.41h-26V1.41A1.35,1.35,0,0,0,183,0h-9.92a1.3,1.3,0,0,0-1.47,1.41v42A1.3,1.3,0,0,0,173.12,44.8Zm45.36,0h42A1.3,1.3,0,0,0,262,43.39V35.9a1.31,1.31,0,0,0-1.47-1.41H229.94V27.13h25.59a1.33,1.33,0,0,0,1.48-1.4v-7a1.33,1.33,0,0,0-1.48-1.41H229.94v-7h30.59A1.3,1.3,0,0,0,262,8.89V1.41A1.3,1.3,0,0,0,260.53,0h-42A1.3,1.3,0,0,0,217,1.41v42A1.3,1.3,0,0,0,218.48,44.8ZM71.79,0H61.61a1.71,1.71,0,0,0-1.85,1.41L52.08,34.3,44.91,1.41A1.65,1.65,0,0,0,43.12,0H30.38a1.71,1.71,0,0,0-1.85,1.41L21.36,34.3,13.68,1.41A1.65,1.65,0,0,0,11.89,0H1.14C.24,0-.14.51.05,1.41l10.88,42a1.68,1.68,0,0,0,1.79,1.41H28.4a1.65,1.65,0,0,0,1.79-1.41L36.46,15.1,42.8,43.39a1.65,1.65,0,0,0,1.79,1.41H60.2A1.66,1.66,0,0,0,62,43.39l10.87-42C73.07.51,72.68,0,71.79,0ZM311.63,0H268.11a1.3,1.3,0,0,0-1.47,1.41V8.89a1.3,1.3,0,0,0,1.47,1.41H283.4V43.39a1.3,1.3,0,0,0,1.48,1.41h10a1.33,1.33,0,0,0,1.47-1.41V10.3h15.3a1.3,1.3,0,0,0,1.47-1.41V1.41A1.3,1.3,0,0,0,311.63,0ZM127.76,44.8h37.42a1.3,1.3,0,0,0,1.47-1.41V35.9a1.3,1.3,0,0,0-1.47-1.41h-26V1.41A1.35,1.35,0,0,0,137.68,0h-9.92a1.3,1.3,0,0,0-1.47,1.41v42A1.3,1.3,0,0,0,127.76,44.8Zm-3.84,9.6H112.39c-3.13,0-4.53,1.31-4.53,4.36V69.13c0,3.05,1.4,4.36,4.53,4.36h11.53c3.16,0,4.51-1.31,4.51-4.36V58.76C128.43,55.71,127.08,54.4,123.92,54.4Zm-1,12.95c0,1.48-.29,1.75-2.07,1.75h-5.51c-1.76,0-2.08-.27-2.08-1.75V60.54c0-1.47.32-1.75,2.08-1.75h5.51c1.78,0,2.07.28,2.07,1.75Zm51.87-5.59h-8.75c-.89,0-1.16-.27-1.16-.95V59.75c0-.68.27-1,1.16-1h6.7c.65,0,.89.28.89.85v.16a.55.55,0,0,0,.62.6h4a.55.55,0,0,0,.62-.6V58.68c0-3.21-1.11-4.28-4.4-4.28H164c-3.19,0-4.51,1.31-4.51,4.36V61.6c0,3.06,1.32,4.36,4.51,4.36h8.74c.9,0,1.17.28,1.17,1v1.23c0,.68-.27.95-1.17.95h-7.34c-.62,0-.86-.27-.86-.85v-.16a.56.56,0,0,0-.62-.6h-4a.55.55,0,0,0-.62.6v1.12c0,3.22,1.08,4.28,4.4,4.28h11.2c3.19,0,4.51-1.31,4.51-4.36v-3C179.35,63.07,178,61.76,174.84,61.76Zm85.43,0h-8.75c-.89,0-1.16-.27-1.16-.95V59.75c0-.68.27-1,1.16-1h6.7c.64,0,.89.28.89.85v.16a.55.55,0,0,0,.62.6h4a.55.55,0,0,0,.62-.6V58.68c0-3.21-1.11-4.28-4.4-4.28H249.42c-3.19,0-4.51,1.31-4.51,4.36V61.6c0,3.06,1.32,4.36,4.51,4.36h8.74c.89,0,1.16.28,1.16,1v1.23c0,.68-.27.95-1.16.95h-7.34c-.62,0-.86-.27-.86-.85v-.16a.57.57,0,0,0-.62-.6h-4.05a.55.55,0,0,0-.62.6v1.12c0,3.22,1.08,4.28,4.4,4.28h11.2c3.18,0,4.51-1.31,4.51-4.36v-3C264.78,63.07,263.45,61.76,260.27,61.76Zm26.65-7.36h-4.21a.56.56,0,0,0-.63.6v6.66h-9.2V55a.57.57,0,0,0-.65-.6h-4.18a.55.55,0,0,0-.62.6V72.89a.55.55,0,0,0,.62.6h4.18a.57.57,0,0,0,.65-.6V66.05h9.2v6.84a.56.56,0,0,0,.63.6h4.21a.55.55,0,0,0,.62-.6V55A.55.55,0,0,0,286.92,54.4Zm-137.62,0H132.18a.55.55,0,0,0-.62.6V72.89a.55.55,0,0,0,.62.6h4.19a.58.58,0,0,0,.65-.6V66.37h10.15a.57.57,0,0,0,.64-.6V62.58a.57.57,0,0,0-.64-.6H137V58.79H149.3a.55.55,0,0,0,.62-.6V55A.55.55,0,0,0,149.3,54.4Zm146.47,0h-4.18a.55.55,0,0,0-.62.6V72.89a.55.55,0,0,0,.62.6h4.18a.57.57,0,0,0,.65-.6V55A.57.57,0,0,0,295.77,54.4ZM195.44,55a.83.83,0,0,0-.86-.57h-6.16a.83.83,0,0,0-.89.57l-7.42,17.89c-.14.36,0,.63.38.63h4.45a.8.8,0,0,0,.86-.57l1-2.68h9.1l1,2.68a.8.8,0,0,0,.87.57h4.69c.33,0,.49-.27.35-.63Zm-7,11,2.89-7.52L194.25,66ZM219.34,54.4H201a.55.55,0,0,0-.62.6v3.19a.55.55,0,0,0,.62.6h6.45v14.1a.55.55,0,0,0,.62.6h4.21a.56.56,0,0,0,.62-.6V58.79h6.46a.55.55,0,0,0,.62-.6V55A.55.55,0,0,0,219.34,54.4Zm18.46,0H226.28c-3.13,0-4.54,1.31-4.54,4.36V69.13c0,3.05,1.41,4.36,4.54,4.36H237.8c3.16,0,4.51-1.31,4.51-4.36V58.76C242.31,55.71,241,54.4,237.8,54.4Zm-.94,12.95c0,1.48-.3,1.75-2.08,1.75h-5.51c-1.75,0-2.07-.27-2.07-1.75V60.54c0-1.47.32-1.75,2.07-1.75h5.51c1.78,0,2.08.28,2.08,1.75Z"/></g></svg>