<svg id="Layer_1" data-name="Layer 1" xmlns="http://www.w3.org/2000/svg" viewBox="0 0 1526.91 201.43"><defs><style>.cls-1{fill:#151726;}</style></defs><path class="cls-1" d="M241.52,4.58h187V52.1h-111v28H417.2v40.6H317.61v28.62h111v47.52h-187Z"/><path class="cls-1" d="M670.78,4.58H857.83V52.1h-111v28h99.59v40.6H746.87v28.62h111v47.52H670.78Z"/><path class="cls-1" d="M1131.34,4.58h187.05V52.1h-111v28H1307v40.6h-99.6v28.62h111v47.52H1131.34Z"/><path class="cls-1" d="M1331.61,4.58h187.05V52.1h-111v28h99.59v40.6H1407.7v28.62h111v47.52H1331.61Z"/><path class="cls-1" d="M8.24,125.71,142,58.42v-6H8.24V4.58H225.51V76.27L92,143v6h134v47.79H8.24Z"/><path class="cls-1" d="M654.28,127.37a44.25,44.25,0,0,0-19.5-17.58q-12.63-6-36.53-6.05v-6.6q23.63-.26,36.53-6.59t19.5-16.75a35.16,35.16,0,0,0,4-10A51.54,51.54,0,0,0,659.5,52.1a49,49,0,0,0-1.37-11.68,55.15,55.15,0,0,0-3.57-10.3Q646.87,17.51,630.25,11t-43-6.45H444.16V196.85h143.1q26.37,0,43-6.46T654.56,171a56.19,56.19,0,0,0,3.57-10,46.78,46.78,0,0,0,1.37-11.68,51,51,0,0,0-1.24-11.8A39.49,39.49,0,0,0,654.28,127.37Zm-73.47,14.4a7.92,7.92,0,0,1-1.51,3.44,11.27,11.27,0,0,1-7,6.19,37.1,37.1,0,0,1-12.23,1.78H516.94V121h43.13a30.66,30.66,0,0,1,12.23,2.2q5.09,2.2,6.73,5.77a28.32,28.32,0,0,1,1.5,3.71,13.29,13.29,0,0,1,.69,4.26A24.94,24.94,0,0,1,580.81,141.77Zm-.14-73.05a13.45,13.45,0,0,1-1.37,3.43,14.1,14.1,0,0,1-7.14,5.91,31.48,31.48,0,0,1-12.09,2.06H516.94V48.25h43.13a38,38,0,0,1,12.37,1.8c3.46,1.19,5.76,3.25,6.86,6.17a8,8,0,0,1,1.51,3.44,25,25,0,0,1,.41,4.8A16.26,16.26,0,0,1,580.67,68.72Z"/><path class="cls-1" d="M872.26,4.58h131.57q42,0,71.28,16.21t39.68,45.05q1.92,8.23,3.44,16.75a104.49,104.49,0,0,1,1.51,18.13,117.11,117.11,0,0,1-1.37,18.26,140.71,140.71,0,0,1-3.85,17.17,84.17,84.17,0,0,1-22.66,32.55q-15.24,13.59-37.35,20.87t-50.68,7.28H872.26ZM1022.51,140a41.53,41.53,0,0,0,16.2-20.05,36.57,36.57,0,0,0,1.65-6.18c.36-2.1.73-4.21,1.1-6.31a40,40,0,0,0,.55-6.73,52.55,52.55,0,0,0-1-10.3,75.7,75.7,0,0,0-2.34-8.93,41.25,41.25,0,0,0-15.93-20.19Q1011.8,54,995.59,54H948.35v93.38h47.24Q1011.25,147.41,1022.51,140Z"/></svg>