<svg viewBox="0 0 449 79" xmlns="http://www.w3.org/2000/svg"><path d="M59.61 0.12H2.96V18.38H34.2L0.54 70.74L4.17 78H61.92V59.85L30.24 60.07L63.79 6.72L59.61 0.12ZM90.0216 30.7V18.6H124.342V0.12H70.1116V78H124.342V59.41H90.0216V47.75H121.592V30.7H90.0216ZM189.67 23.88C190.11 9.03 179.22 0.12 164.37 0.12H133.13V78H164.92C182.19 78 190.66 70.41 192.64 57.87C193.63 51.93 192.31 41.92 181.64 36.53C187.25 33.67 189.56 27.4 189.67 23.88ZM164.37 30.59H152.93V16.73H164.37C174.27 16.73 173.94 30.59 164.37 30.59ZM164.37 60.73H152.93V44.78H164.37C176.03 44.78 176.25 60.73 164.37 60.73ZM220.032 30.7V18.6H254.352V0.12H200.122V78H254.352V59.41H220.032V47.75H251.602V30.7H220.032ZM292.29 0.12H263.14V78H292.29C307.91 78.11 322.54 70.3 322.54 52.37V26.19C322.54 8.04 307.91 0.12 292.29 0.12ZM292.95 59.52H282.94V18.49H292.95C299.55 18.49 302.74 21.68 302.74 26.74V51.05C302.74 56.11 299.66 59.52 292.95 59.52ZM351.332 30.7V18.6H385.652V0.12H331.422V78H385.652V59.41H351.332V47.75H382.902V30.7H351.332ZM414.35 30.7V18.6H448.67V0.12H394.44V78H448.67V59.41H414.35V47.75H445.92V30.7H414.35Z" fill="#222"></path></svg>